<?xml version="1.0" encoding="utf-8"?>
<!-- Generator: Adobe Illustrator 15.1.0, SVG Export Plug-In . SVG Version: 6.00 Build 0)  -->
<!DOCTYPE svg PUBLIC "-//W3C//DTD SVG 1.1//EN" "http://www.w3.org/Graphics/SVG/1.1/DTD/svg11.dtd">
<svg version="1.1" id="Layer_1" xmlns="http://www.w3.org/2000/svg" xmlns:xlink="http://www.w3.org/1999/xlink" x="0px" y="0px"
	 width="173px" height="100px" viewBox="0 0 173 100" enable-background="new 0 0 173 100" xml:space="preserve">
<g>
	<g>
		<path fill="#BCBEC0" d="M128.262,25.949c-6.338-4.013-10.533-10.445-12.893-18.963C122.441,8.957,128.479,15.723,128.262,25.949z"
			/>
		<path fill="#BCBEC0" d="M137.473,16.466c1.912,7.256,0.607,14.826-3.459,22.67C130.173,32.883,130.354,23.813,137.473,16.466z"/>
		<path fill="#BCBEC0" d="M130.964,42.747c-6.589-3.586-11.2-9.732-14.112-18.077C124.038,26.174,130.505,32.528,130.964,42.747z"/>
		<path fill="#BCBEC0" d="M145.986,37.448c-2.365,7.119-7.6,12.743-15.297,17.083C130.896,47.193,136.01,39.703,145.986,37.448z"/>
		<path fill="#BCBEC0" d="M125.025,62.217c-3.752-6.494-4.481-14.146-2.613-22.783C127.759,44.464,129.967,53.26,125.025,62.217z"/>
		<path fill="#BCBEC0" d="M146.52,56.88c-5.506,5.091-12.806,7.491-21.642,7.579C128.6,58.135,136.691,54.04,146.52,56.88z"/>
		<path fill="#BCBEC0" d="M137.811,69.783c-6.117,4.338-13.668,5.773-22.44,4.72C119.878,68.712,128.432,65.697,137.811,69.783z"/>
		<path fill="#BCBEC0" d="M112.859,74.206c-1.549-7.338,0.127-14.836,4.586-22.47C120.966,58.178,120.332,67.227,112.859,74.206z"/>
		<path fill="#BCBEC0" d="M124.586,81.48c-7.039,2.594-14.699,2.012-22.895-1.297C107.557,75.77,116.6,75.09,124.586,81.48z"/>
		<path fill="#BCBEC0" d="M98.73,89.384c-3.063-1.632-5.972-3.928-8.731-6.835c6.504-1.438,14.224,1.41,18.409,9.691
			C105.018,91.984,101.794,91.018,98.73,89.384"/>
		<path fill="#BCBEC0" d="M98.998,79.296c0.011-7.502,3.212-14.485,9.161-21.026C110.266,65.303,107.762,74.02,98.998,79.296z"/>
		<path fill="#BCBEC0" d="M44.738,26.02c6.336-4.014,10.533-10.447,12.892-18.964C50.559,9.026,44.521,15.795,44.738,26.02z"/>
		<path fill="#BCBEC0" d="M35.53,16.538c-1.914,7.252-0.61,14.824,3.458,22.669C42.828,32.951,42.648,23.883,35.53,16.538z"/>
		<path fill="#BCBEC0" d="M42.036,42.815c6.588-3.586,11.202-9.729,14.112-18.073C48.964,26.241,42.495,32.597,42.036,42.815z"/>
		<path fill="#BCBEC0" d="M27.013,37.517c2.365,7.117,7.602,12.742,15.3,17.084C42.103,47.264,36.992,39.772,27.013,37.517z"/>
		<path fill="#BCBEC0" d="M47.976,62.287c3.749-6.498,4.48-14.146,2.613-22.785C45.241,44.531,43.036,53.329,47.976,62.287z"/>
		<path fill="#BCBEC0" d="M26.481,56.949c5.505,5.093,12.808,7.492,21.643,7.578C44.402,58.202,36.307,54.107,26.481,56.949z"/>
		<path fill="#BCBEC0" d="M35.189,69.854c6.117,4.338,13.667,5.771,22.441,4.72C53.122,68.779,44.568,65.768,35.189,69.854z"/>
		<path fill="#BCBEC0" d="M60.139,74.277c1.552-7.342-0.126-14.836-4.583-22.473C52.032,58.247,52.667,67.295,60.139,74.277z"/>
		<path fill="#BCBEC0" d="M48.415,81.551c7.036,2.592,14.7,2.01,22.894-1.295C65.446,75.837,56.401,75.16,48.415,81.551z"/>
		<path fill="#BCBEC0" d="M63.388,93.016c6.759-0.771,12.732-4.363,18.027-10.385C74.86,81.439,67.255,84.579,63.388,93.016z"/>
		<path fill="#BCBEC0" d="M74.002,79.363c-0.013-7.502-3.213-14.482-9.162-21.024C62.734,65.37,65.237,74.09,74.002,79.363z"/>
		<path fill="#BCBEC0" d="M81.597,80.008c0.926-5.416-0.78-10.06-4.753-14.041C74.272,71.311,75.199,77.291,81.597,80.008z"/>
		<path fill="#BCBEC0" d="M90.377,79.939c-0.925-5.418,0.781-10.062,4.753-14.043C97.703,71.238,96.775,77.223,90.377,79.939z"/>
	</g>
	<g>
		<path fill="#BCBEC0" d="M106.152,39.985c0,6.652-0.738,11.492-4.166,15.389c-3.359,3.829-8.801,5.979-15.588,5.979
			c-6.787,0-12.162-2.15-15.521-5.979c-3.427-3.965-4.166-8.736-4.166-15.389V12.772h11.221v25.937
			c0,9.071,1.68,13.236,8.466,13.236c6.719,0,8.534-4.165,8.534-13.236V12.772h11.221V39.985L106.152,39.985z"/>
	</g>
</g>
</svg>
