<?xml version="1.0" encoding="utf-8"?>
<!-- Generator: Adobe Illustrator 15.1.0, SVG Export Plug-In . SVG Version: 6.00 Build 0)  -->
<!DOCTYPE svg PUBLIC "-//W3C//DTD SVG 1.1//EN" "http://www.w3.org/Graphics/SVG/1.1/DTD/svg11.dtd">
<svg version="1.1" id="Layer_1" xmlns="http://www.w3.org/2000/svg" xmlns:xlink="http://www.w3.org/1999/xlink" x="0px" y="0px"
	 width="173px" height="100px" viewBox="0 0 173 100" enable-background="new 0 0 173 100" xml:space="preserve">
<g>
	<polygon points="-154.106,-751.163 -105.848,-765.411 -71.838,-748.407 -119.178,-730.022 	"/>
	<g>
		<polygon points="-156.849,-757.951 -105.742,-773.041 -69.084,-754.709 -119.286,-735.213 		"/>
		<g>
			<path fill="#E6E6E6" d="M-105.848-771.845l34.01,17.007l-47.34,18.385l-34.929-21.143L-105.848-771.845 M-105.636-774.237
				l-0.845,0.25l-48.259,14.249l-4.853,1.433l4.329,2.62l34.929,21.143l0.94,0.568l1.024-0.397l47.34-18.385l4.699-1.825
				l-4.509-2.255l-34.01-17.007L-105.636-774.237L-105.636-774.237z"/>
		</g>
	</g>
	<polygon points="-119.178,-736.454 -119.178,-730.022 -71.838,-748.407 -71.838,-754.838 	"/>
</g>
<g>
	<g>
		<path d="M-615.042-607.705c0,1.094-0.887,1.98-1.98,1.98l0,0c-1.094,0-1.98-0.887-1.98-1.98v-25.676c0-1.094,0.887-1.98,1.98-1.98
			l0,0c1.094,0,1.98,0.887,1.98,1.98V-607.705z"/>
	</g>
	<g>
		<path d="M-609.468-605.382c0,1.094-0.887,1.98-1.98,1.98l0,0c-1.094,0-1.979-0.887-1.979-1.98v-25.676
			c0-1.094,0.885-1.98,1.979-1.98l0,0c1.094,0,1.98,0.887,1.98,1.98V-605.382z"/>
	</g>
	<g>
		<path d="M-603.893-602.207c0,1.094-0.887,1.98-1.98,1.98l0,0c-1.095,0-1.979-0.887-1.979-1.98v-23.002
			c0-1.094,0.885-1.98,1.979-1.98l0,0c1.094,0,1.98,0.887,1.98,1.98V-602.207z"/>
	</g>
	<g>
		<path d="M-620.619-604.973c0,1.094-0.887,1.98-1.98,1.98l0,0c-1.094,0-1.98-0.887-1.98-1.98v-25.675c0-1.094,0.887-1.98,1.98-1.98
			l0,0c1.094,0,1.98,0.887,1.98,1.98V-604.973z"/>
	</g>
	<path d="M-625.707-613.394c0,4.259,0,7.58,0,8.143s1.127,0.678,1.127,0.104s0-9.896,0-9.896s9.433-0.794,13.012-0.001
		c3.58,0.793,7.676,3.48,7.676,3.48s1.35,14.444-3.221,18.625c-4.57,4.18-12.744,3.045-15.732,1.686
		c-1.854-0.843-7.58-6.437-7.58-10.186s0-8.729,0-13.031S-625.707-617.652-625.707-613.394z"/>
</g>
<g>
	<defs>
		<rect id="SVGID_1_" x="-573.128" y="-770.058" width="64.497" height="64.426"/>
	</defs>
	<clipPath id="SVGID_2_">
		<use xlink:href="#SVGID_1_"  overflow="visible"/>
	</clipPath>
	<g clip-path="url(#SVGID_2_)">
		<image overflow="visible" width="640" height="480" xlink:href="A4DE9F43.jpg"  transform="matrix(1 0 0 1 -824.7222 -845.6919)">
		</image>
	</g>
</g>
<g>
	<g>
		<g>
			<path d="M-579.205-597.921c-2.844,0-5.943-1.618-6.457-5.234l-0.07-0.495l2.154-0.307l0.07,0.495
				c0.353,2.483,2.543,3.364,4.311,3.364c0.271,0,0.543-0.02,0.812-0.058c1.184-0.168,2.284-0.67,3.018-1.378
				c0.839-0.811,1.179-1.821,1.011-3.005c-0.373-2.625-1.674-3.463-4.103-4.167c-0.26-0.076-0.529-0.151-0.804-0.229
				c-2.707-0.751-6.798-1.888-7.344-5.727c-0.223-1.569,0.267-3.006,1.415-4.154c0.982-0.981,2.403-1.666,3.899-1.878
				c0.355-0.05,0.714-0.076,1.067-0.076c1.273,0,2.474,0.328,3.47,0.947c1.501,0.937,2.441,2.458,2.718,4.402l0.07,0.495
				l-2.154,0.306l-0.07-0.495c-0.182-1.286-0.775-2.275-1.714-2.861c-0.65-0.404-1.451-0.618-2.316-0.618
				c-0.251,0-0.506,0.018-0.764,0.055c-1.022,0.145-1.974,0.577-2.611,1.187c-0.479,0.457-1.017,1.243-0.854,2.386
				c0.345,2.432,3.104,3.197,5.771,3.938c0,0,0.61,0.168,0.83,0.233c2.601,0.753,5.087,1.996,5.648,5.949
				c0.549,3.866-2.541,6.37-5.878,6.845C-578.45-597.948-578.829-597.921-579.205-597.921z"/>
			<path fill="#FFFFFF" d="M-580.224-620.269c1.172,0,2.284,0.299,3.206,0.872c1.373,0.855,2.232,2.256,2.487,4.048l-1.164,0.165
				c-0.204-1.438-0.877-2.549-1.945-3.215c-0.733-0.456-1.628-0.694-2.581-0.694c-0.274,0-0.553,0.02-0.834,0.06
				c-2.182,0.31-4.218,1.83-3.89,4.138c0.391,2.754,3.441,3.603,6.132,4.35c0.282,0.078,0.558,0.153,0.822,0.231
				c2.822,0.817,4.803,2.073,5.295,5.54c0.503,3.542-2.363,5.84-5.453,6.279c-0.35,0.05-0.704,0.074-1.056,0.074
				c-2.768,0-5.497-1.536-5.961-4.805l1.164-0.166c0.367,2.582,2.565,3.794,4.806,3.794c0.295,0,0.59-0.021,0.882-0.062
				c2.435-0.345,4.867-2.042,4.454-4.948c-0.409-2.88-1.883-3.83-4.458-4.577c-0.261-0.076-0.532-0.152-0.809-0.229
				c-2.736-0.76-6.483-1.801-6.982-5.315c-0.431-3.039,2.197-5.085,4.889-5.467C-580.885-620.246-580.552-620.269-580.224-620.269
				 M-580.224-621.269c-0.376,0-0.758,0.027-1.137,0.081c-1.601,0.228-3.125,0.963-4.183,2.02c-1.246,1.245-1.799,2.871-1.557,4.578
				c0.592,4.163,4.873,5.352,7.705,6.139c0.273,0.075,0.54,0.15,0.797,0.226c2.319,0.673,3.41,1.375,3.748,3.758
				c0.145,1.016-0.146,1.882-0.864,2.574c-0.66,0.637-1.659,1.09-2.74,1.243c-0.246,0.035-0.495,0.053-0.742,0.053
				c-1.643,0-3.509-0.771-3.816-2.935l-0.141-0.99l-0.99,0.141l-1.164,0.166l-0.99,0.142l0.141,0.989
				c0.556,3.913,3.892,5.664,6.952,5.664c0.398,0,0.801-0.028,1.197-0.084c3.583-0.51,6.898-3.219,6.303-7.41
				c-0.602-4.234-3.243-5.56-6.007-6.36c-0.218-0.063-0.448-0.128-0.683-0.192l-0.15-0.042c-2.992-0.83-5.132-1.569-5.409-3.526
				c-0.106-0.749,0.13-1.406,0.704-1.954c0.564-0.538,1.416-0.922,2.336-1.053c0.232-0.033,0.465-0.05,0.693-0.05
				c0.771,0,1.481,0.188,2.052,0.543c0.809,0.505,1.322,1.372,1.483,2.507l0.14,0.99l0.99-0.141l1.164-0.165l0.991-0.141
				l-0.141-0.99c-0.298-2.095-1.317-3.739-2.948-4.756C-577.565-620.916-578.856-621.269-580.224-621.269L-580.224-621.269z"/>
		</g>
	</g>
	<g>
		<g>
			
				<rect x="-580.773" y="-622.742" transform="matrix(-0.9901 0.1405 -0.1405 -0.9901 -1239.2329 -1131.1248)" width="2.175" height="26.863"/>
			<path fill="#FFFFFF" d="M-580.921-622.196l3.637,25.605l-1.164,0.165l-3.637-25.605L-580.921-622.196 M-580.072-623.327
				l-0.99,0.141l-1.164,0.165l-0.99,0.141l0.141,0.99l3.637,25.605l0.141,0.99l0.99-0.141l1.164-0.165l0.99-0.141l-0.141-0.99
				l-3.637-25.605L-580.072-623.327L-580.072-623.327z"/>
		</g>
	</g>
</g>
<g>
	<path d="M-556.739-595.915l0-1.976c-0.004,0-0.009,0-0.013,0l0,1.975h-2.175l0-2.231c-2.923-0.755-4.787-3.038-4.786-5.913v-0.5
		h2.176v0.5c0,1.69,0.963,3.012,2.611,3.633l0.002-9.565c-1.838-0.987-4.103-2.625-4.103-5.591c0.001-2.331,1.599-4.236,4.105-4.944
		l0-2.251l2.175,0l0,1.976c0.004,0,0.009,0,0.013,0.001l0-1.978l2.175,0l0,2.374c0.776,0.26,1.452,0.629,2.012,1.099
		c1.355,1.138,2.071,2.777,2.071,4.741v0.5l-2.176,0l0-0.5c0.001-1.298-0.447-2.361-1.294-3.073
		c-0.185-0.155-0.39-0.294-0.613-0.416l-0.002,7.692c2.33,1.104,4.414,2.708,4.413,6.526c0,2.661-1.682,4.775-4.416,5.599l0,2.322
		H-556.739z M-556.751-600.067c0.004,0,0.009,0,0.013,0l0.002-8.886c-0.004-0.002-0.008-0.004-0.012-0.005L-556.751-600.067z
		 M-554.563-600.544c0.958-0.427,2.239-1.36,2.24-3.291c0.001-2.181-0.78-3.215-2.238-4.068L-554.563-600.544z M-556.736-611.333
		l0.002-7.29c-0.004,0-0.009,0-0.013-0.001l-0.002,7.285C-556.744-611.337-556.74-611.335-556.736-611.333z M-558.921-618.231
		c-1.219,0.516-1.928,1.473-1.928,2.65c0,1.193,0.6,2.16,1.927,3.064L-558.921-618.231z"/>
	<path fill="#FFFFFF" d="M-556.233-622.277l1.175,0l0,2.243c0.819,0.23,1.572,0.594,2.19,1.113c1.239,1.041,1.892,2.548,1.892,4.358
		l-1.176,0c0.001-1.452-0.509-2.647-1.473-3.457c-0.412-0.345-0.899-0.612-1.435-0.799l-0.002,8.777
		c2.651,1.203,4.414,2.727,4.413,6.207c0,2.855-2.016,4.62-4.416,5.218l0,2.203h-1.175l0-2.007c-0.23,0.021-0.461,0.034-0.692,0.034
		c-0.107,0-0.213-0.008-0.32-0.013l0,1.985h-1.175l0-2.129c-2.561-0.523-4.787-2.393-4.786-5.516h1.176
		c-0.001,2.365,1.649,3.823,3.611,4.311l0.002-10.544c-2.099-1.084-4.103-2.626-4.103-5.289c0.001-2.502,1.922-4.064,4.105-4.555
		l0-2.14l1.175,0l0,1.984c0.11-0.005,0.221-0.012,0.331-0.012c0.232,0,0.456,0.033,0.682,0.055L-556.233-622.277 M-556.236-610.562
		l0.002-8.514c-0.225-0.026-0.449-0.053-0.682-0.053c-0.111,0-0.22,0.017-0.331,0.023l-0.002,8.086
		C-556.912-610.862-556.573-610.71-556.236-610.562 M-558.423-611.621l0.001-7.307c-1.609,0.429-2.928,1.556-2.928,3.347
		C-561.351-613.719-560.05-612.537-558.423-611.621 M-556.931-599.564c0.23,0,0.461-0.016,0.692-0.039l0.002-9.677
		c-0.042-0.019-0.083-0.037-0.125-0.056c-0.286-0.125-0.584-0.256-0.887-0.393l-0.002,10.153
		C-557.145-599.571-557.038-599.564-556.931-599.564 M-555.063-599.829c1.768-0.519,3.239-1.818,3.24-4.007
		c0.001-2.685-1.141-3.868-3.238-4.901L-555.063-599.829 M-557.232-623.278L-557.232-623.278l-0.013,0.001l-1.175,0l-1,0v1l0,1.382
		c-2.518,0.848-4.104,2.865-4.105,5.312c0,3.088,2.203,4.824,4.103,5.887l-0.002,8.464c-0.79-0.475-1.612-1.329-1.611-2.827l0-1h-1
		h-1.176h-1l0,1c-0.001,2.989,1.851,5.385,4.786,6.292l0,1.353v1h1h1.175h1h0.013h1.175h1v-1l0-1.459
		c2.744-0.96,4.416-3.187,4.416-5.962c0.001-3.934-2.143-5.707-4.413-6.838l0.001-6.388c0.596,0.608,0.908,1.466,0.908,2.497l0,1
		l1,0l1.176,0l1,0v-1c0-2.116-0.778-3.888-2.249-5.124c-0.524-0.44-1.139-0.797-1.833-1.067l0-1.522v-1l-1,0l-1.175,0
		L-557.232-623.278L-557.232-623.278z M-559.422-613.559c-0.634-0.617-0.928-1.271-0.927-2.022c0-0.859,0.428-1.426,0.928-1.796
		L-559.422-613.559L-559.422-613.559z M-554.063-601.393l0.001-5.56c0.823,0.688,1.239,1.578,1.238,3.117
		C-552.824-602.624-553.4-601.865-554.063-601.393L-554.063-601.393z"/>
</g>
<ellipse stroke="#E6E6E6" stroke-width="2" stroke-miterlimit="10" cx="-226.491" cy="-704.816" rx="26.75" ry="15.25"/>
<g>
	<polygon points="-428.531,-721.962 -385.318,-734.72 -354.863,-719.494 -397.253,-703.031 	"/>
	<g>
		<polygon points="-430.987,-728.041 -385.223,-741.552 -352.397,-725.138 -397.35,-707.681 		"/>
		<g>
			<path fill="#E6E6E6" d="M-385.318-740.482l30.455,15.229l-42.391,16.463l-31.277-18.932L-385.318-740.482 M-385.128-742.623
				l-0.756,0.223l-43.213,12.76l-4.345,1.283l3.875,2.346l31.277,18.932l0.843,0.51l0.917-0.357l42.391-16.463l4.209-1.633
				l-4.038-2.02l-30.455-15.229L-385.128-742.623L-385.128-742.623z"/>
		</g>
	</g>
	<polygon points="-397.253,-708.791 -397.253,-703.031 -354.863,-719.494 -354.863,-725.253 	"/>
</g>
<g>
	<polygon points="-428.531,-731.953 -385.318,-744.71 -354.863,-729.484 -397.253,-713.021 	"/>
	<g>
		<polygon points="-430.987,-738.031 -385.223,-751.542 -352.397,-735.128 -397.35,-717.671 		"/>
		<g>
			<path fill="#E6E6E6" d="M-385.318-750.472l30.455,15.229l-42.391,16.463l-31.277-18.932L-385.318-750.472 M-385.128-752.613
				l-0.756,0.223l-43.213,12.76l-4.345,1.283l3.875,2.346l31.277,18.932l0.843,0.51l0.917-0.357l42.391-16.463l4.209-1.633
				l-4.038-2.02l-30.455-15.229L-385.128-752.613L-385.128-752.613z"/>
		</g>
	</g>
	<polygon points="-397.253,-718.781 -397.253,-713.021 -354.863,-729.484 -354.863,-735.244 	"/>
</g>
<g>
	<polygon points="-428.531,-742.853 -385.318,-755.611 -354.863,-740.384 -397.253,-723.921 	"/>
	<g>
		<polygon points="-430.987,-748.931 -385.223,-762.443 -352.397,-746.029 -397.35,-728.572 		"/>
		<g>
			<path fill="#E6E6E6" d="M-385.318-761.373l30.455,15.229l-42.391,16.463l-31.277-18.932L-385.318-761.373 M-385.128-763.513
				l-0.756,0.223l-43.213,12.76l-4.345,1.283l3.875,2.346l31.277,18.932l0.843,0.51l0.917-0.357l42.391-16.463l4.209-1.633
				l-4.038-2.02l-30.455-15.229L-385.128-763.513L-385.128-763.513z"/>
		</g>
	</g>
	<polygon points="-397.253,-729.681 -397.253,-723.921 -354.863,-740.384 -354.863,-746.144 	"/>
</g>
<polygon points="-29.597,-728.521 13.616,-741.279 44.071,-726.052 1.681,-709.589 "/>
<g>
	<polygon points="-32.053,-734.599 13.711,-748.111 46.537,-731.698 1.584,-714.24 	"/>
	<g>
		<path fill="#E6E6E6" d="M13.616-747.041l30.455,15.228L1.681-715.35l-31.277-18.932L13.616-747.041 M13.806-749.182l-0.756,0.224
			L-30.163-736.2l-4.346,1.283l3.877,2.346l31.277,18.932l0.842,0.51l0.917-0.356l42.391-16.463l4.209-1.634l-4.038-2.02
			L14.511-748.83L13.806-749.182L13.806-749.182z"/>
	</g>
</g>
<polygon points="1.681,-715.35 1.681,-709.589 44.071,-726.052 44.071,-731.813 "/>
<polygon points="-29.597,-740.771 13.616,-753.529 44.071,-738.302 1.681,-721.839 "/>
<g>
	<polygon points="-32.053,-746.849 13.711,-760.361 46.537,-743.948 1.584,-726.49 	"/>
	<g>
		<path fill="#E6E6E6" d="M13.616-759.291l30.455,15.228L1.681-727.6l-31.277-18.932L13.616-759.291 M13.806-761.432l-0.756,0.224
			l-43.213,12.759l-4.346,1.283l3.877,2.346l31.277,18.932l0.842,0.51l0.917-0.356l42.391-16.463l4.209-1.634l-4.038-2.02
			L14.511-761.08L13.806-761.432L13.806-761.432z"/>
	</g>
</g>
<polygon points="1.681,-727.6 1.681,-721.839 44.071,-738.302 44.071,-744.063 "/>
<polygon points="-30.097,-754.021 13.116,-766.779 43.571,-751.552 1.181,-735.089 "/>
<g>
	<polygon points="-32.553,-760.099 13.211,-773.611 46.037,-757.198 1.084,-739.74 	"/>
	<g>
		<path fill="#E6E6E6" d="M13.116-772.541l30.455,15.228L1.181-740.85l-31.277-18.932L13.116-772.541 M13.306-774.682l-0.756,0.224
			L-30.663-761.7l-4.346,1.283l3.877,2.346l31.277,18.932l0.842,0.51l0.917-0.356l42.391-16.463l4.209-1.634l-4.038-2.02
			L14.011-774.33L13.306-774.682L13.306-774.682z"/>
	</g>
</g>
<polygon points="1.181,-740.85 1.181,-735.089 43.571,-751.552 43.571,-757.313 "/>
<g>
	<path d="M7.486-785.47c-3.536-0.141-7.525-2.002-8.588-6.875l-0.154-0.707l3.074-0.672l0.154,0.707
		c0.521,2.389,2.29,3.958,4.812,4.326l-2.951-13.515c-2.902-0.827-6.609-2.442-7.526-6.631c-0.717-3.294,0.952-6.48,4.273-8.255
		l-0.694-3.18l3.073-0.673l0.608,2.793c0.006-0.001,0.013-0.002,0.019-0.003l-0.611-2.793l3.075-0.672l0.731,3.354
		c1.173,0.127,2.24,0.439,3.181,0.93c2.268,1.192,3.786,3.288,4.393,6.061l0.155,0.708l-3.074,0.668l-0.154-0.705
		c-0.402-1.836-1.363-3.199-2.779-3.942c-0.311-0.162-0.644-0.295-0.996-0.398l2.374,10.868c3.633,0.84,7.074,2.463,8.253,7.857
		c0.82,3.758-0.902,7.266-4.509,9.274l0.715,3.282l-3.072,0.671l-0.61-2.791c-0.006,0.001-0.012,0.003-0.017,0.004l0.61,2.792
		l-3.073,0.671L7.486-785.47z M9.967-788.855c0.006-0.001,0.013-0.003,0.019-0.005l-2.743-12.556
		c-0.007-0.001-0.013-0.002-0.02-0.004L9.967-788.855z M12.911-790.206c1.221-0.9,2.742-2.614,2.147-5.342
		c-0.674-3.081-2.097-4.301-4.419-5.056L12.911-790.206z M6.509-804.778L4.258-815.08c-0.006,0.001-0.013,0.002-0.02,0.003
		l2.249,10.293C6.494-804.781,6.501-804.779,6.509-804.778z M1.289-813.849c-1.564,1.106-2.271,2.678-1.907,4.341
		c0.368,1.685,1.517,2.865,3.671,3.735L1.289-813.849z"/>
	<path fill="#FFFFFF" d="M5.497-820.758l0.691,3.169c1.229,0.071,2.406,0.355,3.438,0.895c2.071,1.089,3.462,3.017,4.021,5.574
		l-1.661,0.361c-0.449-2.051-1.538-3.582-3.149-4.428c-0.689-0.359-1.462-0.587-2.274-0.686l2.709,12.401
		c4.117,0.881,7.079,2.489,8.154,7.406c0.88,4.035-1.423,7.15-4.627,8.736l0.679,3.113l-1.66,0.362l-0.62-2.835
		c-0.319,0.1-0.641,0.19-0.967,0.262c-0.15,0.032-0.304,0.056-0.456,0.081l0.613,2.806l-1.66,0.362l-0.658-3.008
		c-0.049,0-0.098,0.001-0.146,0.001c-3.729,0-7.369-1.958-8.319-6.315l1.661-0.363c0.729,3.343,3.512,4.894,6.434,4.975
		l-3.253-14.897c-3.303-0.885-6.61-2.444-7.434-6.205c-0.77-3.536,1.462-6.337,4.394-7.705l-0.66-3.023l1.66-0.363l0.611,2.804
		c0.154-0.042,0.309-0.086,0.465-0.12c0.328-0.071,0.653-0.095,0.979-0.133l-0.626-2.863L5.497-820.758 M7.453-803.842l-2.628-12.03
		c-0.326,0.032-0.651,0.062-0.979,0.135c-0.157,0.034-0.307,0.092-0.463,0.135l2.496,11.426
		C6.404-804.057,6.93-803.948,7.453-803.842 M4.035-804.663L1.78-814.989c-2.142,1.104-3.658,3.104-3.104,5.635
		C-0.75-806.723,1.453-805.455,4.035-804.663 M9.412-788.006c0.152-0.025,0.306-0.049,0.456-0.082
		c0.326-0.071,0.646-0.164,0.967-0.27l-2.987-13.675c-0.064-0.012-0.129-0.024-0.195-0.038c-0.441-0.088-0.904-0.182-1.374-0.282
		L9.412-788.006 M12.426-789.04c2.337-1.279,4.014-3.57,3.34-6.662c-0.83-3.793-2.809-5.112-6.09-5.925L12.426-789.04 M6.602-822.48
		l-1.413,0.31l-1.661,0.363l-0.017,0.003l0,0l-1.414,0.31l-1.66,0.363l-1.412,0.309l0.309,1.413l0.427,1.953
		c-3.295,1.975-4.913,5.315-4.16,8.774c0.955,4.362,4.604,6.135,7.618,7.051l2.611,11.959c-1.263-0.427-2.688-1.38-3.15-3.498
		l-0.309-1.414l-1.413,0.31l-1.661,0.363l-1.412,0.309l0.308,1.412c0.918,4.208,4.282,7.032,8.706,7.41l0.418,1.913l0.31,1.412
		l1.412-0.308l1.66-0.362l1.413-0.309v-0.001l0.017-0.003l1.66-0.362l1.412-0.308l-0.308-1.413l-0.449-2.062
		c3.578-2.205,5.252-5.867,4.397-9.787c-1.216-5.559-4.792-7.401-8.35-8.3l-1.972-9.026c1.028,0.674,1.736,1.789,2.056,3.25
		l0.31,1.411l1.411-0.307l1.661-0.361l1.415-0.308l-0.31-1.415c-0.654-2.988-2.301-5.251-4.762-6.545
		c-0.881-0.46-1.859-0.775-2.921-0.941l-0.469-2.15L6.602-822.48L6.602-822.48z M2.024-807.092c-1.086-0.676-1.704-1.51-1.936-2.57
		c-0.266-1.214,0.164-2.148,0.757-2.826L2.024-807.092L2.024-807.092z M13.355-791.56l-1.716-7.855
		c1.374,0.717,2.237,1.847,2.713,4.022C14.726-793.681,14.146-792.431,13.355-791.56L13.355-791.56z"/>
</g>
<g>
	<path d="M-116.164-791.469c-3.536-0.141-7.525-2.002-8.588-6.875l-0.154-0.707l3.074-0.672l0.154,0.707
		c0.521,2.389,2.29,3.958,4.812,4.326l-2.951-13.515c-2.902-0.827-6.609-2.442-7.526-6.631c-0.717-3.294,0.952-6.48,4.273-8.255
		l-0.694-3.18l3.073-0.673l0.608,2.793c0.006-0.001,0.013-0.002,0.019-0.003l-0.611-2.793l3.075-0.672l0.731,3.354
		c1.173,0.127,2.24,0.439,3.181,0.93c2.268,1.192,3.786,3.288,4.393,6.061l0.155,0.708l-3.074,0.668l-0.154-0.705
		c-0.402-1.836-1.363-3.199-2.779-3.942c-0.311-0.162-0.644-0.295-0.996-0.398l2.374,10.868c3.633,0.84,7.074,2.463,8.253,7.857
		c0.82,3.758-0.902,7.266-4.509,9.274l0.715,3.282l-3.072,0.671l-0.61-2.791c-0.006,0.001-0.012,0.003-0.017,0.004l0.61,2.792
		l-3.073,0.671L-116.164-791.469z M-113.684-794.854c0.006-0.001,0.013-0.003,0.019-0.005l-2.743-12.556
		c-0.007-0.001-0.013-0.002-0.02-0.004L-113.684-794.854z M-110.739-796.205c1.221-0.9,2.742-2.614,2.147-5.342
		c-0.674-3.081-2.097-4.301-4.419-5.056L-110.739-796.205z M-117.142-810.777l-2.251-10.302c-0.006,0.001-0.013,0.002-0.02,0.003
		l2.249,10.293C-117.156-810.78-117.149-810.778-117.142-810.777z M-122.361-819.848c-1.564,1.106-2.271,2.678-1.907,4.341
		c0.368,1.685,1.517,2.865,3.671,3.735L-122.361-819.848z"/>
	<path fill="#FFFFFF" d="M-118.153-826.757l0.691,3.169c1.229,0.071,2.406,0.355,3.438,0.895c2.071,1.089,3.462,3.017,4.021,5.574
		l-1.661,0.361c-0.449-2.051-1.538-3.582-3.149-4.428c-0.689-0.359-1.462-0.587-2.274-0.686l2.709,12.401
		c4.117,0.881,7.079,2.489,8.154,7.406c0.88,4.035-1.423,7.15-4.627,8.736l0.679,3.113l-1.66,0.362l-0.62-2.835
		c-0.319,0.1-0.641,0.19-0.967,0.262c-0.15,0.032-0.304,0.056-0.456,0.081l0.613,2.806l-1.66,0.362l-0.658-3.008
		c-0.049,0-0.098,0.001-0.146,0.001c-3.729,0-7.369-1.958-8.319-6.315l1.661-0.363c0.729,3.343,3.512,4.894,6.434,4.975
		l-3.253-14.897c-3.303-0.885-6.61-2.444-7.434-6.205c-0.77-3.536,1.462-6.337,4.394-7.705l-0.66-3.023l1.66-0.363l0.611,2.804
		c0.154-0.042,0.309-0.086,0.465-0.12c0.328-0.071,0.653-0.095,0.979-0.133l-0.626-2.863L-118.153-826.757 M-116.197-809.841
		l-2.628-12.03c-0.326,0.032-0.651,0.062-0.979,0.135c-0.157,0.034-0.307,0.092-0.463,0.135l2.496,11.426
		C-117.246-810.056-116.721-809.947-116.197-809.841 M-119.615-810.662l-2.255-10.326c-2.142,1.104-3.658,3.104-3.104,5.635
		C-124.4-812.722-122.197-811.454-119.615-810.662 M-114.238-794.005c0.152-0.025,0.306-0.049,0.456-0.082
		c0.326-0.071,0.646-0.164,0.967-0.27l-2.987-13.675c-0.064-0.012-0.129-0.024-0.195-0.038c-0.441-0.088-0.904-0.182-1.374-0.282
		L-114.238-794.005 M-111.225-795.039c2.337-1.279,4.014-3.57,3.34-6.662c-0.83-3.793-2.809-5.112-6.09-5.925L-111.225-795.039
		 M-117.049-828.479l-1.413,0.31l-1.661,0.363l-0.017,0.003l0,0l-1.414,0.31l-1.66,0.363l-1.412,0.309l0.309,1.413l0.427,1.953
		c-3.295,1.975-4.913,5.315-4.16,8.774c0.955,4.362,4.604,6.135,7.618,7.051l2.611,11.959c-1.263-0.427-2.688-1.38-3.15-3.498
		l-0.309-1.414l-1.413,0.31l-1.661,0.363l-1.412,0.309l0.308,1.412c0.918,4.208,4.282,7.032,8.706,7.41l0.418,1.913l0.31,1.412
		l1.412-0.308l1.66-0.362l1.413-0.309v-0.001l0.017-0.003l1.66-0.362l1.412-0.308l-0.308-1.413l-0.449-2.062
		c3.578-2.205,5.252-5.867,4.397-9.787c-1.216-5.559-4.792-7.401-8.35-8.3l-1.972-9.026c1.028,0.674,1.736,1.789,2.056,3.25
		l0.31,1.411l1.411-0.307l1.661-0.361l1.415-0.308l-0.31-1.415c-0.654-2.988-2.301-5.251-4.762-6.545
		c-0.881-0.46-1.859-0.775-2.921-0.941l-0.469-2.15L-117.049-828.479L-117.049-828.479z M-121.626-813.091
		c-1.086-0.676-1.704-1.51-1.936-2.57c-0.266-1.214,0.164-2.148,0.757-2.826L-121.626-813.091L-121.626-813.091z M-110.295-797.559
		l-1.716-7.855c1.374,0.717,2.237,1.847,2.713,4.022C-108.925-799.68-109.504-798.43-110.295-797.559L-110.295-797.559z"/>
</g>
<polygon points="60.481,78.47 97.941,67.41 124.342,80.609 87.595,94.881 "/>
<g>
	<polygon points="58.353,73.2 98.023,61.488 126.479,75.716 87.511,90.85 	"/>
	<g>
		<path fill="#E6E6E6" d="M97.941,62.416l26.4,13.2L87.595,89.887L60.481,73.476L97.941,62.416 M98.105,60.56l-0.655,0.193
			l-37.46,11.06l-3.767,1.112l3.36,2.034L86.697,91.37l0.729,0.441l0.796-0.309l36.747-14.271l3.647-1.417l-3.5-1.75l-26.4-13.2
			L98.105,60.56L98.105,60.56z"/>
	</g>
</g>
<polygon points="87.595,89.887 87.595,94.881 124.342,80.609 124.342,75.616 "/>
<polygon points="60.481,67.851 97.941,56.791 124.342,69.99 87.595,84.262 "/>
<g>
	<polygon points="58.353,62.581 98.023,50.869 126.479,65.097 87.511,80.23 	"/>
	<g>
		<path fill="#E6E6E6" d="M97.941,51.797l26.4,13.2L87.595,79.268L60.481,62.856L97.941,51.797 M98.105,49.94l-0.655,0.193
			l-37.46,11.06l-3.767,1.112l3.36,2.034l27.113,16.411l0.729,0.441l0.796-0.309l36.747-14.271l3.647-1.417l-3.5-1.75l-26.4-13.2
			L98.105,49.94L98.105,49.94z"/>
	</g>
</g>
<polygon points="87.595,79.268 87.595,84.262 124.342,69.99 124.342,64.997 "/>
<polygon points="60.048,56.364 97.508,45.305 123.908,58.505 87.161,72.775 "/>
<g>
	<polygon points="57.919,51.096 97.59,39.382 126.046,53.61 87.077,68.745 	"/>
	<g>
		<path fill="#E6E6E6" d="M97.508,40.311l26.4,13.2L87.161,67.782L60.048,51.371L97.508,40.311 M97.672,38.454l-0.655,0.194
			l-37.46,11.061L55.79,50.82l3.36,2.034l27.113,16.411l0.729,0.441l0.796-0.309l36.747-14.271l3.647-1.417l-3.5-1.75l-26.4-13.2
			L97.672,38.454L97.672,38.454z"/>
	</g>
</g>
<polygon points="87.161,67.782 87.161,72.775 123.908,58.505 123.908,53.511 "/>
<g>
	<g>
		<path d="M85.092,37.076c-3.078-0.18-6.486-1.847-7.409-6.079L77.5,30.159l3.103-0.678l0.184,0.839
			c0.516,2.367,2.303,3.181,3.586,3.457l-2.424-11.102c-2.528-0.739-5.689-2.177-6.488-5.829c-0.628-2.883,0.787-5.667,3.629-7.257
			l-0.609-2.787l3.102-0.679l2.652-0.579l0.643,2.944c0.97,0.123,1.856,0.392,2.644,0.803c2.011,1.058,3.355,2.911,3.892,5.36
			l0.185,0.839l-3.103,0.675l-0.184-0.837c-0.33-1.505-1.112-2.62-2.263-3.223c-0.136-0.071-0.276-0.135-0.423-0.192l1.916,8.769
			c3.139,0.749,6.089,2.204,7.113,6.889c0.716,3.28-0.746,6.341-3.832,8.13l0.628,2.877l-5.752,1.257L85.092,37.076z M90.093,32.369
			c0.977-0.808,1.893-2.129,1.458-4.12c-0.514-2.351-1.56-3.387-3.236-4.023L90.093,32.369z M79.815,12.911
			c-0.796,0.652-1.589,1.718-1.253,3.258c0.273,1.249,1.088,2.16,2.587,2.854L79.815,12.911z"/>
	</g>
	<g>
		<path fill="#E6E6E6" d="M83.578,6.565l0.594,2.719c1.054,0.061,2.064,0.305,2.95,0.768c1.777,0.935,2.971,2.588,3.451,4.783
			l-1.426,0.31c-0.386-1.76-1.319-3.074-2.702-3.799c-0.592-0.309-1.255-0.504-1.952-0.588l2.325,10.642
			c3.533,0.756,6.074,2.136,6.997,6.355c0.755,3.463-1.221,6.136-3.971,7.497l0.583,2.671l-1.425,0.311l-0.532-2.433
			c-0.274,0.085-0.55,0.163-0.83,0.225c-0.129,0.027-0.261,0.047-0.391,0.069l0.525,2.408l-1.424,0.311l-0.565-2.581
			c-0.042,0-0.083,0.001-0.126,0.001c-3.199,0-6.323-1.681-7.139-5.42l1.426-0.312c0.625,2.869,3.014,4.199,5.521,4.269
			l-2.791-12.784c-2.834-0.759-5.673-2.098-6.379-5.325c-0.66-3.034,1.254-5.438,3.771-6.612l-0.567-2.594l1.425-0.312l0.524,2.406
			c0.133-0.036,0.265-0.074,0.399-0.104c0.281-0.061,0.561-0.081,0.84-0.114l-0.537-2.457L83.578,6.565 M85.257,21.081
			l-2.255-10.323c-0.28,0.028-0.56,0.054-0.841,0.116c-0.135,0.029-0.263,0.079-0.397,0.116l2.143,9.805
			C84.356,20.897,84.808,20.991,85.257,21.081 M82.324,20.377l-1.936-8.861c-1.838,0.947-3.139,2.663-2.664,4.835
			C78.218,18.609,80.108,19.698,82.324,20.377 M86.938,34.67c0.131-0.022,0.263-0.042,0.392-0.07c0.28-0.062,0.555-0.141,0.83-0.231
			l-2.563-11.734c-0.056-0.01-0.111-0.021-0.168-0.033c-0.379-0.076-0.776-0.156-1.179-0.242L86.938,34.67 M89.523,33.784
			c2.006-1.098,3.444-3.064,2.866-5.717c-0.712-3.255-2.41-4.387-5.226-5.084L89.523,33.784 M84.889,4.522l-1.677,0.366
			l-0.975,0.213l-0.001,0l-1.508,0.33l-0.619,0.135v0L79.134,5.78l-1.676,0.367l0.366,1.676l0.295,1.348
			c-2.81,1.82-4.167,4.784-3.498,7.856c0.892,4.078,4.5,5.665,6.598,6.327l1.98,9.071c-0.698-0.424-1.322-1.127-1.575-2.288
			l-0.365-1.678l-1.678,0.367l-1.426,0.312l-1.676,0.366l0.365,1.676c0.81,3.713,3.708,6.239,7.544,6.696l0.286,1.306l0.367,1.676
			l1.676-0.366l1.424-0.311l1.677-0.366l-0.001-0.001l0.977-0.213l1.677-0.366l-0.366-1.676l-0.315-1.446
			c3.052-2.016,4.459-5.256,3.703-8.723c-1.065-4.873-4.127-6.576-7.227-7.408l-1.257-5.751c0.202,0.372,0.356,0.8,0.462,1.283
			l0.367,1.673l1.674-0.364l1.426-0.31l1.68-0.365l-0.367-1.679c-0.593-2.705-2.089-4.757-4.329-5.935
			c-0.712-0.372-1.492-0.64-2.331-0.8l-0.335-1.534L84.889,4.522L84.889,4.522z M79.824,16.976
			c-0.238-0.336-0.354-0.672-0.423-0.991c-0.078-0.358-0.072-0.684-0.007-0.977L79.824,16.976L79.824,16.976z M90.549,30.436
			l-0.972-4.451c0.563,0.573,0.895,1.343,1.136,2.448C90.885,29.223,90.794,29.885,90.549,30.436L90.549,30.436z"/>
	</g>
</g>
<g>
	<polygon points="-396.564,-802.586 -342.725,-807.201 -349.65,-823.389 -397.211,-820.496 	"/>
	<polygon points="-396.564,-797.385 -342.725,-802 -349.65,-818.188 -397.211,-815.295 	"/>
	<polygon fill="#E6E6E6" points="-343.166,-807.201 -343.166,-802.505 -395.98,-798.331 -396.345,-802.766 	"/>
</g>
<g>
	<polygon points="-139.229,-765.299 -139.229,-770.857 -135.636,-769.741 -136.036,-763.997 	"/>
	<g>
		<polygon points="-135.326,-752.469 -80.993,-756.647 -88.395,-773.95 -139.229,-770.857 		"/>
		<polygon points="-135.326,-746.91 -80.993,-751.089 -88.395,-768.39 -139.229,-765.299 		"/>
		<polygon fill="#E6E6E6" points="-81.464,-756.647 -81.464,-751.628 -134.701,-747.92 -135.092,-752.661 		"/>
	</g>
	<polygon fill="#E6E6E6" points="-139.012,-769.891 -138.977,-765.511 -134.769,-747.92 -135.092,-752.661 	"/>
</g>
<g>
	<polygon points="-79.032,-770.88 -84.824,-768.727 -84.824,-768.727 -79.032,-770.88 -102.49,-783.64 -137.433,-772.388 
		-130.585,-768.777 -136.84,-766.761 -111.016,-753.14 -78.44,-765.254 	"/>
	<polygon fill="#E6E6E6" points="-136.84,-772.017 -136.84,-767.131 -111.021,-753.585 -111.078,-758.47 	"/>
</g>
</svg>
