<?xml version="1.0" encoding="utf-8"?>
<!-- Generator: Adobe Illustrator 15.1.0, SVG Export Plug-In . SVG Version: 6.00 Build 0)  -->
<!DOCTYPE svg PUBLIC "-//W3C//DTD SVG 1.1//EN" "http://www.w3.org/Graphics/SVG/1.1/DTD/svg11.dtd">
<svg version="1.1" id="Layer_1" xmlns="http://www.w3.org/2000/svg" xmlns:xlink="http://www.w3.org/1999/xlink" x="0px" y="0px"
	 width="173px" height="100px" viewBox="0 0 173 100" enable-background="new 0 0 173 100" xml:space="preserve">
<g>
	<polygon points="282.727,-750.838 330.986,-765.086 364.996,-748.083 317.656,-729.698 	"/>
	<g>
		<polygon points="279.985,-757.626 331.091,-772.716 367.75,-754.385 317.547,-734.889 		"/>
		<g>
			<path fill="#E6E6E6" d="M330.986-771.521l34.01,17.007l-47.34,18.385l-34.929-21.143L330.986-771.521 M331.198-773.913
				l-0.845,0.25l-48.259,14.249l-4.853,1.433l4.329,2.62l34.929,21.143l0.94,0.568l1.024-0.397l47.34-18.385l4.699-1.825
				l-4.509-2.255l-34.01-17.007L331.198-773.913L331.198-773.913z"/>
		</g>
	</g>
	<polygon points="317.656,-736.129 317.656,-729.698 364.996,-748.083 364.996,-754.514 	"/>
</g>
<g>
	<g>
		<path d="M-178.208-607.38c0,1.094-0.887,1.98-1.98,1.98l0,0c-1.094,0-1.98-0.887-1.98-1.98v-25.676c0-1.094,0.887-1.98,1.98-1.98
			l0,0c1.094,0,1.98,0.887,1.98,1.98V-607.38z"/>
	</g>
	<g>
		<path d="M-172.634-605.058c0,1.094-0.887,1.98-1.98,1.98l0,0c-1.094,0-1.979-0.887-1.979-1.98v-25.676
			c0-1.094,0.885-1.98,1.979-1.98l0,0c1.094,0,1.98,0.887,1.98,1.98V-605.058z"/>
	</g>
	<g>
		<path d="M-167.059-601.882c0,1.094-0.887,1.98-1.98,1.98l0,0c-1.095,0-1.979-0.887-1.979-1.98v-23.002
			c0-1.094,0.885-1.98,1.979-1.98l0,0c1.094,0,1.98,0.887,1.98,1.98V-601.882z"/>
	</g>
	<g>
		<path d="M-183.786-604.649c0,1.094-0.887,1.98-1.98,1.98l0,0c-1.094,0-1.98-0.887-1.98-1.98v-25.675c0-1.094,0.887-1.98,1.98-1.98
			l0,0c1.094,0,1.98,0.887,1.98,1.98V-604.649z"/>
	</g>
	<path d="M-188.874-613.07c0,4.259,0,7.58,0,8.143s1.127,0.678,1.127,0.104s0-9.896,0-9.896s9.433-0.794,13.012-0.001
		c3.58,0.793,7.676,3.48,7.676,3.48s1.35,14.444-3.221,18.625c-4.57,4.18-12.744,3.045-15.732,1.686
		c-1.854-0.843-7.58-6.437-7.58-10.186s0-8.729,0-13.031S-188.874-617.328-188.874-613.07z"/>
</g>
<g>
	<defs>
		<rect id="SVGID_1_" x="-136.295" y="-769.734" width="64.497" height="64.426"/>
	</defs>
	<clipPath id="SVGID_2_">
		<use xlink:href="#SVGID_1_"  overflow="visible"/>
	</clipPath>
	<g clip-path="url(#SVGID_2_)">
		<image overflow="visible" width="640" height="480" xlink:href="1C835F69.jpg"  transform="matrix(1 0 0 1 -387.8887 -845.3677)">
		</image>
	</g>
</g>
<g>
	<g>
		<g>
			<path d="M-142.371-597.597c-2.844,0-5.943-1.618-6.457-5.234l-0.07-0.495l2.154-0.307l0.07,0.495
				c0.353,2.483,2.543,3.364,4.311,3.364c0.271,0,0.543-0.02,0.812-0.058c1.184-0.168,2.284-0.67,3.018-1.378
				c0.839-0.811,1.179-1.821,1.011-3.005c-0.373-2.625-1.674-3.463-4.103-4.167c-0.26-0.076-0.529-0.151-0.804-0.229
				c-2.707-0.751-6.798-1.888-7.344-5.727c-0.223-1.569,0.267-3.006,1.415-4.154c0.982-0.981,2.403-1.666,3.899-1.878
				c0.355-0.05,0.714-0.076,1.067-0.076c1.273,0,2.474,0.328,3.47,0.947c1.501,0.937,2.441,2.458,2.718,4.402l0.07,0.495
				l-2.154,0.306l-0.07-0.495c-0.182-1.286-0.775-2.275-1.714-2.861c-0.65-0.404-1.451-0.618-2.316-0.618
				c-0.251,0-0.506,0.018-0.764,0.055c-1.022,0.145-1.974,0.577-2.611,1.187c-0.479,0.457-1.017,1.243-0.854,2.386
				c0.345,2.432,3.104,3.197,5.771,3.938c0,0,0.61,0.168,0.83,0.233c2.601,0.753,5.087,1.996,5.648,5.949
				c0.549,3.866-2.541,6.37-5.878,6.845C-141.617-597.624-141.996-597.597-142.371-597.597z"/>
			<path fill="#FFFFFF" d="M-143.39-619.945c1.172,0,2.284,0.299,3.206,0.872c1.373,0.855,2.232,2.256,2.487,4.048l-1.164,0.165
				c-0.204-1.438-0.877-2.549-1.945-3.215c-0.733-0.456-1.628-0.694-2.581-0.694c-0.274,0-0.553,0.02-0.834,0.06
				c-2.182,0.31-4.218,1.83-3.89,4.138c0.391,2.754,3.441,3.603,6.132,4.35c0.282,0.078,0.558,0.153,0.822,0.231
				c2.822,0.817,4.803,2.073,5.295,5.54c0.503,3.542-2.363,5.84-5.453,6.279c-0.35,0.05-0.704,0.074-1.056,0.074
				c-2.768,0-5.497-1.536-5.961-4.805l1.164-0.166c0.367,2.582,2.565,3.794,4.806,3.794c0.295,0,0.59-0.021,0.882-0.062
				c2.435-0.345,4.867-2.042,4.454-4.948c-0.409-2.88-1.883-3.83-4.458-4.577c-0.261-0.076-0.532-0.152-0.809-0.229
				c-2.736-0.76-6.483-1.801-6.982-5.315c-0.431-3.039,2.197-5.085,4.889-5.467C-144.052-619.921-143.718-619.945-143.39-619.945
				 M-143.39-620.945c-0.376,0-0.758,0.027-1.137,0.081c-1.601,0.228-3.125,0.963-4.183,2.02c-1.246,1.245-1.799,2.871-1.557,4.578
				c0.592,4.163,4.873,5.352,7.705,6.139c0.273,0.075,0.54,0.15,0.797,0.226c2.319,0.673,3.41,1.375,3.748,3.758
				c0.145,1.016-0.146,1.882-0.864,2.574c-0.66,0.637-1.659,1.09-2.74,1.243c-0.246,0.035-0.495,0.053-0.742,0.053
				c-1.643,0-3.509-0.771-3.816-2.935l-0.141-0.99l-0.99,0.141l-1.164,0.166l-0.99,0.142l0.141,0.989
				c0.556,3.913,3.892,5.664,6.952,5.664c0.398,0,0.801-0.028,1.197-0.084c3.583-0.51,6.898-3.219,6.303-7.41
				c-0.602-4.234-3.243-5.56-6.007-6.36c-0.218-0.063-0.448-0.128-0.683-0.192l-0.15-0.042c-2.992-0.83-5.132-1.569-5.409-3.526
				c-0.106-0.749,0.13-1.406,0.704-1.954c0.564-0.538,1.416-0.922,2.336-1.053c0.232-0.033,0.465-0.05,0.693-0.05
				c0.771,0,1.481,0.188,2.052,0.543c0.809,0.505,1.322,1.372,1.483,2.507l0.14,0.99l0.99-0.141l1.164-0.165l0.991-0.141
				l-0.141-0.99c-0.298-2.095-1.317-3.739-2.948-4.756C-140.732-620.591-142.023-620.945-143.39-620.945L-143.39-620.945z"/>
		</g>
	</g>
	<g>
		<g>
			
				<rect x="-143.939" y="-622.418" transform="matrix(-0.9901 0.1405 -0.1405 -0.9901 -369.8542 -1191.8591)" width="2.175" height="26.863"/>
			<path fill="#FFFFFF" d="M-144.088-621.872l3.637,25.605l-1.164,0.165l-3.637-25.605L-144.088-621.872 M-143.238-623.002
				l-0.99,0.141l-1.164,0.165l-0.99,0.141l0.141,0.99l3.637,25.605l0.141,0.99l0.99-0.141l1.164-0.165l0.99-0.141l-0.141-0.99
				l-3.637-25.605L-143.238-623.002L-143.238-623.002z"/>
		</g>
	</g>
</g>
<g>
	<path d="M-119.906-595.59l0-1.976c-0.004,0-0.009,0-0.013,0l0,1.975h-2.175l0-2.231c-2.923-0.755-4.787-3.038-4.786-5.913v-0.5
		h2.176v0.5c0,1.69,0.963,3.012,2.611,3.633l0.002-9.565c-1.838-0.987-4.103-2.625-4.103-5.591c0.001-2.331,1.599-4.236,4.105-4.944
		l0-2.251l2.175,0l0,1.976c0.004,0,0.009,0,0.013,0.001l0-1.978l2.175,0l0,2.374c0.776,0.26,1.452,0.629,2.012,1.099
		c1.355,1.138,2.071,2.777,2.071,4.741v0.5l-2.176,0l0-0.5c0.001-1.298-0.447-2.361-1.294-3.073
		c-0.185-0.155-0.39-0.294-0.613-0.416l-0.002,7.692c2.33,1.104,4.414,2.708,4.413,6.526c0,2.661-1.682,4.775-4.416,5.599l0,2.322
		H-119.906z M-119.917-599.743c0.004,0,0.009,0,0.013,0l0.002-8.886c-0.004-0.002-0.008-0.004-0.012-0.005L-119.917-599.743z
		 M-117.73-600.22c0.958-0.427,2.239-1.36,2.24-3.291c0.001-2.181-0.78-3.215-2.238-4.068L-117.73-600.22z M-119.902-611.009
		l0.002-7.29c-0.004,0-0.009,0-0.013-0.001l-0.002,7.285C-119.911-611.013-119.906-611.011-119.902-611.009z M-122.088-617.907
		c-1.219,0.516-1.928,1.473-1.928,2.65c0,1.193,0.6,2.16,1.927,3.064L-122.088-617.907z"/>
	<path fill="#FFFFFF" d="M-119.399-621.953l1.175,0l0,2.243c0.819,0.23,1.572,0.594,2.19,1.113c1.239,1.041,1.892,2.548,1.892,4.358
		l-1.176,0c0.001-1.452-0.509-2.647-1.473-3.457c-0.412-0.345-0.899-0.612-1.435-0.799l-0.002,8.777
		c2.651,1.203,4.414,2.727,4.413,6.207c0,2.855-2.016,4.62-4.416,5.218l0,2.203h-1.175l0-2.007c-0.23,0.021-0.461,0.034-0.692,0.034
		c-0.107,0-0.213-0.008-0.32-0.013l0,1.985h-1.175l0-2.129c-2.561-0.523-4.787-2.393-4.786-5.516h1.176
		c-0.001,2.365,1.649,3.823,3.611,4.311l0.002-10.544c-2.099-1.084-4.103-2.626-4.103-5.289c0.001-2.502,1.922-4.064,4.105-4.555
		l0-2.14l1.175,0l0,1.984c0.11-0.005,0.221-0.012,0.331-0.012c0.232,0,0.456,0.033,0.682,0.055L-119.399-621.953 M-119.402-610.238
		l0.002-8.514c-0.225-0.026-0.449-0.053-0.682-0.053c-0.111,0-0.22,0.017-0.331,0.023l-0.002,8.086
		C-120.079-610.538-119.739-610.386-119.402-610.238 M-121.589-611.297l0.001-7.307c-1.609,0.429-2.928,1.556-2.928,3.347
		C-124.517-613.395-123.216-612.212-121.589-611.297 M-120.097-599.24c0.23,0,0.461-0.016,0.692-0.039l0.002-9.677
		c-0.042-0.019-0.083-0.037-0.125-0.056c-0.286-0.125-0.584-0.256-0.887-0.393l-0.002,10.153
		C-120.311-599.247-120.204-599.24-120.097-599.24 M-118.23-599.504c1.768-0.519,3.239-1.818,3.24-4.007
		c0.001-2.685-1.141-3.868-3.238-4.901L-118.23-599.504 M-120.399-622.954L-120.399-622.954l-0.013,0.001l-1.175,0l-1,0v1l0,1.382
		c-2.518,0.848-4.104,2.865-4.105,5.312c0,3.088,2.203,4.824,4.103,5.887l-0.002,8.464c-0.79-0.475-1.612-1.329-1.611-2.827l0-1h-1
		h-1.176h-1l0,1c-0.001,2.989,1.851,5.385,4.786,6.292l0,1.353v1h1h1.175h1h0.013h1.175h1v-1l0-1.459
		c2.744-0.96,4.416-3.187,4.416-5.962c0.001-3.934-2.143-5.707-4.413-6.838l0.001-6.388c0.596,0.608,0.908,1.466,0.908,2.497l0,1
		l1,0l1.176,0l1,0v-1c0-2.116-0.778-3.888-2.249-5.124c-0.524-0.44-1.139-0.797-1.833-1.067l0-1.522v-1l-1,0l-1.175,0
		L-120.399-622.954L-120.399-622.954z M-122.589-613.234c-0.634-0.617-0.928-1.271-0.927-2.022c0-0.859,0.428-1.426,0.928-1.796
		L-122.589-613.234L-122.589-613.234z M-117.229-601.069l0.001-5.56c0.823,0.688,1.239,1.578,1.238,3.117
		C-115.991-602.299-116.566-601.541-117.229-601.069L-117.229-601.069z"/>
</g>
<g>
	
		<rect x="90.341" y="18.563" transform="matrix(0.9562 -0.2928 0.2928 0.9562 -9.1889 34.8205)" fill="#020202" width="42.737" height="59.077"/>
	<polyline fill="none" stroke="#020202" stroke-width="1.257" stroke-miterlimit="10" points="126.553,15.911 143.656,71.761 
		104.746,83.675 100.252,82.013 	"/>
</g>
<path stroke="#FFFFFF" stroke-width="0.9602" stroke-miterlimit="10" d="M133.393,32.844c4.687-0.008,4.927-0.007,8.85-0.013
	c4.712-0.007,11.753,7.181,12.816,9.508c1.554,3.401-0.304,17.911-0.304,17.911s-1.292,1.327-1.785,1.868
	c-2.187,2.395-6.611,3.501-11.031,3.979c-0.198,0.05-0.4,0.086-0.612,0.086h-0.248c-5.892,0.532-11.514,0.017-11.514,0.017
	l-17.151,0.025c-1.374,0.001-2.49-1.111-2.492-2.486c-0.002-1.374,1.11-2.488,2.486-2.49l14.434-0.021
	c-0.302-0.651-0.594-1.335-0.856-2.031l-20.933,0.03c-1.375,0.003-2.492-1.109-2.494-2.484c-0.002-1.377,1.111-2.488,2.486-2.491
	l19.818-0.028c-0.051-0.64-0.088-1.317-0.109-2.029l-22.631,0.032c-1.375,0.002-2.49-1.111-2.493-2.486
	c-0.002-1.375,1.111-2.491,2.485-2.494l22.659-0.033c0.02-0.701,0.046-1.382,0.074-2.031l-19.302,0.028
	c-1.375,0.002-2.492-1.109-2.493-2.486c-0.002-1.375,1.111-2.489,2.486-2.493l19.613-0.028l11.127-0.017
	c0.72-0.001,0.573-1.417-0.134-1.417c-0.56,0.001-0.964,0.001-0.964,0.001"/>
<g>
	<path d="M31.214,89.39c-4.178,0-7.247-0.738-9.122-2.194c-6.188-4.798-6.675-15.22-5.559-19.478
		c0.634-2.42,6.355-10.959,11.269-11.804l16.142-2.775c0.381-0.065,0.747-0.099,1.089-0.099c2.142,0,3.01,1.233,3.108,2.389
		c0.149,1.759-1.345,3.912-4.411,4.439l-10.087,1.735c-0.145,0.025-0.213,0.251-0.195,0.456c0.013,0.151,0.078,0.309,0.165,0.309
		l31.616-5.436c0.162-0.028,0.322-0.041,0.48-0.041c1.378,0,2.548,0.985,2.782,2.344c0.263,1.534-0.771,2.997-2.306,3.261
		l-18.68,3.213c0.096,0.433,0.19,0.88,0.284,1.337l22.013-3.786c0.162-0.028,0.322-0.041,0.48-0.041
		c1.378,0,2.546,0.985,2.779,2.343c0.128,0.743-0.041,1.492-0.476,2.108c-0.436,0.615-1.084,1.025-1.827,1.152l-21.984,3.781
		c0.062,0.468,0.116,0.92,0.16,1.356l19.179-3.299c0.162-0.028,0.323-0.042,0.482-0.042c1.376,0,2.544,0.986,2.777,2.344
		c0.128,0.743-0.041,1.491-0.477,2.107c-0.435,0.615-1.084,1.024-1.826,1.151L48.667,79.73c-0.093,0.464-0.201,0.94-0.327,1.441
		l13.716-2.358c0.162-0.028,0.323-0.041,0.481-0.041c1.376,0,2.544,0.985,2.777,2.343c0.265,1.533-0.769,2.996-2.302,3.26
		l-16.903,2.906c-0.024,0.008-5.518,1.478-11.375,1.956l-0.216,0.038c-0.146,0.025-0.29,0.036-0.433,0.036
		c-0.09,0-0.179-0.005-0.269-0.012C32.943,89.359,32.052,89.39,31.214,89.39z"/>
	<path fill="#FFFFFF" d="M45.031,53.373c4.221,0,3.549,5.323-1.358,6.167c-5.276,0.908-9.39,1.615-10.087,1.735
		c-0.667,0.114-0.606,1.426,0.026,1.426c0.027,0,0.056-0.003,0.085-0.008l12.26-2.108l19.328-3.324
		c0.143-0.024,0.284-0.036,0.424-0.036c1.191,0,2.245,0.855,2.454,2.067c0.232,1.355-0.679,2.643-2.034,2.876l-19.023,3.271
		c0.142,0.635,0.283,1.302,0.423,1.989l22.331-3.841c0.143-0.024,0.284-0.036,0.424-0.036c1.19,0,2.243,0.855,2.451,2.066
		c0.233,1.355-0.676,2.644-2.031,2.876L48.4,72.33c0.102,0.707,0.18,1.382,0.238,2.019l19.532-3.359
		c0.144-0.024,0.286-0.036,0.426-0.036c1.189,0,2.24,0.854,2.449,2.066c0.233,1.355-0.677,2.642-2.031,2.874l-20.63,3.548
		c-0.141,0.732-0.312,1.454-0.497,2.146l14.225-2.446c0.143-0.024,0.285-0.036,0.425-0.036c1.189,0,2.24,0.854,2.449,2.066
		c0.233,1.354-0.676,2.642-2.03,2.875l-16.903,2.906c0,0-5.45,1.471-11.346,1.952l-0.245,0.042
		c-0.127,0.021-0.252,0.031-0.376,0.031c-0.08,0-0.161-0.004-0.241-0.011c-0.878,0.057-1.761,0.089-2.631,0.089
		c-3.529,0-6.864-0.53-8.918-2.124c-6.152-4.771-6.487-15.139-5.44-19.13c0.648-2.476,6.357-10.762,11.003-11.561
		c4.644-0.799,10.813-1.859,16.142-2.775C44.371,53.403,44.716,53.373,45.031,53.373 M45.032,52.707L45.032,52.707
		c-0.361,0-0.746,0.034-1.146,0.104l-3.611,0.621l-12.53,2.154c-5.034,0.865-10.888,9.578-11.534,12.048
		c-1.136,4.329-0.632,14.933,5.677,19.825c1.936,1.502,5.073,2.264,9.326,2.264c0.831,0,1.714-0.029,2.627-0.087
		c0.082,0.006,0.163,0.009,0.245,0.009c0.171,0,0.33-0.014,0.489-0.041l0.216-0.037c5.646-0.464,10.948-1.842,11.404-1.962
		l16.874-2.901c0.83-0.143,1.556-0.601,2.041-1.289c0.486-0.688,0.676-1.524,0.532-2.355c-0.261-1.518-1.567-2.619-3.105-2.619
		c-0.179,0-0.359,0.015-0.537,0.046l-13.217,2.272c0.06-0.251,0.114-0.496,0.165-0.737l20.18-3.471
		c0.83-0.143,1.556-0.6,2.042-1.287c0.486-0.688,0.676-1.525,0.532-2.356c-0.261-1.518-1.567-2.62-3.105-2.62
		c-0.18,0-0.36,0.016-0.539,0.047l-18.828,3.238c-0.025-0.23-0.053-0.462-0.083-0.693l21.67-3.728c0.83-0.143,1.556-0.6,2.042-1.289
		c0.486-0.688,0.676-1.525,0.532-2.356c-0.261-1.518-1.567-2.619-3.107-2.619c-0.179,0-0.359,0.015-0.536,0.046l-21.696,3.731
		c-0.048-0.231-0.097-0.46-0.146-0.686l18.337-3.153c1.715-0.295,2.871-1.931,2.577-3.645c-0.262-1.52-1.569-2.621-3.11-2.621
		c-0.179,0-0.359,0.015-0.536,0.046l-19.329,3.324l-12.066,2.075c0-0.03,0.002-0.062,0.008-0.087l1.683-0.289l8.318-1.432
		c3.262-0.561,4.849-2.89,4.686-4.796C48.332,53.764,46.982,52.707,45.032,52.707L45.032,52.707z"/>
</g>
<ellipse stroke="#E6E6E6" stroke-width="2" stroke-miterlimit="10" cx="210.342" cy="-704.492" rx="26.75" ry="15.25"/>
<g>
	<polygon points="8.303,-721.638 51.516,-734.396 81.971,-719.169 39.58,-702.707 	"/>
	<g>
		<polygon points="5.847,-727.716 51.61,-741.228 84.437,-724.814 39.483,-707.357 		"/>
		<g>
			<path fill="#E6E6E6" d="M51.516-740.158l30.455,15.229L39.58-708.466L8.303-727.398L51.516-740.158 M51.705-742.298l-0.756,0.223
				l-43.213,12.76l-4.345,1.283l3.875,2.346l31.277,18.932l0.843,0.51l0.917-0.357l42.391-16.463l4.209-1.633l-4.038-2.02
				L52.41-741.947L51.705-742.298L51.705-742.298z"/>
		</g>
	</g>
	<polygon points="39.58,-708.466 39.58,-702.707 81.971,-719.169 81.971,-724.929 	"/>
</g>
<g>
	<polygon points="8.303,-731.628 51.516,-744.386 81.971,-729.16 39.58,-712.697 	"/>
	<g>
		<polygon points="5.847,-737.707 51.61,-751.218 84.437,-734.804 39.483,-717.347 		"/>
		<g>
			<path fill="#E6E6E6" d="M51.516-750.148l30.455,15.229L39.58-718.457L8.303-737.388L51.516-750.148 M51.705-752.289l-0.756,0.223
				l-43.213,12.76l-4.345,1.283l3.875,2.346l31.277,18.932l0.843,0.51l0.917-0.357l42.391-16.463l4.209-1.633l-4.038-2.02
				L52.41-751.937L51.705-752.289L51.705-752.289z"/>
		</g>
	</g>
	<polygon points="39.58,-718.457 39.58,-712.697 81.971,-729.16 81.971,-734.919 	"/>
</g>
<g>
	<polygon points="8.303,-742.529 51.516,-755.287 81.971,-740.06 39.58,-723.597 	"/>
	<g>
		<polygon points="5.847,-748.607 51.61,-762.119 84.437,-745.705 39.483,-728.248 		"/>
		<g>
			<path fill="#E6E6E6" d="M51.516-761.048l30.455,15.229L39.58-729.357L8.303-748.289L51.516-761.048 M51.705-763.189l-0.756,0.223
				l-43.213,12.76l-4.345,1.283l3.875,2.346l31.277,18.932l0.843,0.51l0.917-0.357l42.391-16.463l4.209-1.633l-4.038-2.02
				L52.41-762.837L51.705-763.189L51.705-763.189z"/>
		</g>
	</g>
	<polygon points="39.58,-729.357 39.58,-723.597 81.971,-740.06 81.971,-745.82 	"/>
</g>
<polygon points="407.237,-728.197 450.45,-740.955 480.905,-725.728 438.514,-709.265 "/>
<g>
	<polygon points="404.781,-734.275 450.544,-747.787 483.371,-731.374 438.417,-713.916 	"/>
	<g>
		<path fill="#E6E6E6" d="M450.45-746.716l30.455,15.228l-42.391,16.463l-31.277-18.932L450.45-746.716 M450.639-748.858
			l-0.756,0.224l-43.213,12.759l-4.346,1.283l3.877,2.346l31.277,18.932l0.842,0.51l0.917-0.356l42.391-16.463l4.209-1.634
			l-4.038-2.02l-30.455-15.228L450.639-748.858L450.639-748.858z"/>
	</g>
</g>
<polygon points="438.514,-715.026 438.514,-709.265 480.905,-725.728 480.905,-731.489 "/>
<polygon points="407.237,-740.447 450.45,-753.205 480.905,-737.978 438.514,-721.515 "/>
<g>
	<polygon points="404.781,-746.525 450.544,-760.037 483.371,-743.624 438.417,-726.166 	"/>
	<g>
		<path fill="#E6E6E6" d="M450.45-758.966l30.455,15.228l-42.391,16.463l-31.277-18.932L450.45-758.966 M450.639-761.108
			l-0.756,0.224l-43.213,12.759l-4.346,1.283l3.877,2.346l31.277,18.932l0.842,0.51l0.917-0.356l42.391-16.463l4.209-1.634
			l-4.038-2.02l-30.455-15.228L450.639-761.108L450.639-761.108z"/>
	</g>
</g>
<polygon points="438.514,-727.276 438.514,-721.515 480.905,-737.978 480.905,-743.739 "/>
<polygon points="406.737,-753.697 449.95,-766.455 480.405,-751.228 438.014,-734.765 "/>
<g>
	<polygon points="404.281,-759.775 450.044,-773.287 482.871,-756.874 437.917,-739.416 	"/>
	<g>
		<path fill="#E6E6E6" d="M449.95-772.216l30.455,15.228l-42.391,16.463l-31.277-18.932L449.95-772.216 M450.139-774.358
			l-0.756,0.224l-43.213,12.759l-4.346,1.283l3.877,2.346l31.277,18.932l0.842,0.51l0.917-0.356l42.391-16.463l4.209-1.634
			l-4.038-2.02l-30.455-15.228L450.139-774.358L450.139-774.358z"/>
	</g>
</g>
<polygon points="438.014,-740.526 438.014,-734.765 480.405,-751.228 480.405,-756.989 "/>
<g>
	<path d="M444.32-785.146c-3.536-0.141-7.525-2.002-8.588-6.875l-0.154-0.707l3.074-0.672l0.154,0.707
		c0.521,2.389,2.29,3.958,4.812,4.326l-2.951-13.515c-2.902-0.827-6.609-2.442-7.526-6.631c-0.717-3.294,0.952-6.48,4.273-8.255
		l-0.694-3.18l3.073-0.673l0.608,2.793c0.006-0.001,0.013-0.002,0.019-0.003l-0.611-2.793l3.075-0.672l0.731,3.354
		c1.173,0.127,2.24,0.439,3.181,0.93c2.268,1.192,3.786,3.288,4.393,6.061l0.155,0.708l-3.074,0.668l-0.154-0.705
		c-0.402-1.836-1.363-3.199-2.779-3.942c-0.311-0.162-0.644-0.295-0.996-0.398l2.374,10.868c3.633,0.84,7.074,2.463,8.253,7.857
		c0.82,3.758-0.902,7.266-4.509,9.274l0.715,3.282l-3.072,0.671l-0.61-2.791c-0.006,0.001-0.012,0.003-0.017,0.004l0.61,2.792
		l-3.073,0.671L444.32-785.146z M446.8-788.531c0.006-0.001,0.013-0.003,0.019-0.005l-2.743-12.556
		c-0.007-0.001-0.013-0.002-0.02-0.004L446.8-788.531z M449.745-789.881c1.221-0.9,2.742-2.614,2.147-5.342
		c-0.674-3.081-2.097-4.301-4.419-5.056L449.745-789.881z M443.342-804.454l-2.251-10.302c-0.006,0.001-0.013,0.002-0.02,0.003
		l2.249,10.293C443.328-804.457,443.334-804.455,443.342-804.454z M438.123-813.525c-1.564,1.106-2.271,2.678-1.907,4.341
		c0.368,1.685,1.517,2.865,3.671,3.735L438.123-813.525z"/>
	<path fill="#FFFFFF" d="M442.331-820.434l0.691,3.169c1.229,0.071,2.406,0.355,3.438,0.895c2.071,1.089,3.462,3.017,4.021,5.574
		l-1.661,0.361c-0.449-2.051-1.538-3.582-3.149-4.428c-0.689-0.359-1.462-0.587-2.274-0.686l2.709,12.401
		c4.117,0.881,7.079,2.489,8.154,7.406c0.88,4.035-1.423,7.15-4.627,8.736l0.679,3.113l-1.66,0.362l-0.62-2.835
		c-0.319,0.1-0.641,0.19-0.967,0.262c-0.15,0.032-0.304,0.056-0.456,0.081l0.613,2.806l-1.66,0.362l-0.658-3.008
		c-0.049,0-0.098,0.001-0.146,0.001c-3.729,0-7.369-1.958-8.319-6.315l1.661-0.363c0.729,3.343,3.512,4.894,6.434,4.975
		l-3.253-14.897c-3.303-0.885-6.61-2.444-7.434-6.205c-0.77-3.536,1.462-6.337,4.394-7.705l-0.66-3.023l1.66-0.363l0.611,2.804
		c0.154-0.042,0.309-0.086,0.465-0.12c0.328-0.071,0.653-0.095,0.979-0.133l-0.626-2.863L442.331-820.434 M444.287-803.518
		l-2.628-12.03c-0.326,0.032-0.651,0.062-0.979,0.135c-0.157,0.034-0.307,0.092-0.463,0.135l2.496,11.426
		C443.238-803.733,443.763-803.624,444.287-803.518 M440.869-804.338l-2.255-10.326c-2.142,1.104-3.658,3.104-3.104,5.635
		C436.083-806.399,438.287-805.13,440.869-804.338 M446.246-787.682c0.152-0.025,0.306-0.049,0.456-0.082
		c0.326-0.071,0.646-0.164,0.967-0.27l-2.987-13.675c-0.064-0.012-0.129-0.024-0.195-0.038c-0.441-0.088-0.904-0.182-1.374-0.282
		L446.246-787.682 M449.259-788.715c2.337-1.279,4.014-3.57,3.34-6.662c-0.83-3.793-2.809-5.112-6.09-5.925L449.259-788.715
		 M443.435-822.156l-1.413,0.31l-1.661,0.363l-0.017,0.003l0,0l-1.414,0.31l-1.66,0.363l-1.412,0.309l0.309,1.413l0.427,1.953
		c-3.295,1.975-4.913,5.315-4.16,8.774c0.955,4.362,4.604,6.135,7.618,7.051l2.611,11.959c-1.263-0.427-2.688-1.38-3.15-3.498
		l-0.309-1.414l-1.413,0.31l-1.661,0.363l-1.412,0.309l0.308,1.412c0.918,4.208,4.282,7.032,8.706,7.41l0.418,1.913l0.31,1.412
		l1.412-0.308l1.66-0.362l1.413-0.309v-0.001l0.017-0.003l1.66-0.362l1.412-0.308l-0.308-1.413l-0.449-2.062
		c3.578-2.205,5.252-5.867,4.397-9.787c-1.216-5.559-4.792-7.401-8.35-8.3l-1.972-9.026c1.028,0.674,1.736,1.789,2.056,3.25
		l0.31,1.411l1.411-0.307l1.661-0.361l1.415-0.308l-0.31-1.415c-0.654-2.988-2.301-5.251-4.762-6.545
		c-0.881-0.46-1.859-0.775-2.921-0.941l-0.469-2.15L443.435-822.156L443.435-822.156z M438.858-806.768
		c-1.086-0.676-1.704-1.51-1.936-2.57c-0.266-1.214,0.164-2.148,0.757-2.826L438.858-806.768L438.858-806.768z M450.189-791.235
		l-1.716-7.855c1.374,0.717,2.237,1.847,2.713,4.022C451.559-793.356,450.98-792.107,450.189-791.235L450.189-791.235z"/>
</g>
<g>
	<path d="M320.669-791.145c-3.536-0.141-7.525-2.002-8.588-6.875l-0.154-0.707l3.074-0.672l0.154,0.707
		c0.521,2.389,2.29,3.958,4.812,4.326l-2.951-13.515c-2.902-0.827-6.609-2.442-7.526-6.631c-0.717-3.294,0.952-6.48,4.273-8.255
		l-0.694-3.18l3.073-0.673l0.608,2.793c0.006-0.001,0.013-0.002,0.019-0.003l-0.611-2.793l3.075-0.672l0.731,3.354
		c1.173,0.127,2.24,0.439,3.181,0.93c2.268,1.192,3.786,3.288,4.393,6.061l0.155,0.708l-3.074,0.668l-0.154-0.705
		c-0.402-1.836-1.363-3.199-2.779-3.942c-0.311-0.162-0.644-0.295-0.996-0.398l2.374,10.868c3.633,0.84,7.074,2.463,8.253,7.857
		c0.82,3.758-0.902,7.266-4.509,9.274l0.715,3.282l-3.072,0.671l-0.61-2.791c-0.006,0.001-0.012,0.003-0.017,0.004l0.61,2.792
		l-3.073,0.671L320.669-791.145z M323.15-794.53c0.006-0.001,0.013-0.003,0.019-0.005l-2.743-12.556
		c-0.007-0.001-0.013-0.002-0.02-0.004L323.15-794.53z M326.094-795.88c1.221-0.9,2.742-2.614,2.147-5.342
		c-0.674-3.081-2.097-4.301-4.419-5.056L326.094-795.88z M319.692-810.453l-2.251-10.302c-0.006,0.001-0.013,0.002-0.02,0.003
		l2.249,10.293C319.677-810.456,319.684-810.454,319.692-810.453z M314.472-819.524c-1.564,1.106-2.271,2.678-1.907,4.341
		c0.368,1.685,1.517,2.865,3.671,3.735L314.472-819.524z"/>
	<path fill="#FFFFFF" d="M318.68-826.433l0.691,3.169c1.229,0.071,2.406,0.355,3.438,0.895c2.071,1.089,3.462,3.017,4.021,5.574
		l-1.661,0.361c-0.449-2.051-1.538-3.582-3.149-4.428c-0.689-0.359-1.462-0.587-2.274-0.686l2.709,12.401
		c4.117,0.881,7.079,2.489,8.154,7.406c0.88,4.035-1.423,7.15-4.627,8.736l0.679,3.113l-1.66,0.362l-0.62-2.835
		c-0.319,0.1-0.641,0.19-0.967,0.262c-0.15,0.032-0.304,0.056-0.456,0.081l0.613,2.806l-1.66,0.362l-0.658-3.008
		c-0.049,0-0.098,0.001-0.146,0.001c-3.729,0-7.369-1.958-8.319-6.315l1.661-0.363c0.729,3.343,3.512,4.894,6.434,4.975
		l-3.253-14.897c-3.303-0.885-6.61-2.444-7.434-6.205c-0.77-3.536,1.462-6.337,4.394-7.705l-0.66-3.023l1.66-0.363l0.611,2.804
		c0.154-0.042,0.309-0.086,0.465-0.12c0.328-0.071,0.653-0.095,0.979-0.133l-0.626-2.863L318.68-826.433 M320.636-809.517
		l-2.628-12.03c-0.326,0.032-0.651,0.062-0.979,0.135c-0.157,0.034-0.307,0.092-0.463,0.135l2.496,11.426
		C319.587-809.732,320.113-809.623,320.636-809.517 M317.218-810.337l-2.255-10.326c-2.142,1.104-3.658,3.104-3.104,5.635
		C312.433-812.398,314.636-811.129,317.218-810.337 M322.595-793.681c0.152-0.025,0.306-0.049,0.456-0.082
		c0.326-0.071,0.646-0.164,0.967-0.27l-2.987-13.675c-0.064-0.012-0.129-0.024-0.195-0.038c-0.441-0.088-0.904-0.182-1.374-0.282
		L322.595-793.681 M325.609-794.714c2.337-1.279,4.014-3.57,3.34-6.662c-0.83-3.793-2.809-5.112-6.09-5.925L325.609-794.714
		 M319.785-828.155l-1.413,0.31l-1.661,0.363l-0.017,0.003l0,0l-1.414,0.31l-1.66,0.363l-1.412,0.309l0.309,1.413l0.427,1.953
		c-3.295,1.975-4.913,5.315-4.16,8.774c0.955,4.362,4.604,6.135,7.618,7.051l2.611,11.959c-1.263-0.427-2.688-1.38-3.15-3.498
		l-0.309-1.414l-1.413,0.31l-1.661,0.363l-1.412,0.309l0.308,1.412c0.918,4.208,4.282,7.032,8.706,7.41l0.418,1.913l0.31,1.412
		l1.412-0.308l1.66-0.362l1.413-0.309v-0.001l0.017-0.003l1.66-0.362l1.412-0.308l-0.308-1.413l-0.449-2.062
		c3.578-2.205,5.252-5.867,4.397-9.787c-1.216-5.559-4.792-7.401-8.35-8.3l-1.972-9.026c1.028,0.674,1.736,1.789,2.056,3.25
		l0.31,1.411l1.411-0.307l1.661-0.361l1.415-0.308l-0.31-1.415c-0.654-2.988-2.301-5.251-4.762-6.545
		c-0.881-0.46-1.859-0.775-2.921-0.941l-0.469-2.15L319.785-828.155L319.785-828.155z M315.208-812.767
		c-1.086-0.676-1.704-1.51-1.936-2.57c-0.266-1.214,0.164-2.148,0.757-2.826L315.208-812.767L315.208-812.767z M326.539-797.234
		l-1.716-7.855c1.374,0.717,2.237,1.847,2.713,4.022C327.909-799.355,327.33-798.106,326.539-797.234L326.539-797.234z"/>
</g>
<g>
	<polygon points="40.27,-802.262 94.108,-806.876 87.184,-823.065 39.622,-820.171 	"/>
	<polygon points="40.27,-797.061 94.108,-801.676 87.184,-817.864 39.622,-814.971 	"/>
	<polygon fill="#E6E6E6" points="93.668,-806.876 93.668,-802.181 40.854,-798.006 40.488,-802.442 	"/>
</g>
<g>
	<polygon points="297.604,-764.975 297.604,-770.533 301.198,-769.417 300.797,-763.672 	"/>
	<g>
		<polygon points="301.507,-752.145 355.84,-756.323 348.439,-773.625 297.604,-770.533 		"/>
		<polygon points="301.507,-746.585 355.84,-750.765 348.439,-768.066 297.604,-764.975 		"/>
		<polygon fill="#E6E6E6" points="355.37,-756.323 355.37,-751.304 302.132,-747.596 301.742,-752.336 		"/>
	</g>
	<polygon fill="#E6E6E6" points="297.822,-769.567 297.857,-765.187 302.065,-747.596 301.742,-752.336 	"/>
</g>
<g>
	<polygon points="357.801,-770.556 352.009,-768.403 352.009,-768.403 357.801,-770.556 334.343,-783.316 299.401,-772.064 
		306.249,-768.453 299.994,-766.437 325.818,-752.816 358.393,-764.93 	"/>
	<polygon fill="#E6E6E6" points="299.994,-771.693 299.994,-766.807 325.813,-753.261 325.755,-758.146 	"/>
</g>
</svg>
