<?xml version="1.0" encoding="utf-8"?>
<!-- Generator: Adobe Illustrator 15.1.0, SVG Export Plug-In . SVG Version: 6.00 Build 0)  -->
<!DOCTYPE svg PUBLIC "-//W3C//DTD SVG 1.1//EN" "http://www.w3.org/Graphics/SVG/1.1/DTD/svg11.dtd">
<svg version="1.1" id="Layer_1" xmlns="http://www.w3.org/2000/svg" xmlns:xlink="http://www.w3.org/1999/xlink" x="0px" y="0px"
	 width="173px" height="100px" viewBox="0 0 173 100" enable-background="new 0 0 173 100" xml:space="preserve">
<g>
	<polygon points="61.894,-751.163 110.152,-765.411 144.162,-748.407 96.822,-730.022 	"/>
	<g>
		<polygon points="59.151,-757.951 110.258,-773.041 146.916,-754.709 96.714,-735.213 		"/>
		<g>
			<path fill="#E6E6E6" d="M110.152-771.845l34.01,17.007l-47.34,18.385l-34.929-21.143L110.152-771.845 M110.363-774.237
				l-0.844,0.25l-48.26,14.249l-4.853,1.434l4.329,2.62l34.929,21.143l0.94,0.568l1.023-0.397l47.34-18.385l4.699-1.825
				l-4.509-2.255l-34.011-17.007L110.363-774.237L110.363-774.237z"/>
		</g>
	</g>
	<polygon points="96.822,-736.454 96.822,-730.022 144.162,-748.407 144.162,-754.838 	"/>
</g>
<g>
	<g>
		<path d="M-399.042-607.705c0,1.094-0.887,1.98-1.98,1.98l0,0c-1.094,0-1.98-0.887-1.98-1.98v-25.676c0-1.094,0.887-1.98,1.98-1.98
			l0,0c1.094,0,1.98,0.887,1.98,1.98V-607.705z"/>
	</g>
	<g>
		<path d="M-393.468-605.382c0,1.094-0.887,1.979-1.98,1.979l0,0c-1.094,0-1.979-0.887-1.979-1.979v-25.676
			c0-1.094,0.885-1.98,1.979-1.98l0,0c1.094,0,1.98,0.887,1.98,1.98V-605.382z"/>
	</g>
	<g>
		<path d="M-387.893-602.207c0,1.094-0.887,1.98-1.98,1.98l0,0c-1.095,0-1.979-0.887-1.979-1.98v-23.002
			c0-1.094,0.885-1.98,1.979-1.98l0,0c1.094,0,1.98,0.887,1.98,1.98V-602.207z"/>
	</g>
	<g>
		<path d="M-404.619-604.973c0,1.094-0.887,1.98-1.98,1.98l0,0c-1.094,0-1.98-0.887-1.98-1.98v-25.675c0-1.094,0.887-1.98,1.98-1.98
			l0,0c1.094,0,1.98,0.887,1.98,1.98V-604.973z"/>
	</g>
	<path d="M-409.707-613.394c0,4.259,0,7.58,0,8.143s1.127,0.678,1.127,0.104s0-9.896,0-9.896s9.433-0.794,13.012-0.001
		c3.58,0.793,7.676,3.48,7.676,3.48s1.35,14.444-3.221,18.625c-4.57,4.18-12.744,3.045-15.732,1.686
		c-1.854-0.843-7.58-6.437-7.58-10.186s0-8.729,0-13.031C-414.425-618.772-409.707-617.652-409.707-613.394z"/>
</g>
<g>
	<g>
		<defs>
			<rect id="SVGID_1_" x="-357.128" y="-770.058" width="64.497" height="64.426"/>
		</defs>
		<clipPath id="SVGID_2_">
			<use xlink:href="#SVGID_1_"  overflow="visible"/>
		</clipPath>
		<g clip-path="url(#SVGID_2_)">
		</g>
	</g>
</g>
<g>
	<g>
		<g>
			<path d="M-363.205-597.921c-2.844,0-5.943-1.618-6.457-5.234l-0.07-0.495l2.154-0.307l0.07,0.495
				c0.353,2.483,2.543,3.364,4.311,3.364c0.271,0,0.543-0.02,0.812-0.058c1.184-0.168,2.284-0.67,3.018-1.378
				c0.839-0.811,1.179-1.821,1.011-3.005c-0.373-2.625-1.674-3.463-4.103-4.167c-0.26-0.076-0.529-0.151-0.804-0.229
				c-2.707-0.751-6.798-1.888-7.344-5.727c-0.223-1.569,0.267-3.006,1.415-4.154c0.982-0.981,2.403-1.666,3.899-1.878
				c0.355-0.05,0.714-0.076,1.067-0.076c1.273,0,2.474,0.328,3.47,0.947c1.501,0.938,2.441,2.458,2.718,4.402l0.07,0.495
				l-2.154,0.306l-0.07-0.495c-0.182-1.286-0.775-2.274-1.714-2.861c-0.65-0.404-1.451-0.618-2.316-0.618
				c-0.251,0-0.506,0.018-0.764,0.055c-1.022,0.145-1.974,0.577-2.611,1.187c-0.479,0.457-1.017,1.243-0.854,2.386
				c0.345,2.432,3.104,3.197,5.771,3.938c0,0,0.61,0.168,0.83,0.233c2.601,0.753,5.087,1.996,5.648,5.949
				c0.549,3.866-2.541,6.37-5.878,6.845C-362.45-597.948-362.829-597.921-363.205-597.921z"/>
			<path fill="#FFFFFF" d="M-364.224-620.269c1.172,0,2.284,0.299,3.206,0.872c1.373,0.855,2.232,2.256,2.487,4.048l-1.164,0.165
				c-0.204-1.438-0.877-2.549-1.945-3.215c-0.733-0.456-1.628-0.694-2.581-0.694c-0.274,0-0.553,0.02-0.834,0.06
				c-2.182,0.31-4.218,1.83-3.89,4.138c0.391,2.754,3.441,3.603,6.132,4.35c0.282,0.078,0.558,0.153,0.822,0.231
				c2.822,0.817,4.803,2.073,5.295,5.54c0.503,3.542-2.363,5.84-5.453,6.279c-0.35,0.05-0.704,0.074-1.056,0.074
				c-2.768,0-5.497-1.536-5.961-4.805l1.164-0.166c0.367,2.582,2.565,3.794,4.806,3.794c0.295,0,0.59-0.021,0.882-0.062
				c2.435-0.345,4.867-2.042,4.454-4.948c-0.409-2.88-1.883-3.83-4.458-4.577c-0.261-0.076-0.532-0.152-0.809-0.229
				c-2.736-0.76-6.483-1.801-6.982-5.315c-0.431-3.039,2.197-5.085,4.889-5.467C-364.885-620.246-364.552-620.269-364.224-620.269
				 M-364.224-621.269c-0.376,0-0.758,0.027-1.137,0.081c-1.601,0.228-3.125,0.963-4.183,2.02c-1.246,1.245-1.799,2.871-1.557,4.578
				c0.592,4.163,4.873,5.352,7.705,6.139c0.273,0.075,0.54,0.15,0.797,0.226c2.319,0.673,3.41,1.375,3.748,3.758
				c0.145,1.016-0.146,1.882-0.864,2.574c-0.66,0.637-1.659,1.09-2.74,1.243c-0.246,0.035-0.495,0.053-0.742,0.053
				c-1.643,0-3.509-0.771-3.816-2.935l-0.141-0.99l-0.99,0.141l-1.164,0.166l-0.99,0.142l0.141,0.989
				c0.556,3.913,3.892,5.664,6.952,5.664c0.398,0,0.801-0.028,1.197-0.084c3.583-0.51,6.898-3.219,6.303-7.41
				c-0.602-4.234-3.243-5.56-6.007-6.36c-0.218-0.063-0.448-0.128-0.683-0.192l-0.15-0.042c-2.992-0.83-5.132-1.569-5.409-3.526
				c-0.106-0.749,0.13-1.406,0.704-1.954c0.564-0.538,1.416-0.922,2.336-1.053c0.232-0.033,0.465-0.05,0.693-0.05
				c0.771,0,1.481,0.188,2.052,0.543c0.809,0.505,1.322,1.372,1.483,2.507l0.14,0.99l0.99-0.141l1.164-0.165l0.991-0.141
				l-0.141-0.99c-0.298-2.095-1.317-3.739-2.948-4.756C-361.565-620.916-362.856-621.269-364.224-621.269L-364.224-621.269z"/>
		</g>
	</g>
	<g>
		<g>
			
				<rect x="-364.77" y="-622.726" transform="matrix(0.9901 -0.1405 0.1405 0.9901 82.0039 -57.1456)" width="2.175" height="26.864"/>
			<path fill="#FFFFFF" d="M-364.921-622.196l3.637,25.605l-1.164,0.165l-3.637-25.605L-364.921-622.196 M-364.072-623.327
				l-0.99,0.141l-1.164,0.165l-0.99,0.141l0.141,0.99l3.637,25.605l0.141,0.99l0.99-0.141l1.164-0.165l0.99-0.141l-0.141-0.99
				l-3.637-25.605L-364.072-623.327L-364.072-623.327z"/>
		</g>
	</g>
</g>
<g>
	<path d="M-340.739-595.915v-1.976c-0.004,0-0.009,0-0.013,0v1.975h-2.175v-2.231c-2.923-0.755-4.787-3.038-4.786-5.913v-0.5h2.176
		v0.5c0,1.69,0.963,3.012,2.611,3.633l0.002-9.565c-1.838-0.987-4.103-2.625-4.103-5.591c0.001-2.331,1.599-4.236,4.105-4.944
		v-2.251h2.175v1.977c0.004,0,0.009,0,0.013,0.001v-1.979h2.175v2.374c0.776,0.26,1.452,0.629,2.012,1.099
		c1.355,1.138,2.071,2.777,2.071,4.741v0.5h-2.176v-0.5c0.001-1.298-0.447-2.361-1.294-3.073c-0.185-0.155-0.39-0.294-0.613-0.416
		l-0.002,7.691c2.33,1.104,4.414,2.708,4.413,6.526c0,2.661-1.682,4.775-4.416,5.599v2.322H-340.739z M-340.751-600.067
		c0.004,0,0.009,0,0.013,0l0.002-8.886c-0.004-0.002-0.008-0.004-0.012-0.005L-340.751-600.067z M-338.563-600.544
		c0.958-0.427,2.239-1.36,2.24-3.291c0.001-2.181-0.78-3.215-2.238-4.068L-338.563-600.544z M-340.736-611.333l0.002-7.29
		c-0.004,0-0.009,0-0.013-0.001l-0.002,7.285C-340.744-611.337-340.74-611.335-340.736-611.333z M-342.921-618.231
		c-1.219,0.516-1.928,1.473-1.928,2.65c0,1.193,0.6,2.16,1.927,3.064L-342.921-618.231z"/>
	<path fill="#FFFFFF" d="M-340.233-622.277h1.175v2.243c0.819,0.23,1.572,0.594,2.19,1.113c1.239,1.041,1.892,2.548,1.892,4.358
		h-1.176c0.001-1.452-0.509-2.647-1.473-3.457c-0.412-0.345-0.899-0.612-1.435-0.799l-0.002,8.777
		c2.651,1.203,4.414,2.727,4.413,6.207c0,2.855-2.016,4.62-4.416,5.218v2.203h-1.175v-2.007c-0.23,0.021-0.461,0.034-0.692,0.034
		c-0.107,0-0.213-0.008-0.32-0.013v1.985h-1.175v-2.129c-2.561-0.523-4.787-2.393-4.786-5.516h1.176
		c-0.001,2.365,1.649,3.823,3.611,4.311l0.002-10.544c-2.099-1.084-4.103-2.626-4.103-5.289c0.001-2.502,1.922-4.064,4.105-4.555
		v-2.14h1.175v1.984c0.11-0.005,0.221-0.012,0.331-0.012c0.232,0,0.456,0.033,0.682,0.055L-340.233-622.277 M-340.236-610.562
		l0.002-8.514c-0.225-0.026-0.449-0.053-0.682-0.053c-0.111,0-0.22,0.017-0.331,0.023l-0.002,8.086
		C-340.912-610.862-340.573-610.71-340.236-610.562 M-342.423-611.621l0.001-7.307c-1.609,0.429-2.928,1.556-2.928,3.347
		C-345.351-613.719-344.05-612.537-342.423-611.621 M-340.931-599.564c0.23,0,0.461-0.016,0.692-0.039l0.002-9.677
		c-0.042-0.019-0.083-0.037-0.125-0.056c-0.286-0.125-0.584-0.256-0.887-0.393l-0.002,10.153
		C-341.145-599.571-341.038-599.564-340.931-599.564 M-339.063-599.829c1.768-0.519,3.239-1.818,3.24-4.007
		c0.001-2.685-1.141-3.868-3.238-4.901L-339.063-599.829 M-341.232-623.278L-341.232-623.278l-0.013,0.001h-1.175h-1v1v1.382
		c-2.518,0.848-4.104,2.865-4.105,5.312c0,3.088,2.203,4.824,4.103,5.887l-0.002,8.464c-0.79-0.475-1.612-1.329-1.611-2.827v-1h-1
		h-1.176h-1v1c-0.001,2.989,1.851,5.385,4.786,6.292v1.353v1h1h1.175h1h0.013h1.175h1v-1v-1.459c2.744-0.96,4.416-3.187,4.416-5.962
		c0.001-3.934-2.143-5.707-4.413-6.838l0.001-6.388c0.596,0.608,0.908,1.466,0.908,2.497v1h1h1.176h1v-1
		c0-2.116-0.778-3.888-2.249-5.124c-0.524-0.44-1.139-0.797-1.833-1.067v-1.522v-1h-1h-1.175L-341.232-623.278L-341.232-623.278z
		 M-343.422-613.559c-0.634-0.617-0.928-1.271-0.927-2.022c0-0.859,0.428-1.426,0.928-1.796L-343.422-613.559L-343.422-613.559z
		 M-338.063-601.393l0.001-5.56c0.823,0.688,1.239,1.578,1.238,3.117C-336.824-602.624-337.4-601.865-338.063-601.393
		L-338.063-601.393z"/>
</g>
<ellipse stroke="#E6E6E6" stroke-width="2" stroke-miterlimit="10" cx="-10.491" cy="-704.816" rx="26.75" ry="15.25"/>
<g>
	<path d="M140.779,67.846H37.833V4.871h102.946V67.846z M39.833,65.846h98.946V6.871H39.833V65.846z"/>
</g>
<rect x="38.833" y="5.871" width="100.946" height="4.347"/>
<rect x="46.285" y="22.23" fill="none" stroke="#000000" stroke-width="0.6775" stroke-miterlimit="10" width="43.021" height="27.778"/>
<line fill="none" stroke="#000000" stroke-width="1.355" stroke-miterlimit="10" x1="101.84" y1="22.23" x2="132.811" y2="22.23"/>
<line fill="none" stroke="#000000" stroke-width="0.6775" stroke-miterlimit="10" x1="101.84" y1="26.478" x2="132.811" y2="26.478"/>
<line fill="none" stroke="#000000" stroke-width="0.6775" stroke-miterlimit="10" x1="101.84" y1="30.386" x2="132.811" y2="30.386"/>
<line fill="none" stroke="#000000" stroke-width="0.6775" stroke-miterlimit="10" x1="101.84" y1="34.295" x2="132.811" y2="34.295"/>
<line fill="none" stroke="#000000" stroke-width="0.6775" stroke-miterlimit="10" x1="101.84" y1="38.204" x2="132.811" y2="38.204"/>
<line fill="none" stroke="#000000" stroke-width="0.6775" stroke-miterlimit="10" x1="101.84" y1="42.113" x2="132.811" y2="42.113"/>
<circle fill="#FFFFFF" cx="42.076" cy="7.389" r="1.104"/>
<circle fill="#FFFFFF" cx="45.642" cy="7.389" r="1.104"/>
<circle fill="#FFFFFF" cx="49.039" cy="7.389" r="1.104"/>
<path d="M113.068,49.024c0,0.543,0.439,0.984,0.982,0.984h17.774c0.543,0,0.983-0.441,0.983-0.984v-1.749
	c0-0.543-0.44-0.983-0.983-0.983h-17.774c-0.543,0-0.982,0.44-0.982,0.983V49.024z"/>
<g>
	<polygon points="-212.531,-721.962 -169.318,-734.72 -138.863,-719.494 -181.253,-703.031 	"/>
	<g>
		<polygon points="-214.987,-728.041 -169.223,-741.552 -136.397,-725.138 -181.35,-707.681 		"/>
		<g>
			<path fill="#E6E6E6" d="M-169.318-740.482l30.455,15.229l-42.391,16.463l-31.277-18.932L-169.318-740.482 M-169.128-742.623
				l-0.756,0.223l-43.213,12.76l-4.345,1.283l3.875,2.346l31.277,18.932l0.843,0.51l0.917-0.357l42.391-16.463l4.209-1.633
				l-4.038-2.02l-30.455-15.229L-169.128-742.623L-169.128-742.623z"/>
		</g>
	</g>
	<polygon points="-181.253,-708.791 -181.253,-703.031 -138.863,-719.494 -138.863,-725.253 	"/>
</g>
<g>
	<polygon points="-212.531,-731.953 -169.318,-744.71 -138.863,-729.484 -181.253,-713.021 	"/>
	<g>
		<polygon points="-214.987,-738.031 -169.223,-751.542 -136.397,-735.128 -181.35,-717.671 		"/>
		<g>
			<path fill="#E6E6E6" d="M-169.318-750.472l30.455,15.229l-42.391,16.463l-31.277-18.932L-169.318-750.472 M-169.128-752.613
				l-0.756,0.224l-43.213,12.76l-4.345,1.283l3.875,2.346l31.277,18.932l0.843,0.51l0.917-0.357l42.391-16.463l4.209-1.633
				l-4.038-2.021l-30.455-15.229L-169.128-752.613L-169.128-752.613z"/>
		</g>
	</g>
	<polygon points="-181.253,-718.781 -181.253,-713.021 -138.863,-729.484 -138.863,-735.244 	"/>
</g>
<g>
	<polygon points="-212.531,-742.853 -169.318,-755.611 -138.863,-740.384 -181.253,-723.921 	"/>
	<g>
		<polygon points="-214.987,-748.931 -169.223,-762.443 -136.397,-746.029 -181.35,-728.572 		"/>
		<g>
			<path fill="#E6E6E6" d="M-169.318-761.373l30.455,15.229l-42.391,16.463l-31.277-18.933L-169.318-761.373 M-169.128-763.513
				l-0.756,0.223l-43.213,12.76l-4.345,1.283l3.875,2.346l31.277,18.932l0.843,0.51l0.917-0.357l42.391-16.463l4.209-1.633
				l-4.038-2.02l-30.455-15.229L-169.128-763.513L-169.128-763.513z"/>
		</g>
	</g>
	<polygon points="-181.253,-729.681 -181.253,-723.921 -138.863,-740.384 -138.863,-746.144 	"/>
</g>
<polygon points="186.402,-728.521 229.616,-741.279 260.07,-726.052 217.682,-709.589 "/>
<g>
	<polygon points="183.947,-734.599 229.711,-748.111 262.537,-731.698 217.584,-714.24 	"/>
	<g>
		<path fill="#E6E6E6" d="M229.616-747.041l30.454,15.228L217.68-715.35l-31.277-18.932L229.616-747.041 M229.807-749.182
			l-0.757,0.224L185.837-736.2l-4.346,1.283l3.877,2.346l31.276,18.933l0.842,0.51l0.918-0.356l42.391-16.463l4.209-1.634
			l-4.038-2.02l-30.454-15.228L229.807-749.182L229.807-749.182z"/>
	</g>
</g>
<polygon points="217.682,-715.35 217.682,-709.589 260.07,-726.052 260.07,-731.813 "/>
<polygon points="186.402,-740.771 229.616,-753.529 260.07,-738.302 217.682,-721.839 "/>
<g>
	<polygon points="183.947,-746.849 229.711,-760.361 262.537,-743.948 217.584,-726.49 	"/>
	<g>
		<path fill="#E6E6E6" d="M229.616-759.291l30.454,15.228L217.682-727.6l-31.277-18.932L229.616-759.291 M229.807-761.432
			l-0.757,0.224l-43.213,12.759l-4.346,1.283l3.877,2.346l31.276,18.933l0.842,0.51l0.918-0.356l42.391-16.463l4.209-1.634
			l-4.038-2.02l-30.454-15.228L229.807-761.432L229.807-761.432z"/>
	</g>
</g>
<polygon points="217.682,-727.6 217.682,-721.839 260.07,-738.302 260.07,-744.063 "/>
<polygon points="185.902,-754.021 229.116,-766.779 259.57,-751.552 217.182,-735.089 "/>
<g>
	<polygon points="183.447,-760.099 229.211,-773.611 262.037,-757.198 217.084,-739.74 	"/>
	<g>
		<path fill="#E6E6E6" d="M229.116-772.541l30.454,15.228L217.18-740.85l-31.277-18.932L229.116-772.541 M229.307-774.682
			l-0.757,0.224L185.337-761.7l-4.346,1.283l3.877,2.346l31.276,18.933l0.842,0.51l0.918-0.356l42.391-16.463l4.209-1.634
			l-4.038-2.02l-30.454-15.228L229.307-774.682L229.307-774.682z"/>
	</g>
</g>
<polygon points="217.182,-740.85 217.182,-735.089 259.57,-751.552 259.57,-757.313 "/>
<g>
	<path d="M223.486-785.47c-3.536-0.141-7.525-2.002-8.588-6.875l-0.154-0.707l3.074-0.672l0.154,0.707
		c0.521,2.389,2.289,3.958,4.812,4.326l-2.951-13.515c-2.901-0.827-6.608-2.442-7.526-6.631c-0.717-3.294,0.952-6.48,4.273-8.255
		l-0.694-3.18l3.073-0.673l0.607,2.793c0.006-0.001,0.014-0.002,0.02-0.003l-0.611-2.793l3.075-0.672l0.731,3.354
		c1.173,0.127,2.24,0.438,3.181,0.93c2.269,1.192,3.786,3.288,4.394,6.061l0.154,0.708l-3.074,0.668l-0.153-0.705
		c-0.402-1.836-1.363-3.199-2.779-3.942c-0.312-0.162-0.644-0.295-0.996-0.398l2.374,10.868c3.633,0.84,7.074,2.463,8.253,7.857
		c0.82,3.758-0.901,7.266-4.509,9.273l0.715,3.282l-3.072,0.671l-0.609-2.791c-0.006,0.001-0.012,0.003-0.018,0.004l0.61,2.792
		l-3.073,0.671L223.486-785.47z M225.967-788.855c0.006-0.001,0.014-0.003,0.02-0.005l-2.743-12.556
		c-0.007-0.001-0.013-0.002-0.021-0.004L225.967-788.855z M228.911-790.206c1.221-0.9,2.741-2.614,2.147-5.342
		c-0.675-3.081-2.098-4.301-4.42-5.056L228.911-790.206z M222.509-804.778l-2.251-10.302c-0.006,0.001-0.013,0.002-0.02,0.003
		l2.248,10.293C222.494-804.781,222.501-804.779,222.509-804.778z M217.289-813.849c-1.564,1.106-2.271,2.678-1.907,4.341
		c0.368,1.685,1.517,2.865,3.671,3.735L217.289-813.849z"/>
	<path fill="#FFFFFF" d="M221.497-820.758l0.69,3.169c1.229,0.071,2.406,0.355,3.438,0.895c2.071,1.089,3.462,3.017,4.021,5.574
		l-1.66,0.361c-0.449-2.051-1.538-3.582-3.149-4.428c-0.688-0.359-1.462-0.587-2.274-0.686l2.709,12.401
		c4.117,0.881,7.08,2.489,8.154,7.406c0.881,4.035-1.423,7.15-4.627,8.736l0.68,3.113l-1.66,0.362l-0.62-2.835
		c-0.319,0.1-0.642,0.19-0.968,0.262c-0.149,0.032-0.304,0.056-0.455,0.081l0.613,2.806l-1.66,0.362l-0.658-3.008
		c-0.049,0-0.098,0.001-0.146,0.001c-3.729,0-7.369-1.958-8.318-6.315l1.66-0.363c0.729,3.343,3.512,4.894,6.435,4.975
		l-3.253-14.897c-3.303-0.885-6.61-2.444-7.434-6.205c-0.771-3.536,1.461-6.337,4.394-7.705l-0.66-3.023l1.66-0.363l0.61,2.804
		c0.154-0.042,0.31-0.086,0.465-0.12c0.328-0.071,0.653-0.095,0.979-0.133l-0.626-2.863L221.497-820.758 M223.453-803.842
		l-2.628-12.03c-0.326,0.032-0.651,0.062-0.979,0.135c-0.156,0.034-0.307,0.092-0.463,0.135l2.496,11.426
		C222.404-804.057,222.93-803.948,223.453-803.842 M220.035-804.663l-2.256-10.326c-2.141,1.104-3.657,3.104-3.104,5.635
		C215.25-806.723,217.453-805.455,220.035-804.663 M225.412-788.006c0.152-0.025,0.306-0.049,0.456-0.082
		c0.325-0.071,0.646-0.164,0.967-0.27l-2.987-13.675c-0.063-0.012-0.129-0.023-0.195-0.038c-0.44-0.088-0.903-0.182-1.373-0.282
		L225.412-788.006 M228.426-789.04c2.338-1.279,4.014-3.57,3.34-6.662c-0.83-3.793-2.809-5.112-6.09-5.925L228.426-789.04
		 M222.602-822.48l-1.412,0.31l-1.662,0.363l-0.016,0.003l0,0l-1.414,0.31l-1.66,0.363l-1.412,0.309l0.309,1.413l0.428,1.953
		c-3.296,1.975-4.914,5.315-4.16,8.774c0.955,4.362,4.604,6.135,7.617,7.051l2.611,11.959c-1.264-0.427-2.688-1.38-3.15-3.498
		l-0.309-1.414l-1.413,0.31l-1.661,0.363l-1.412,0.309l0.309,1.412c0.918,4.208,4.281,7.032,8.705,7.41l0.418,1.913l0.311,1.412
		l1.412-0.308l1.66-0.362l1.412-0.309v-0.001l0.018-0.003l1.66-0.362l1.412-0.308l-0.309-1.413l-0.449-2.062
		c3.578-2.205,5.252-5.867,4.397-9.787c-1.216-5.559-4.792-7.401-8.35-8.3l-1.972-9.026c1.027,0.674,1.735,1.789,2.056,3.25
		l0.31,1.411l1.411-0.307l1.661-0.361l1.415-0.308l-0.31-1.415c-0.654-2.988-2.301-5.251-4.763-6.545
		c-0.881-0.46-1.858-0.775-2.921-0.941l-0.469-2.15L222.602-822.48L222.602-822.48z M218.023-807.092
		c-1.086-0.676-1.703-1.51-1.936-2.57c-0.266-1.214,0.164-2.148,0.758-2.826L218.023-807.092L218.023-807.092z M229.355-791.56
		l-1.717-7.855c1.375,0.717,2.237,1.847,2.713,4.022C230.727-793.681,230.146-792.431,229.355-791.56L229.355-791.56z"/>
</g>
<g>
	<path d="M99.836-791.469c-3.536-0.141-7.525-2.002-8.588-6.875l-0.154-0.707l3.074-0.672l0.154,0.707
		c0.521,2.389,2.289,3.958,4.812,4.326l-2.95-13.515c-2.902-0.827-6.609-2.442-7.526-6.631c-0.718-3.294,0.952-6.48,4.272-8.255
		l-0.693-3.18l3.072-0.673l0.608,2.793c0.006-0.001,0.013-0.002,0.019-0.003l-0.61-2.793l3.075-0.672l0.73,3.354
		c1.174,0.127,2.24,0.438,3.182,0.93c2.268,1.192,3.785,3.288,4.393,6.061l0.154,0.708l-3.073,0.668l-0.154-0.705
		c-0.401-1.836-1.362-3.199-2.778-3.942c-0.312-0.162-0.645-0.295-0.996-0.398l2.373,10.868c3.633,0.84,7.074,2.463,8.254,7.857
		c0.82,3.758-0.902,7.266-4.51,9.273l0.715,3.282l-3.071,0.671l-0.61-2.791c-0.006,0.001-0.012,0.003-0.017,0.004l0.61,2.792
		l-3.074,0.671L99.836-791.469z M102.316-794.854c0.006-0.001,0.013-0.003,0.019-0.005l-2.743-12.556
		c-0.007-0.001-0.013-0.002-0.02-0.004L102.316-794.854z M105.262-796.205c1.221-0.9,2.741-2.614,2.146-5.342
		c-0.674-3.081-2.098-4.301-4.42-5.056L105.262-796.205z M98.857-810.777l-2.25-10.302c-0.006,0.001-0.014,0.002-0.021,0.003
		l2.249,10.293C98.844-810.78,98.852-810.778,98.857-810.777z M93.639-819.848c-1.563,1.106-2.271,2.678-1.906,4.341
		c0.367,1.685,1.517,2.865,3.67,3.735L93.639-819.848z"/>
	<path fill="#FFFFFF" d="M97.848-826.757l0.69,3.169c1.229,0.071,2.405,0.355,3.438,0.895c2.07,1.089,3.461,3.017,4.021,5.574
		l-1.661,0.361c-0.449-2.051-1.538-3.582-3.148-4.428c-0.689-0.359-1.463-0.587-2.274-0.686l2.709,12.401
		c4.116,0.881,7.079,2.489,8.153,7.406c0.881,4.035-1.422,7.15-4.627,8.736l0.68,3.113l-1.66,0.362l-0.62-2.835
		c-0.319,0.1-0.641,0.19-0.967,0.262c-0.149,0.032-0.304,0.056-0.456,0.081l0.613,2.806l-1.66,0.362l-0.658-3.008
		c-0.049,0-0.098,0.001-0.146,0.001c-3.729,0-7.369-1.958-8.318-6.315l1.661-0.363c0.729,3.343,3.512,4.894,6.434,4.975
		l-3.253-14.897c-3.303-0.885-6.609-2.444-7.434-6.205c-0.771-3.536,1.462-6.337,4.394-7.705l-0.659-3.023l1.659-0.363l0.611,2.804
		c0.153-0.042,0.309-0.086,0.465-0.12c0.328-0.071,0.653-0.095,0.979-0.133l-0.627-2.863L97.848-826.757 M99.803-809.841
		l-2.628-12.03c-0.325,0.032-0.651,0.062-0.979,0.135c-0.156,0.034-0.307,0.092-0.463,0.135l2.496,11.426
		C98.754-810.056,99.279-809.947,99.803-809.841 M96.385-810.662l-2.255-10.326c-2.142,1.104-3.657,3.104-3.104,5.635
		C91.6-812.722,93.803-811.454,96.385-810.662 M101.762-794.005c0.152-0.025,0.307-0.049,0.456-0.082
		c0.326-0.071,0.646-0.164,0.968-0.27l-2.987-13.675c-0.064-0.012-0.13-0.023-0.195-0.038c-0.44-0.088-0.903-0.182-1.374-0.282
		L101.762-794.005 M104.775-795.039c2.336-1.279,4.014-3.57,3.34-6.662c-0.83-3.793-2.809-5.112-6.09-5.925L104.775-795.039
		 M98.951-828.479l-1.413,0.31l-1.661,0.363l-0.018,0.003l0,0l-1.414,0.31l-1.659,0.363l-1.412,0.309l0.31,1.413l0.426,1.953
		c-3.295,1.975-4.912,5.315-4.159,8.774c0.954,4.362,4.604,6.135,7.618,7.051l2.611,11.959c-1.264-0.427-2.688-1.38-3.15-3.498
		l-0.309-1.414l-1.414,0.31l-1.66,0.363l-1.412,0.309l0.308,1.412c0.918,4.208,4.282,7.032,8.706,7.41l0.418,1.913l0.311,1.412
		l1.412-0.308l1.659-0.362l1.413-0.309v-0.001l0.018-0.003l1.66-0.362l1.411-0.308l-0.308-1.413l-0.449-2.062
		c3.578-2.205,5.252-5.867,4.396-9.787c-1.215-5.559-4.791-7.401-8.35-8.3l-1.972-9.026c1.028,0.674,1.735,1.789,2.056,3.25
		l0.311,1.411l1.41-0.307l1.662-0.361l1.414-0.308l-0.31-1.415c-0.654-2.988-2.302-5.251-4.763-6.545
		c-0.881-0.46-1.858-0.775-2.92-0.941l-0.47-2.15L98.951-828.479L98.951-828.479z M94.374-813.091
		c-1.086-0.676-1.704-1.51-1.937-2.57c-0.266-1.214,0.164-2.148,0.758-2.826L94.374-813.091L94.374-813.091z M105.705-797.559
		l-1.717-7.855c1.375,0.717,2.238,1.847,2.714,4.022C107.075-799.68,106.496-798.43,105.705-797.559L105.705-797.559z"/>
</g>
<g>
	<polygon points="-180.564,-802.586 -126.725,-807.201 -133.65,-823.389 -181.211,-820.496 	"/>
	<polygon points="-180.564,-797.385 -126.725,-802 -133.65,-818.188 -181.211,-815.295 	"/>
	<polygon fill="#E6E6E6" points="-127.166,-807.201 -127.166,-802.505 -179.98,-798.331 -180.345,-802.766 	"/>
</g>
<g>
	<polygon points="76.771,-765.299 76.771,-770.857 80.364,-769.741 79.964,-763.997 	"/>
	<g>
		<polygon points="80.674,-752.469 135.007,-756.647 127.605,-773.95 76.771,-770.857 		"/>
		<polygon points="80.674,-746.91 135.007,-751.089 127.605,-768.39 76.771,-765.299 		"/>
		<polygon fill="#E6E6E6" points="134.536,-756.647 134.536,-751.628 81.299,-747.92 80.908,-752.661 		"/>
	</g>
	<polygon fill="#E6E6E6" points="76.988,-769.891 77.023,-765.511 81.231,-747.92 80.908,-752.661 	"/>
</g>
<g>
	<polygon points="136.968,-770.88 131.176,-768.727 131.176,-768.727 136.968,-770.88 113.51,-783.64 78.567,-772.388 
		85.415,-768.777 79.16,-766.761 104.984,-753.14 137.561,-765.254 	"/>
	<polygon fill="#E6E6E6" points="79.16,-772.017 79.16,-767.131 104.979,-753.585 104.922,-758.47 	"/>
</g>
<polygon points="115.744,81.53 115.744,79.752 115.745,79.752 115.745,75.77 85.289,60.542 42.076,73.301 73.353,92.232 
	73.353,94.379 73.159,94.454 72.317,93.943 45.878,77.94 42.076,79.062 73.353,97.993 "/>
</svg>
