<?xml version="1.0" encoding="utf-8"?>
<!-- Generator: Adobe Illustrator 15.1.0, SVG Export Plug-In . SVG Version: 6.00 Build 0)  -->
<!DOCTYPE svg PUBLIC "-//W3C//DTD SVG 1.1//EN" "http://www.w3.org/Graphics/SVG/1.1/DTD/svg11.dtd">
<svg version="1.1" id="Layer_1" xmlns="http://www.w3.org/2000/svg" xmlns:xlink="http://www.w3.org/1999/xlink" x="0px" y="0px"
	 width="173px" height="100px" viewBox="0 0 173 100" enable-background="new 0 0 173 100" xml:space="preserve">
<g>
	<polygon points="-154.106,-751.163 -105.848,-765.411 -71.838,-748.407 -119.178,-730.022 	"/>
	<g>
		<polygon points="-156.849,-757.951 -105.742,-773.041 -69.084,-754.709 -119.286,-735.213 		"/>
		<g>
			<path fill="#E6E6E6" d="M-105.848-771.845l34.01,17.007l-47.34,18.385l-34.929-21.143L-105.848-771.845 M-105.636-774.237
				l-0.845,0.25l-48.259,14.249l-4.853,1.434l4.329,2.62l34.929,21.143l0.94,0.568l1.024-0.397l47.34-18.385l4.699-1.825
				l-4.509-2.255l-34.01-17.007L-105.636-774.237L-105.636-774.237z"/>
		</g>
	</g>
	<polygon points="-119.178,-736.454 -119.178,-730.022 -71.838,-748.407 -71.838,-754.838 	"/>
</g>
<g>
	<g>
		<path d="M-615.042-607.705c0,1.094-0.887,1.98-1.98,1.98l0,0c-1.094,0-1.98-0.887-1.98-1.98v-25.676c0-1.094,0.887-1.98,1.98-1.98
			l0,0c1.094,0,1.98,0.887,1.98,1.98V-607.705z"/>
	</g>
	<g>
		<path d="M-609.468-605.382c0,1.094-0.887,1.979-1.98,1.979l0,0c-1.094,0-1.979-0.887-1.979-1.979v-25.676
			c0-1.094,0.885-1.98,1.979-1.98l0,0c1.094,0,1.98,0.887,1.98,1.98V-605.382z"/>
	</g>
	<g>
		<path d="M-603.893-602.207c0,1.094-0.887,1.98-1.98,1.98l0,0c-1.095,0-1.979-0.887-1.979-1.98v-23.002
			c0-1.094,0.885-1.98,1.979-1.98l0,0c1.094,0,1.98,0.887,1.98,1.98V-602.207z"/>
	</g>
	<g>
		<path d="M-620.619-604.973c0,1.094-0.887,1.98-1.98,1.98l0,0c-1.094,0-1.98-0.887-1.98-1.98v-25.675c0-1.094,0.887-1.98,1.98-1.98
			l0,0c1.094,0,1.98,0.887,1.98,1.98V-604.973z"/>
	</g>
	<path d="M-625.707-613.394c0,4.259,0,7.58,0,8.143s1.127,0.678,1.127,0.104s0-9.896,0-9.896s9.433-0.794,13.012-0.001
		c3.58,0.793,7.676,3.48,7.676,3.48s1.35,14.444-3.221,18.625c-4.57,4.18-12.744,3.045-15.732,1.686
		c-1.854-0.843-7.58-6.437-7.58-10.186s0-8.729,0-13.031C-630.425-618.772-625.707-617.652-625.707-613.394z"/>
</g>
<g>
	<g>
		<defs>
			<rect id="SVGID_1_" x="-573.128" y="-770.058" width="64.497" height="64.426"/>
		</defs>
		<clipPath id="SVGID_2_">
			<use xlink:href="#SVGID_1_"  overflow="visible"/>
		</clipPath>
		<g clip-path="url(#SVGID_2_)">
		</g>
	</g>
</g>
<g>
	<g>
		<g>
			<path d="M-579.205-597.921c-2.844,0-5.943-1.618-6.457-5.234l-0.07-0.495l2.154-0.307l0.07,0.495
				c0.353,2.483,2.543,3.364,4.311,3.364c0.271,0,0.543-0.02,0.812-0.058c1.184-0.168,2.284-0.67,3.018-1.378
				c0.839-0.811,1.179-1.821,1.011-3.005c-0.373-2.625-1.674-3.463-4.103-4.167c-0.26-0.076-0.529-0.151-0.804-0.229
				c-2.707-0.751-6.798-1.888-7.344-5.727c-0.223-1.569,0.267-3.006,1.415-4.154c0.982-0.981,2.403-1.666,3.899-1.878
				c0.355-0.05,0.714-0.076,1.067-0.076c1.273,0,2.474,0.328,3.47,0.947c1.501,0.938,2.441,2.458,2.718,4.402l0.07,0.495
				l-2.154,0.306l-0.07-0.495c-0.182-1.286-0.775-2.274-1.714-2.861c-0.65-0.404-1.451-0.618-2.316-0.618
				c-0.251,0-0.506,0.018-0.764,0.055c-1.022,0.145-1.974,0.577-2.611,1.187c-0.479,0.457-1.017,1.243-0.854,2.386
				c0.345,2.432,3.104,3.197,5.771,3.938c0,0,0.61,0.168,0.83,0.233c2.601,0.753,5.087,1.996,5.648,5.949
				c0.549,3.866-2.541,6.37-5.878,6.845C-578.45-597.948-578.829-597.921-579.205-597.921z"/>
			<path fill="#FFFFFF" d="M-580.224-620.269c1.172,0,2.284,0.299,3.206,0.872c1.373,0.855,2.232,2.256,2.487,4.048l-1.164,0.165
				c-0.204-1.438-0.877-2.549-1.945-3.215c-0.733-0.456-1.628-0.694-2.581-0.694c-0.274,0-0.553,0.02-0.834,0.06
				c-2.182,0.31-4.218,1.83-3.89,4.138c0.391,2.754,3.441,3.603,6.132,4.35c0.282,0.078,0.558,0.153,0.822,0.231
				c2.822,0.817,4.803,2.073,5.295,5.54c0.503,3.542-2.363,5.84-5.453,6.279c-0.35,0.05-0.704,0.074-1.056,0.074
				c-2.768,0-5.497-1.536-5.961-4.805l1.164-0.166c0.367,2.582,2.565,3.794,4.806,3.794c0.295,0,0.59-0.021,0.882-0.062
				c2.435-0.345,4.867-2.042,4.454-4.948c-0.409-2.88-1.883-3.83-4.458-4.577c-0.261-0.076-0.532-0.152-0.809-0.229
				c-2.736-0.76-6.483-1.801-6.982-5.315c-0.431-3.039,2.197-5.085,4.889-5.467C-580.885-620.246-580.552-620.269-580.224-620.269
				 M-580.224-621.269c-0.376,0-0.758,0.027-1.137,0.081c-1.601,0.228-3.125,0.963-4.183,2.02c-1.246,1.245-1.799,2.871-1.557,4.578
				c0.592,4.163,4.873,5.352,7.705,6.139c0.273,0.075,0.54,0.15,0.797,0.226c2.319,0.673,3.41,1.375,3.748,3.758
				c0.145,1.016-0.146,1.882-0.864,2.574c-0.66,0.637-1.659,1.09-2.74,1.243c-0.246,0.035-0.495,0.053-0.742,0.053
				c-1.643,0-3.509-0.771-3.816-2.935l-0.141-0.99l-0.99,0.141l-1.164,0.166l-0.99,0.142l0.141,0.989
				c0.556,3.913,3.892,5.664,6.952,5.664c0.398,0,0.801-0.028,1.197-0.084c3.583-0.51,6.898-3.219,6.303-7.41
				c-0.602-4.234-3.243-5.56-6.007-6.36c-0.218-0.063-0.448-0.128-0.683-0.192l-0.15-0.042c-2.992-0.83-5.132-1.569-5.409-3.526
				c-0.106-0.749,0.13-1.406,0.704-1.954c0.564-0.538,1.416-0.922,2.336-1.053c0.232-0.033,0.465-0.05,0.693-0.05
				c0.771,0,1.481,0.188,2.052,0.543c0.809,0.505,1.322,1.372,1.483,2.507l0.14,0.99l0.99-0.141l1.164-0.165l0.991-0.141
				l-0.141-0.99c-0.298-2.095-1.317-3.739-2.948-4.756C-577.565-620.916-578.856-621.269-580.224-621.269L-580.224-621.269z"/>
		</g>
	</g>
	<g>
		<g>
			
				<rect x="-580.766" y="-622.724" transform="matrix(0.9901 -0.1405 0.1405 0.9901 79.8773 -87.516)" width="2.175" height="26.864"/>
			<path fill="#FFFFFF" d="M-580.921-622.196l3.637,25.605l-1.164,0.165l-3.637-25.605L-580.921-622.196 M-580.072-623.327
				l-0.99,0.141l-1.164,0.165l-0.99,0.141l0.141,0.99l3.637,25.605l0.141,0.99l0.99-0.141l1.164-0.165l0.99-0.141l-0.141-0.99
				l-3.637-25.605L-580.072-623.327L-580.072-623.327z"/>
		</g>
	</g>
</g>
<g>
	<path d="M-556.739-595.915v-1.976c-0.004,0-0.009,0-0.013,0v1.975h-2.175v-2.231c-2.923-0.755-4.787-3.038-4.786-5.913v-0.5h2.176
		v0.5c0,1.69,0.963,3.012,2.611,3.633l0.002-9.565c-1.838-0.987-4.103-2.625-4.103-5.591c0.001-2.331,1.599-4.236,4.105-4.944
		v-2.251h2.175v1.977c0.004,0,0.009,0,0.013,0.001v-1.979h2.175v2.374c0.776,0.26,1.452,0.629,2.012,1.099
		c1.355,1.138,2.071,2.777,2.071,4.741v0.5h-2.176v-0.5c0.001-1.298-0.447-2.361-1.294-3.073c-0.185-0.155-0.39-0.294-0.613-0.416
		l-0.002,7.691c2.33,1.104,4.414,2.708,4.413,6.526c0,2.661-1.682,4.775-4.416,5.599v2.322H-556.739z M-556.751-600.067
		c0.004,0,0.009,0,0.013,0l0.002-8.886c-0.004-0.002-0.008-0.004-0.012-0.005L-556.751-600.067z M-554.563-600.544
		c0.958-0.427,2.239-1.36,2.24-3.291c0.001-2.181-0.78-3.215-2.238-4.068L-554.563-600.544z M-556.736-611.333l0.002-7.29
		c-0.004,0-0.009,0-0.013-0.001l-0.002,7.285C-556.744-611.337-556.74-611.335-556.736-611.333z M-558.921-618.231
		c-1.219,0.516-1.928,1.473-1.928,2.65c0,1.193,0.6,2.16,1.927,3.064L-558.921-618.231z"/>
	<path fill="#FFFFFF" d="M-556.233-622.277h1.175v2.243c0.819,0.23,1.572,0.594,2.19,1.113c1.239,1.041,1.892,2.548,1.892,4.358
		h-1.176c0.001-1.452-0.509-2.647-1.473-3.457c-0.412-0.345-0.899-0.612-1.435-0.799l-0.002,8.777
		c2.651,1.203,4.414,2.727,4.413,6.207c0,2.855-2.016,4.62-4.416,5.218v2.203h-1.175v-2.007c-0.229,0.021-0.461,0.034-0.692,0.034
		c-0.107,0-0.213-0.008-0.32-0.013v1.985h-1.175v-2.129c-2.561-0.523-4.787-2.393-4.786-5.516h1.176
		c-0.001,2.365,1.649,3.823,3.611,4.311l0.002-10.544c-2.099-1.084-4.103-2.626-4.103-5.289c0.001-2.502,1.922-4.064,4.105-4.555
		v-2.14h1.175v1.984c0.11-0.005,0.221-0.012,0.331-0.012c0.232,0,0.456,0.033,0.682,0.055L-556.233-622.277 M-556.236-610.562
		l0.002-8.514c-0.225-0.026-0.449-0.053-0.682-0.053c-0.111,0-0.22,0.017-0.331,0.023l-0.002,8.086
		C-556.912-610.862-556.573-610.71-556.236-610.562 M-558.423-611.621l0.001-7.307c-1.609,0.429-2.928,1.556-2.928,3.347
		C-561.351-613.719-560.05-612.537-558.423-611.621 M-556.931-599.564c0.23,0,0.461-0.016,0.692-0.039l0.002-9.677
		c-0.042-0.019-0.083-0.037-0.125-0.056c-0.286-0.125-0.584-0.256-0.887-0.393l-0.002,10.153
		C-557.145-599.571-557.038-599.564-556.931-599.564 M-555.063-599.829c1.768-0.519,3.239-1.818,3.24-4.007
		c0.001-2.685-1.141-3.868-3.238-4.901L-555.063-599.829 M-557.232-623.278L-557.232-623.278l-0.013,0.001h-1.175h-1v1v1.382
		c-2.518,0.848-4.104,2.865-4.105,5.312c0,3.088,2.203,4.824,4.103,5.887l-0.002,8.464c-0.79-0.475-1.612-1.329-1.611-2.827v-1h-1
		h-1.176h-1v1c-0.001,2.989,1.851,5.385,4.786,6.292v1.353v1h1h1.175h1h0.013h1.175h1v-1v-1.459c2.744-0.96,4.416-3.187,4.416-5.962
		c0.001-3.934-2.143-5.707-4.413-6.838l0.001-6.388c0.596,0.608,0.908,1.466,0.908,2.497v1h1h1.176h1v-1
		c0-2.116-0.778-3.888-2.249-5.124c-0.524-0.44-1.139-0.797-1.833-1.067v-1.522v-1h-1h-1.175L-557.232-623.278L-557.232-623.278z
		 M-559.422-613.559c-0.634-0.617-0.928-1.271-0.927-2.022c0-0.859,0.428-1.426,0.928-1.796L-559.422-613.559L-559.422-613.559z
		 M-554.063-601.393l0.001-5.56c0.823,0.688,1.239,1.578,1.238,3.117C-552.824-602.624-553.4-601.865-554.063-601.393
		L-554.063-601.393z"/>
</g>
<ellipse stroke="#E6E6E6" stroke-width="2" stroke-miterlimit="10" cx="-226.491" cy="-704.816" rx="26.75" ry="15.25"/>
<g>
	<polygon points="-428.531,-721.962 -385.318,-734.72 -354.863,-719.494 -397.253,-703.031 	"/>
	<g>
		<polygon points="-430.987,-728.041 -385.223,-741.552 -352.397,-725.138 -397.35,-707.681 		"/>
		<g>
			<path fill="#E6E6E6" d="M-385.318-740.482l30.455,15.229l-42.391,16.463l-31.277-18.932L-385.318-740.482 M-385.128-742.623
				l-0.756,0.223l-43.213,12.76l-4.345,1.283l3.875,2.346l31.277,18.932l0.843,0.51l0.917-0.357l42.391-16.463l4.209-1.633
				l-4.038-2.02l-30.455-15.229L-385.128-742.623L-385.128-742.623z"/>
		</g>
	</g>
	<polygon points="-397.253,-708.791 -397.253,-703.031 -354.863,-719.494 -354.863,-725.253 	"/>
</g>
<g>
	<polygon points="-428.531,-731.953 -385.318,-744.71 -354.863,-729.484 -397.253,-713.021 	"/>
	<g>
		<polygon points="-430.987,-738.031 -385.223,-751.542 -352.397,-735.128 -397.35,-717.671 		"/>
		<g>
			<path fill="#E6E6E6" d="M-385.318-750.472l30.455,15.229l-42.391,16.463l-31.277-18.932L-385.318-750.472 M-385.128-752.613
				l-0.756,0.224l-43.213,12.76l-4.345,1.283l3.875,2.346l31.277,18.932l0.843,0.51l0.917-0.357l42.391-16.463l4.209-1.633
				l-4.038-2.021l-30.455-15.229L-385.128-752.613L-385.128-752.613z"/>
		</g>
	</g>
	<polygon points="-397.253,-718.781 -397.253,-713.021 -354.863,-729.484 -354.863,-735.244 	"/>
</g>
<g>
	<polygon points="-428.531,-742.853 -385.318,-755.611 -354.863,-740.384 -397.253,-723.921 	"/>
	<g>
		<polygon points="-430.987,-748.931 -385.223,-762.443 -352.397,-746.029 -397.35,-728.572 		"/>
		<g>
			<path fill="#E6E6E6" d="M-385.318-761.373l30.455,15.229l-42.391,16.463l-31.277-18.933L-385.318-761.373 M-385.128-763.513
				l-0.756,0.223l-43.213,12.76l-4.345,1.283l3.875,2.346l31.277,18.932l0.843,0.51l0.917-0.357l42.391-16.463l4.209-1.633
				l-4.038-2.02l-30.455-15.229L-385.128-763.513L-385.128-763.513z"/>
		</g>
	</g>
	<polygon points="-397.253,-729.681 -397.253,-723.921 -354.863,-740.384 -354.863,-746.144 	"/>
</g>
<polygon points="-29.597,-728.521 13.616,-741.279 44.071,-726.052 1.681,-709.589 "/>
<g>
	<polygon points="-32.053,-734.599 13.711,-748.111 46.537,-731.698 1.584,-714.24 	"/>
	<g>
		<path fill="#E6E6E6" d="M13.616-747.041l30.455,15.228L1.681-715.35l-31.277-18.932L13.616-747.041 M13.806-749.182l-0.756,0.224
			L-30.163-736.2l-4.346,1.283l3.877,2.346l31.277,18.933l0.842,0.51l0.917-0.356l42.391-16.463l4.209-1.634l-4.038-2.02
			L14.511-748.83L13.806-749.182L13.806-749.182z"/>
	</g>
</g>
<polygon points="1.681,-715.35 1.681,-709.589 44.071,-726.052 44.071,-731.813 "/>
<polygon points="-29.597,-740.771 13.616,-753.529 44.071,-738.302 1.681,-721.839 "/>
<g>
	<polygon points="-32.053,-746.849 13.711,-760.361 46.537,-743.948 1.584,-726.49 	"/>
	<g>
		<path fill="#E6E6E6" d="M13.616-759.291l30.455,15.228L1.681-727.6l-31.277-18.932L13.616-759.291 M13.806-761.432l-0.756,0.224
			l-43.213,12.759l-4.346,1.283l3.877,2.346l31.277,18.933l0.842,0.51l0.917-0.356l42.391-16.463l4.209-1.634l-4.038-2.02
			L14.511-761.08L13.806-761.432L13.806-761.432z"/>
	</g>
</g>
<polygon points="1.681,-727.6 1.681,-721.839 44.071,-738.302 44.071,-744.063 "/>
<polygon points="-30.097,-754.021 13.116,-766.779 43.571,-751.552 1.181,-735.089 "/>
<g>
	<polygon points="-32.553,-760.099 13.211,-773.611 46.037,-757.198 1.084,-739.74 	"/>
	<g>
		<path fill="#E6E6E6" d="M13.116-772.541l30.455,15.228L1.181-740.85l-31.277-18.932L13.116-772.541 M13.306-774.682l-0.756,0.224
			L-30.663-761.7l-4.346,1.283l3.877,2.346l31.277,18.933l0.842,0.51l0.917-0.356l42.391-16.463l4.209-1.634l-4.038-2.02
			L14.011-774.33L13.306-774.682L13.306-774.682z"/>
	</g>
</g>
<polygon points="1.181,-740.85 1.181,-735.089 43.571,-751.552 43.571,-757.313 "/>
<g>
	<path d="M7.486-785.47c-3.536-0.141-7.525-2.002-8.588-6.875l-0.154-0.707l3.074-0.672l0.154,0.707
		c0.521,2.389,2.29,3.958,4.812,4.326l-2.951-13.515c-2.902-0.827-6.609-2.442-7.526-6.631c-0.717-3.294,0.952-6.48,4.273-8.255
		l-0.694-3.18l3.073-0.673l0.608,2.793c0.006-0.001,0.013-0.002,0.019-0.003l-0.611-2.793l3.075-0.672l0.731,3.354
		c1.173,0.127,2.24,0.438,3.181,0.93c2.268,1.192,3.786,3.288,4.393,6.061l0.155,0.708l-3.074,0.668l-0.154-0.705
		c-0.402-1.836-1.363-3.199-2.779-3.942c-0.311-0.162-0.644-0.295-0.996-0.398l2.374,10.868c3.633,0.84,7.074,2.463,8.253,7.857
		c0.82,3.758-0.902,7.266-4.509,9.273l0.715,3.282l-3.072,0.671l-0.61-2.791c-0.006,0.001-0.012,0.003-0.017,0.004l0.61,2.792
		l-3.073,0.671L7.486-785.47z M9.967-788.855c0.006-0.001,0.013-0.003,0.019-0.005l-2.743-12.556
		c-0.007-0.001-0.013-0.002-0.02-0.004L9.967-788.855z M12.911-790.206c1.221-0.9,2.742-2.614,2.147-5.342
		c-0.674-3.081-2.097-4.301-4.419-5.056L12.911-790.206z M6.509-804.778L4.258-815.08c-0.006,0.001-0.013,0.002-0.02,0.003
		l2.249,10.293C6.494-804.781,6.501-804.779,6.509-804.778z M1.289-813.849c-1.564,1.106-2.271,2.678-1.907,4.341
		c0.368,1.685,1.517,2.865,3.671,3.735L1.289-813.849z"/>
	<path fill="#FFFFFF" d="M5.497-820.758l0.691,3.169c1.229,0.071,2.406,0.355,3.438,0.895c2.071,1.089,3.462,3.017,4.021,5.574
		l-1.661,0.361c-0.449-2.051-1.538-3.582-3.149-4.428c-0.689-0.359-1.462-0.587-2.274-0.686l2.709,12.401
		c4.117,0.881,7.079,2.489,8.154,7.406c0.88,4.035-1.423,7.15-4.627,8.736l0.679,3.113l-1.66,0.362l-0.62-2.835
		c-0.319,0.1-0.641,0.19-0.967,0.262c-0.15,0.032-0.304,0.056-0.456,0.081l0.613,2.806l-1.66,0.362l-0.658-3.008
		c-0.049,0-0.098,0.001-0.146,0.001c-3.729,0-7.369-1.958-8.319-6.315l1.661-0.363c0.729,3.343,3.512,4.894,6.434,4.975
		l-3.253-14.897c-3.303-0.885-6.61-2.444-7.434-6.205c-0.77-3.536,1.462-6.337,4.394-7.705l-0.66-3.023l1.66-0.363l0.611,2.804
		c0.154-0.042,0.309-0.086,0.465-0.12c0.328-0.071,0.653-0.095,0.979-0.133l-0.626-2.863L5.497-820.758 M7.453-803.842l-2.628-12.03
		c-0.326,0.032-0.651,0.062-0.979,0.135c-0.157,0.034-0.307,0.092-0.463,0.135l2.496,11.426
		C6.404-804.057,6.93-803.948,7.453-803.842 M4.035-804.663L1.78-814.989c-2.142,1.104-3.658,3.104-3.104,5.635
		C-0.75-806.723,1.453-805.455,4.035-804.663 M9.412-788.006c0.152-0.025,0.306-0.049,0.456-0.082
		c0.326-0.071,0.646-0.164,0.967-0.27l-2.987-13.675c-0.064-0.012-0.129-0.023-0.195-0.038c-0.441-0.088-0.904-0.182-1.374-0.282
		L9.412-788.006 M12.426-789.04c2.337-1.279,4.014-3.57,3.34-6.662c-0.83-3.793-2.809-5.112-6.09-5.925L12.426-789.04 M6.602-822.48
		l-1.413,0.31l-1.661,0.363l-0.017,0.003l0,0l-1.414,0.31l-1.66,0.363l-1.412,0.309l0.309,1.413l0.427,1.953
		c-3.295,1.975-4.913,5.315-4.16,8.774c0.955,4.362,4.604,6.135,7.618,7.051l2.611,11.959c-1.263-0.427-2.688-1.38-3.15-3.498
		l-0.309-1.414l-1.413,0.31l-1.661,0.363l-1.412,0.309l0.308,1.412c0.918,4.208,4.282,7.032,8.706,7.41l0.418,1.913l0.31,1.412
		l1.412-0.308l1.66-0.362l1.413-0.309v-0.001l0.017-0.003l1.66-0.362l1.412-0.308l-0.308-1.413l-0.449-2.062
		c3.578-2.205,5.252-5.867,4.397-9.787c-1.216-5.559-4.792-7.401-8.35-8.3l-1.972-9.026c1.028,0.674,1.736,1.789,2.056,3.25
		l0.31,1.411l1.411-0.307l1.661-0.361l1.415-0.308l-0.31-1.415c-0.654-2.988-2.301-5.251-4.762-6.545
		c-0.881-0.46-1.859-0.775-2.921-0.941l-0.469-2.15L6.602-822.48L6.602-822.48z M2.024-807.092c-1.086-0.676-1.704-1.51-1.936-2.57
		c-0.266-1.214,0.164-2.148,0.757-2.826L2.024-807.092L2.024-807.092z M13.355-791.56l-1.716-7.855
		c1.374,0.717,2.237,1.847,2.713,4.022C14.726-793.681,14.146-792.431,13.355-791.56L13.355-791.56z"/>
</g>
<g>
	<path d="M-116.164-791.469c-3.536-0.141-7.525-2.002-8.588-6.875l-0.154-0.707l3.074-0.672l0.154,0.707
		c0.521,2.389,2.29,3.958,4.812,4.326l-2.951-13.515c-2.902-0.827-6.609-2.442-7.526-6.631c-0.717-3.294,0.952-6.48,4.273-8.255
		l-0.694-3.18l3.073-0.673l0.608,2.793c0.006-0.001,0.013-0.002,0.019-0.003l-0.611-2.793l3.075-0.672l0.731,3.354
		c1.173,0.127,2.24,0.438,3.181,0.93c2.268,1.192,3.786,3.288,4.393,6.061l0.155,0.708l-3.074,0.668l-0.154-0.705
		c-0.402-1.836-1.363-3.199-2.779-3.942c-0.311-0.162-0.644-0.295-0.996-0.398l2.374,10.868c3.633,0.84,7.074,2.463,8.253,7.857
		c0.82,3.758-0.902,7.266-4.509,9.273l0.715,3.282l-3.072,0.671l-0.61-2.791c-0.006,0.001-0.012,0.003-0.017,0.004l0.61,2.792
		l-3.073,0.671L-116.164-791.469z M-113.684-794.854c0.006-0.001,0.013-0.003,0.019-0.005l-2.743-12.556
		c-0.007-0.001-0.013-0.002-0.02-0.004L-113.684-794.854z M-110.739-796.205c1.221-0.9,2.742-2.614,2.147-5.342
		c-0.674-3.081-2.097-4.301-4.419-5.056L-110.739-796.205z M-117.142-810.777l-2.251-10.302c-0.006,0.001-0.013,0.002-0.02,0.003
		l2.249,10.293C-117.156-810.78-117.149-810.778-117.142-810.777z M-122.361-819.848c-1.564,1.106-2.271,2.678-1.907,4.341
		c0.368,1.685,1.517,2.865,3.671,3.735L-122.361-819.848z"/>
	<path fill="#FFFFFF" d="M-118.153-826.757l0.691,3.169c1.229,0.071,2.406,0.355,3.438,0.895c2.071,1.089,3.462,3.017,4.021,5.574
		l-1.661,0.361c-0.449-2.051-1.538-3.582-3.149-4.428c-0.689-0.359-1.462-0.587-2.274-0.686l2.709,12.401
		c4.117,0.881,7.079,2.489,8.154,7.406c0.88,4.035-1.423,7.15-4.627,8.736l0.679,3.113l-1.66,0.362l-0.62-2.835
		c-0.319,0.1-0.641,0.19-0.967,0.262c-0.15,0.032-0.304,0.056-0.456,0.081l0.613,2.806l-1.66,0.362l-0.658-3.008
		c-0.049,0-0.098,0.001-0.146,0.001c-3.729,0-7.369-1.958-8.319-6.315l1.661-0.363c0.729,3.343,3.512,4.894,6.434,4.975
		l-3.253-14.897c-3.303-0.885-6.61-2.444-7.434-6.205c-0.77-3.536,1.462-6.337,4.394-7.705l-0.66-3.023l1.66-0.363l0.611,2.804
		c0.154-0.042,0.309-0.086,0.465-0.12c0.328-0.071,0.653-0.095,0.979-0.133l-0.626-2.863L-118.153-826.757 M-116.197-809.841
		l-2.628-12.03c-0.326,0.032-0.651,0.062-0.979,0.135c-0.157,0.034-0.307,0.092-0.463,0.135l2.496,11.426
		C-117.246-810.056-116.721-809.947-116.197-809.841 M-119.615-810.662l-2.255-10.326c-2.142,1.104-3.658,3.104-3.104,5.635
		C-124.4-812.722-122.197-811.454-119.615-810.662 M-114.238-794.005c0.152-0.025,0.306-0.049,0.456-0.082
		c0.326-0.071,0.646-0.164,0.967-0.27l-2.987-13.675c-0.064-0.012-0.129-0.023-0.195-0.038c-0.441-0.088-0.904-0.182-1.374-0.282
		L-114.238-794.005 M-111.225-795.039c2.337-1.279,4.014-3.57,3.34-6.662c-0.83-3.793-2.809-5.112-6.09-5.925L-111.225-795.039
		 M-117.049-828.479l-1.413,0.31l-1.661,0.363l-0.017,0.003l0,0l-1.414,0.31l-1.66,0.363l-1.412,0.309l0.309,1.413l0.427,1.953
		c-3.295,1.975-4.913,5.315-4.16,8.774c0.955,4.362,4.604,6.135,7.618,7.051l2.611,11.959c-1.263-0.427-2.688-1.38-3.15-3.498
		l-0.309-1.414l-1.413,0.31l-1.661,0.363l-1.412,0.309l0.308,1.412c0.918,4.208,4.282,7.032,8.706,7.41l0.418,1.913l0.31,1.412
		l1.412-0.308l1.66-0.362l1.413-0.309v-0.001l0.017-0.003l1.66-0.362l1.412-0.308l-0.308-1.413l-0.449-2.062
		c3.578-2.205,5.252-5.867,4.397-9.787c-1.216-5.559-4.792-7.401-8.35-8.3l-1.972-9.026c1.028,0.674,1.736,1.789,2.056,3.25
		l0.31,1.411l1.411-0.307l1.661-0.361l1.415-0.308l-0.31-1.415c-0.654-2.988-2.301-5.251-4.762-6.545
		c-0.881-0.46-1.859-0.775-2.921-0.941l-0.469-2.15L-117.049-828.479L-117.049-828.479z M-121.626-813.091
		c-1.086-0.676-1.704-1.51-1.936-2.57c-0.266-1.214,0.164-2.148,0.757-2.826L-121.626-813.091L-121.626-813.091z M-110.295-797.559
		l-1.716-7.855c1.374,0.717,2.237,1.847,2.713,4.022C-108.925-799.68-109.504-798.43-110.295-797.559L-110.295-797.559z"/>
</g>
<path d="M86.089,24.304c-0.922-4.219-3.463-5.599-6.996-6.355L76.768,7.307c0.696,0.084,1.36,0.279,1.952,0.588
	c1.383,0.725,2.316,2.039,2.701,3.799l1.427-0.31c-0.48-2.195-1.675-3.848-3.451-4.783c-0.886-0.463-1.896-0.707-2.95-0.768
	l-0.594-2.719l-1.426,0.31l0.537,2.457c-0.279,0.033-0.56,0.053-0.84,0.114c-0.135,0.03-0.267,0.068-0.399,0.104l-0.524-2.406
	l-1.425,0.312l0.567,2.594c-2.518,1.174-4.432,3.578-3.771,6.612c0.706,3.227,3.545,4.566,6.379,5.325l2.791,12.784
	c-2.507-0.07-4.896-1.4-5.521-4.269l-1.426,0.312c0.816,3.739,3.94,5.42,7.14,5.42c0.043,0,0.084-0.001,0.126-0.001l0.564,2.581
	l1.424-0.311l-0.524-2.408c0.13-0.022,0.262-0.042,0.392-0.069c0.279-0.062,0.555-0.14,0.83-0.225l0.531,2.433l1.425-0.311
	l-0.583-2.671C84.869,30.44,86.845,27.767,86.089,24.304z M70,12.9c-0.476-2.172,0.825-3.888,2.664-4.835l1.936,8.861
	C72.382,16.247,70.493,15.158,70,12.9z M74.039,7.539c0.135-0.037,0.262-0.087,0.397-0.116c0.28-0.062,0.562-0.088,0.841-0.116
	l2.255,10.323c-0.448-0.09-0.901-0.184-1.35-0.286L74.039,7.539z M79.605,31.149c-0.129,0.028-0.262,0.048-0.393,0.07l-2.688-12.31
	c0.402,0.086,0.8,0.166,1.18,0.242c0.057,0.012,0.111,0.023,0.168,0.033l2.562,11.734C80.16,31.008,79.884,31.087,79.605,31.149z
	 M81.798,30.333l-2.36-10.801c2.815,0.697,4.514,1.829,5.226,5.084C85.242,27.269,83.804,29.235,81.798,30.333z"/>
<g>
	<polygon points="-396.564,-802.586 -342.725,-807.201 -349.65,-823.389 -397.211,-820.496 	"/>
	<polygon points="-396.564,-797.385 -342.725,-802 -349.65,-818.188 -397.211,-815.295 	"/>
	<polygon fill="#E6E6E6" points="-343.166,-807.201 -343.166,-802.505 -395.98,-798.331 -396.345,-802.766 	"/>
</g>
<g>
	<polygon points="-139.229,-765.299 -139.229,-770.857 -135.636,-769.741 -136.036,-763.997 	"/>
	<g>
		<polygon points="-135.326,-752.469 -80.993,-756.647 -88.395,-773.95 -139.229,-770.857 		"/>
		<polygon points="-135.326,-746.91 -80.993,-751.089 -88.395,-768.39 -139.229,-765.299 		"/>
		<polygon fill="#E6E6E6" points="-81.464,-756.647 -81.464,-751.628 -134.701,-747.92 -135.092,-752.661 		"/>
	</g>
	<polygon fill="#E6E6E6" points="-139.012,-769.891 -138.977,-765.511 -134.769,-747.92 -135.092,-752.661 	"/>
</g>
<g>
	<polygon points="-79.032,-770.88 -84.824,-768.727 -84.824,-768.727 -79.032,-770.88 -102.49,-783.64 -137.433,-772.388 
		-130.585,-768.777 -136.84,-766.761 -111.016,-753.14 -78.44,-765.254 	"/>
	<polygon fill="#E6E6E6" points="-136.84,-772.017 -136.84,-767.131 -111.021,-753.585 -111.078,-758.47 	"/>
</g>
<path d="M94.334,35.363L52.051,47.847l13.142,7.954l-0.087,0.025l17.576,10.639v2.1l-0.19,0.074l-0.825-0.5L55.798,52.48
	l-0.113-0.068l-3.634,1.072l6.881,4.165l-7.37,2.176l0.024,0.015c0.008-0.006,0.028-0.023,0.028-0.023l0.014,0.049l13.021,7.882
	h-0.001l17.583,10.644v2.101l-0.19,0.073l-0.825-0.5L55.348,64.406l-0.068-0.041l-3.718,1.098l6.826,4.132l-7.479,2.208
	l30.604,18.524v2.101l-0.19,0.073l-0.824-0.5l-25.87-15.658l-3.72,1.098l30.604,18.523l41.478-16.108v-1.74h0.001v-3.896
	l-6.854-3.427l7.506-2.915v-1.739h0.001v-3.896l-6.926-3.463l7.414-2.879v-1.74h0.001v-3.896L94.334,35.363z"/>
</svg>
