<?xml version="1.0" encoding="utf-8"?>
<!-- Generator: Adobe Illustrator 15.1.0, SVG Export Plug-In . SVG Version: 6.00 Build 0)  -->
<!DOCTYPE svg PUBLIC "-//W3C//DTD SVG 1.1//EN" "http://www.w3.org/Graphics/SVG/1.1/DTD/svg11.dtd">
<svg version="1.1" id="Layer_1" xmlns="http://www.w3.org/2000/svg" xmlns:xlink="http://www.w3.org/1999/xlink" x="0px" y="0px"
	 width="173px" height="100px" viewBox="0 0 173 100" enable-background="new 0 0 173 100" xml:space="preserve">
<g>
	<polygon points="-364.106,-751.163 -315.848,-765.411 -281.838,-748.407 -329.178,-730.022 	"/>
	<g>
		<polygon points="-366.849,-757.951 -315.742,-773.041 -279.084,-754.709 -329.286,-735.213 		"/>
		<g>
			<path fill="#E6E6E6" d="M-315.848-771.845l34.01,17.007l-47.34,18.385l-34.929-21.143L-315.848-771.845 M-315.636-774.237
				l-0.845,0.25l-48.259,14.249l-4.853,1.433l4.329,2.62l34.929,21.143l0.94,0.568l1.024-0.397l47.34-18.385l4.699-1.825
				l-4.509-2.255l-34.01-17.007L-315.636-774.237L-315.636-774.237z"/>
		</g>
	</g>
	<polygon points="-329.178,-736.454 -329.178,-730.022 -281.838,-748.407 -281.838,-754.838 	"/>
</g>
<g>
	<g>
		<path d="M-825.042-607.705c0,1.094-0.887,1.98-1.98,1.98l0,0c-1.094,0-1.98-0.887-1.98-1.98v-25.676c0-1.094,0.887-1.98,1.98-1.98
			l0,0c1.094,0,1.98,0.887,1.98,1.98V-607.705z"/>
	</g>
	<g>
		<path d="M-819.468-605.382c0,1.094-0.887,1.98-1.98,1.98l0,0c-1.094,0-1.979-0.887-1.979-1.98v-25.676
			c0-1.094,0.885-1.98,1.979-1.98l0,0c1.094,0,1.98,0.887,1.98,1.98V-605.382z"/>
	</g>
	<g>
		<path d="M-813.893-602.207c0,1.094-0.887,1.98-1.98,1.98l0,0c-1.095,0-1.979-0.887-1.979-1.98v-23.002
			c0-1.094,0.885-1.98,1.979-1.98l0,0c1.094,0,1.98,0.887,1.98,1.98V-602.207z"/>
	</g>
	<g>
		<path d="M-830.619-604.973c0,1.094-0.887,1.98-1.98,1.98l0,0c-1.094,0-1.98-0.887-1.98-1.98v-25.675c0-1.094,0.887-1.98,1.98-1.98
			l0,0c1.094,0,1.98,0.887,1.98,1.98V-604.973z"/>
	</g>
	<path d="M-835.707-613.394c0,4.259,0,7.58,0,8.143s1.127,0.678,1.127,0.104s0-9.896,0-9.896s9.433-0.794,13.012-0.001
		c3.58,0.793,7.676,3.48,7.676,3.48s1.35,14.444-3.221,18.625c-4.57,4.18-12.744,3.045-15.732,1.686
		c-1.854-0.843-7.58-6.437-7.58-10.186s0-8.729,0-13.031S-835.707-617.652-835.707-613.394z"/>
</g>
<g>
	<defs>
		<rect id="SVGID_1_" x="-783.128" y="-770.058" width="64.497" height="64.426"/>
	</defs>
	<clipPath id="SVGID_2_">
		<use xlink:href="#SVGID_1_"  overflow="visible"/>
	</clipPath>
	<g clip-path="url(#SVGID_2_)">
		<image overflow="visible" width="640" height="480" xlink:href="4425A2B.jpg"  transform="matrix(1 0 0 1 -1034.7222 -845.6919)">
		</image>
	</g>
</g>
<g>
	<g>
		<g>
			<path d="M-789.205-597.921c-2.844,0-5.943-1.618-6.457-5.234l-0.07-0.495l2.154-0.307l0.07,0.495
				c0.353,2.483,2.543,3.364,4.311,3.364c0.271,0,0.543-0.02,0.812-0.058c1.184-0.168,2.284-0.67,3.018-1.378
				c0.839-0.811,1.179-1.821,1.011-3.005c-0.373-2.625-1.674-3.463-4.103-4.167c-0.26-0.076-0.529-0.151-0.804-0.229
				c-2.707-0.751-6.798-1.888-7.344-5.727c-0.223-1.569,0.267-3.006,1.415-4.154c0.982-0.981,2.403-1.666,3.899-1.878
				c0.355-0.05,0.714-0.076,1.067-0.076c1.273,0,2.474,0.328,3.47,0.947c1.501,0.937,2.441,2.458,2.718,4.402l0.07,0.495
				l-2.154,0.306l-0.07-0.495c-0.182-1.286-0.775-2.275-1.714-2.861c-0.65-0.404-1.451-0.618-2.316-0.618
				c-0.251,0-0.506,0.018-0.764,0.055c-1.022,0.145-1.974,0.577-2.611,1.187c-0.479,0.457-1.017,1.243-0.854,2.386
				c0.345,2.432,3.104,3.197,5.771,3.938c0,0,0.61,0.168,0.83,0.233c2.601,0.753,5.087,1.996,5.648,5.949
				c0.549,3.866-2.541,6.37-5.878,6.845C-788.45-597.948-788.829-597.921-789.205-597.921z"/>
			<path fill="#FFFFFF" d="M-790.224-620.269c1.172,0,2.284,0.299,3.206,0.872c1.373,0.855,2.232,2.256,2.487,4.048l-1.164,0.165
				c-0.204-1.438-0.877-2.549-1.945-3.215c-0.733-0.456-1.628-0.694-2.581-0.694c-0.274,0-0.553,0.02-0.834,0.06
				c-2.182,0.31-4.218,1.83-3.89,4.138c0.391,2.754,3.441,3.603,6.132,4.35c0.282,0.078,0.558,0.153,0.822,0.231
				c2.822,0.817,4.803,2.073,5.295,5.54c0.503,3.542-2.363,5.84-5.453,6.279c-0.35,0.05-0.704,0.074-1.056,0.074
				c-2.768,0-5.497-1.536-5.961-4.805l1.164-0.166c0.367,2.582,2.565,3.794,4.806,3.794c0.295,0,0.59-0.021,0.882-0.062
				c2.435-0.345,4.867-2.042,4.454-4.948c-0.409-2.88-1.883-3.83-4.458-4.577c-0.261-0.076-0.532-0.152-0.809-0.229
				c-2.736-0.76-6.483-1.801-6.982-5.315c-0.431-3.039,2.197-5.085,4.889-5.467C-790.885-620.246-790.552-620.269-790.224-620.269
				 M-790.224-621.269c-0.376,0-0.758,0.027-1.137,0.081c-1.601,0.228-3.125,0.963-4.183,2.02c-1.246,1.245-1.799,2.871-1.557,4.578
				c0.592,4.163,4.873,5.352,7.705,6.139c0.273,0.075,0.54,0.15,0.797,0.226c2.319,0.673,3.41,1.375,3.748,3.758
				c0.145,1.016-0.146,1.882-0.864,2.574c-0.66,0.637-1.659,1.09-2.74,1.243c-0.246,0.035-0.495,0.053-0.742,0.053
				c-1.643,0-3.509-0.771-3.816-2.935l-0.141-0.99l-0.99,0.141l-1.164,0.166l-0.99,0.142l0.141,0.989
				c0.556,3.913,3.892,5.664,6.952,5.664c0.398,0,0.801-0.028,1.197-0.084c3.583-0.51,6.898-3.219,6.303-7.41
				c-0.602-4.234-3.243-5.56-6.007-6.36c-0.218-0.063-0.448-0.128-0.683-0.192l-0.15-0.042c-2.992-0.83-5.132-1.569-5.409-3.526
				c-0.106-0.749,0.13-1.406,0.704-1.954c0.564-0.538,1.416-0.922,2.336-1.053c0.232-0.033,0.465-0.05,0.693-0.05
				c0.771,0,1.481,0.188,2.052,0.543c0.809,0.505,1.322,1.372,1.483,2.507l0.14,0.99l0.99-0.141l1.164-0.165l0.991-0.141
				l-0.141-0.99c-0.298-2.095-1.317-3.739-2.948-4.756C-787.565-620.916-788.856-621.269-790.224-621.269L-790.224-621.269z"/>
		</g>
	</g>
	<g>
		<g>
			
				<rect x="-790.773" y="-622.742" transform="matrix(-0.9901 0.1405 -0.1405 -0.9901 -1657.1497 -1101.6177)" width="2.175" height="26.863"/>
			<path fill="#FFFFFF" d="M-790.921-622.196l3.637,25.605l-1.164,0.165l-3.637-25.605L-790.921-622.196 M-790.072-623.327
				l-0.99,0.141l-1.164,0.165l-0.99,0.141l0.141,0.99l3.637,25.605l0.141,0.99l0.99-0.141l1.164-0.165l0.99-0.141l-0.141-0.99
				l-3.637-25.605L-790.072-623.327L-790.072-623.327z"/>
		</g>
	</g>
</g>
<g>
	<path d="M-766.739-595.915l0-1.976c-0.004,0-0.009,0-0.013,0l0,1.975h-2.175l0-2.231c-2.923-0.755-4.787-3.038-4.786-5.913v-0.5
		h2.176v0.5c0,1.69,0.963,3.012,2.611,3.633l0.002-9.565c-1.838-0.987-4.103-2.625-4.103-5.591c0.001-2.331,1.599-4.236,4.105-4.944
		l0-2.251l2.175,0l0,1.976c0.004,0,0.009,0,0.013,0.001l0-1.978l2.175,0l0,2.374c0.776,0.26,1.452,0.629,2.012,1.099
		c1.355,1.138,2.071,2.777,2.071,4.741v0.5l-2.176,0l0-0.5c0.001-1.298-0.447-2.361-1.294-3.073
		c-0.185-0.155-0.39-0.294-0.613-0.416l-0.002,7.692c2.33,1.104,4.414,2.708,4.413,6.526c0,2.661-1.682,4.775-4.416,5.599l0,2.322
		H-766.739z M-766.751-600.067c0.004,0,0.009,0,0.013,0l0.002-8.886c-0.004-0.002-0.008-0.004-0.012-0.005L-766.751-600.067z
		 M-764.563-600.544c0.958-0.427,2.239-1.36,2.24-3.291c0.001-2.181-0.78-3.215-2.238-4.068L-764.563-600.544z M-766.736-611.333
		l0.002-7.29c-0.004,0-0.009,0-0.013-0.001l-0.002,7.285C-766.744-611.337-766.74-611.335-766.736-611.333z M-768.921-618.231
		c-1.219,0.516-1.928,1.473-1.928,2.65c0,1.193,0.6,2.16,1.927,3.064L-768.921-618.231z"/>
	<path fill="#FFFFFF" d="M-766.233-622.277l1.175,0l0,2.243c0.819,0.23,1.572,0.594,2.19,1.113c1.239,1.041,1.892,2.548,1.892,4.358
		l-1.176,0c0.001-1.452-0.509-2.647-1.473-3.457c-0.412-0.345-0.899-0.612-1.435-0.799l-0.002,8.777
		c2.651,1.203,4.414,2.727,4.413,6.207c0,2.855-2.016,4.62-4.416,5.218l0,2.203h-1.175l0-2.007c-0.23,0.021-0.461,0.034-0.692,0.034
		c-0.107,0-0.213-0.008-0.32-0.013l0,1.985h-1.175l0-2.129c-2.561-0.523-4.787-2.393-4.786-5.516h1.176
		c-0.001,2.365,1.649,3.823,3.611,4.311l0.002-10.544c-2.099-1.084-4.103-2.626-4.103-5.289c0.001-2.502,1.922-4.064,4.105-4.555
		l0-2.14l1.175,0l0,1.984c0.11-0.005,0.221-0.012,0.331-0.012c0.232,0,0.456,0.033,0.682,0.055L-766.233-622.277 M-766.236-610.562
		l0.002-8.514c-0.225-0.026-0.449-0.053-0.682-0.053c-0.111,0-0.22,0.017-0.331,0.023l-0.002,8.086
		C-766.912-610.862-766.573-610.71-766.236-610.562 M-768.423-611.621l0.001-7.307c-1.609,0.429-2.928,1.556-2.928,3.347
		C-771.351-613.719-770.05-612.537-768.423-611.621 M-766.931-599.564c0.23,0,0.461-0.016,0.692-0.039l0.002-9.677
		c-0.042-0.019-0.083-0.037-0.125-0.056c-0.286-0.125-0.584-0.256-0.887-0.393l-0.002,10.153
		C-767.145-599.571-767.038-599.564-766.931-599.564 M-765.063-599.829c1.768-0.519,3.239-1.818,3.24-4.007
		c0.001-2.685-1.141-3.868-3.238-4.901L-765.063-599.829 M-767.232-623.278L-767.232-623.278l-0.013,0.001l-1.175,0l-1,0v1l0,1.382
		c-2.518,0.848-4.104,2.865-4.105,5.312c0,3.088,2.203,4.824,4.103,5.887l-0.002,8.464c-0.79-0.475-1.612-1.329-1.611-2.827l0-1h-1
		h-1.176h-1l0,1c-0.001,2.989,1.851,5.385,4.786,6.292l0,1.353v1h1h1.175h1h0.013h1.175h1v-1l0-1.459
		c2.744-0.96,4.416-3.187,4.416-5.962c0.001-3.934-2.143-5.707-4.413-6.838l0.001-6.388c0.596,0.608,0.908,1.466,0.908,2.497l0,1
		l1,0l1.176,0l1,0v-1c0-2.116-0.778-3.888-2.249-5.124c-0.524-0.44-1.139-0.797-1.833-1.067l0-1.522v-1l-1,0l-1.175,0
		L-767.232-623.278L-767.232-623.278z M-769.422-613.559c-0.634-0.617-0.928-1.271-0.927-2.022c0-0.859,0.428-1.426,0.928-1.796
		L-769.422-613.559L-769.422-613.559z M-764.063-601.393l0.001-5.56c0.823,0.688,1.239,1.578,1.238,3.117
		C-762.824-602.624-763.4-601.865-764.063-601.393L-764.063-601.393z"/>
</g>
<g>
	<path d="M135.496,66.801c-3.388,0-5.915-0.232-5.94-0.234l-17.12,0.001c-1.556,0-2.821-1.266-2.821-2.822
		c0-1.556,1.266-2.82,2.821-2.82h13.918c-0.207-0.467-0.396-0.924-0.567-1.365h-20.703c-1.557,0-2.822-1.266-2.822-2.821
		s1.266-2.821,2.822-2.821h19.46c-0.03-0.438-0.055-0.892-0.071-1.363h-22.308c-1.557,0-2.822-1.267-2.822-2.823
		c0-1.556,1.266-2.822,2.822-2.822h22.337c0.015-0.466,0.032-0.923,0.053-1.366H105.6c-1.558,0-2.824-1.266-2.824-2.822
		c0-1.557,1.267-2.823,2.824-2.823h32.052c0.132,0,0.143-0.21,0.143-0.274c0-0.225-0.117-0.477-0.273-0.477h-10.234
		c-3.156,0-5.11-2.001-5.11-3.856c0-0.768,0.339-1.458,0.953-1.943c0.661-0.521,1.631-0.797,2.805-0.797h16.379
		c4.983,0,12.07,7.445,13.106,9.724c1.822,4.006,3.107,14.359-2.177,20.138c-1.929,2.11-5.713,3.479-11.247,4.069
		c-0.2,0.055-0.428,0.086-0.647,0.086H141.1C139.382,66.722,137.486,66.801,135.496,66.801z"/>
	<path fill="#FFFFFF" d="M142.312,32.884c4.714,0,11.744,7.199,12.804,9.528c1.708,3.756,3.135,14.029-2.12,19.775
		c-2.187,2.392-6.615,3.491-11.036,3.963c-0.198,0.051-0.399,0.084-0.612,0.084H141.1c-1.965,0.175-3.898,0.233-5.604,0.233
		c-3.411,0-5.909-0.233-5.909-0.233h-17.151c-1.375,0-2.488-1.114-2.488-2.489s1.113-2.487,2.488-2.487h14.434
		c-0.3-0.651-0.591-1.334-0.854-2.031h-20.933c-1.375,0-2.489-1.113-2.489-2.488c0-1.376,1.114-2.488,2.489-2.488h19.819
		c-0.051-0.638-0.088-1.315-0.107-2.029h-22.631c-1.375,0-2.489-1.115-2.489-2.49c0-1.374,1.114-2.489,2.489-2.489h22.659
		c0.021-0.701,0.048-1.383,0.079-2.032H105.6c-1.375,0-2.491-1.114-2.491-2.489c0-1.375,1.116-2.49,2.491-2.49h19.612h12.439
		c0.722,0,0.576-1.417-0.131-1.417s-4.881,0-10.234,0c-5.353,0-6.76-5.931-1.353-5.931C131.34,32.884,137.601,32.884,142.312,32.884
		 M142.312,32.218h-16.379c-1.268,0-2.28,0.292-3.011,0.869c-0.696,0.549-1.08,1.332-1.08,2.205c0,2.015,2.081,4.189,5.443,4.189
		h10.147c0.01,0.024,0.018,0.055,0.022,0.085h-12.244H105.6c-1.741,0-3.157,1.416-3.157,3.156c0,1.74,1.416,3.155,3.157,3.155
		h18.606c-0.01,0.23-0.019,0.463-0.027,0.7h-22.015c-1.74,0-3.155,1.415-3.155,3.155c0,1.74,1.415,3.156,3.155,3.156h21.987
		c0.011,0.234,0.022,0.467,0.036,0.697h-19.104c-1.74,0-3.155,1.415-3.155,3.154s1.415,3.154,3.155,3.154h20.476
		c0.091,0.229,0.187,0.463,0.287,0.699h-13.41c-1.739,0-3.154,1.414-3.154,3.153c0,1.74,1.415,3.155,3.154,3.155h17.121
		c0.313,0.028,2.702,0.233,5.939,0.233c1.988,0,3.884-0.078,5.633-0.233h0.219c0.233,0,0.472-0.03,0.729-0.093
		c5.592-0.602,9.432-2.005,11.412-4.171c5.388-5.892,4.087-16.427,2.234-20.5C154.666,39.812,147.419,32.218,142.312,32.218
		L142.312,32.218z"/>
</g>
<g>
	<path d="M127.497,42.835c-0.627,0.102-1.259,0.153-1.886,0.153c-4.426,0-7.886-2.509-9.027-6.547l-0.131-0.462l2.664-0.755
		l0.131,0.462c0.798,2.821,3.179,4.504,6.371,4.504c0.367,0,0.738-0.023,1.109-0.07l-4.06-14.347
		c-4.207-0.699-8.599-2.078-9.899-6.675c-1.257-4.446,1.817-7.959,5.333-9.465l-0.837-2.957l2.663-0.752l0.844,2.978
		c0.59-0.093,1.177-0.141,1.753-0.141c1.371,0,2.648,0.261,3.798,0.776c2.403,1.083,4.095,3.145,4.892,5.965l0.131,0.461
		l-2.663,0.754l-0.131-0.462c-0.567-2.006-1.73-3.456-3.365-4.192c-0.798-0.358-1.699-0.54-2.679-0.54
		c-0.32,0-0.646,0.02-0.977,0.059l3.315,11.721l0.617,0.084c0.386,0.052,0.765,0.103,1.129,0.159
		c4.026,0.598,7.978,1.944,9.604,7.697c1.474,5.198-2.029,9.198-6.037,10.84l0.864,3.046l-2.664,0.752L127.497,42.835z
		 M129.4,39.395c2.655-1.175,5.174-3.722,4.134-7.396c-1.153-4.077-3.381-5.123-7.352-5.713c-0.169-0.025-0.34-0.05-0.514-0.075
		L129.4,39.395z M118.867,12.333c-2.191,1.027-4.251,3.123-3.434,6.01c0.804,2.844,3.591,3.896,6.397,4.467L118.867,12.333z"/>
	<path fill="#FFFFFF" d="M119.598,6.516l0.831,2.934c0.704-0.138,1.406-0.208,2.097-0.208c1.271,0,2.497,0.239,3.602,0.734
		c2.268,1.021,3.869,2.979,4.626,5.658l-1.739,0.492c-0.607-2.148-1.864-3.703-3.63-4.499c-0.875-0.393-1.854-0.583-2.876-0.583
		c-0.521,0-1.053,0.049-1.587,0.146l3.55,12.547c0.25,0.034,0.5,0.067,0.748,0.103c0.445,0.06,0.883,0.118,1.302,0.182
		c4.471,0.664,7.749,2.171,9.214,7.353c1.406,4.962-1.928,8.872-6.156,10.42l0.853,3.004l-1.74,0.491l-0.85-3.005
		c-0.735,0.147-1.484,0.223-2.229,0.223c-3.729,0-7.349-1.895-8.565-6.198l1.74-0.493c0.957,3.384,3.837,4.854,6.833,4.854
		c0.572,0,1.15-0.054,1.719-0.158l-4.29-15.163c-3.997-0.636-8.54-1.872-9.816-6.381c-1.19-4.212,1.802-7.661,5.45-9.051
		l-0.823-2.909L119.598,6.516 M122.504,23.427l-3.324-11.751c-2.862,1.13-5.096,3.664-4.208,6.799
		C115.892,21.729,119.1,22.823,122.504,23.427 M129.085,40.042c3.284-1.243,6.044-4.173,4.911-8.175
		c-1.218-4.306-3.661-5.451-7.743-6.058c-0.401-0.059-0.819-0.119-1.247-0.178L129.085,40.042 M120.26,5.332l-0.923,0.261
		l-1.739,0.491l-0.925,0.261l0.262,0.924l0.593,2.097c-3.539,1.675-6.51,5.301-5.22,9.863c1.347,4.757,5.932,6.259,9.982,6.967
		l3.819,13.5c-0.164,0.01-0.328,0.015-0.49,0.015c-2.965,0-5.174-1.553-5.909-4.155l-0.262-0.924l-0.924,0.262l-1.74,0.493
		l-0.923,0.262l0.261,0.923c1.203,4.254,4.839,6.897,9.489,6.897c0.511,0,1.025-0.033,1.538-0.098l0.617,2.181l0.261,0.923
		l0.924-0.261l1.74-0.491l0.926-0.261l-0.263-0.925l-0.618-2.178c4.032-1.818,7.427-5.934,5.922-11.246
		c-1.7-6.015-5.81-7.419-9.997-8.041c-0.363-0.056-0.744-0.107-1.133-0.159l-0.182-0.024l-0.123-0.017l-3.072-10.858
		c0.12-0.006,0.238-0.009,0.356-0.009c0.911,0,1.746,0.167,2.482,0.499c1.5,0.676,2.572,2.019,3.1,3.884l0.262,0.924l0.924-0.262
		l1.739-0.492l0.923-0.261l-0.261-0.924c-0.837-2.96-2.619-5.129-5.155-6.272c-1.213-0.543-2.557-0.819-3.996-0.819
		c-0.463,0-0.933,0.029-1.405,0.087l-0.599-2.113L120.26,5.332L120.26,5.332z M121.149,22.165c-3.134-0.764-4.69-1.958-5.254-3.952
		c-0.673-2.377,0.859-4.174,2.669-5.186L121.149,22.165L121.149,22.165z M129.707,38.715l-3.375-11.921
		c3.706,0.576,5.673,1.562,6.74,5.335C133.963,35.275,131.983,37.536,129.707,38.715L129.707,38.715z"/>
</g>
<g>
	
		<rect x="39.018" y="27.684" transform="matrix(-0.9926 -0.1214 0.1214 -0.9926 113.3761 121.355)" fill="#020202" width="42.736" height="59.077"/>
	<polyline fill="none" stroke="#020202" stroke-width="1.257" stroke-miterlimit="10" points="40.15,28.117 33.059,86.095 
		73.451,91.034 77.586,88.613 	"/>
</g>
<path stroke="#FFFFFF" stroke-width="0.9602" stroke-miterlimit="10" d="M36.371,45.984c-4.615,0.81-4.852,0.853-8.716,1.532
	c-4.641,0.815-10.319,9.122-10.96,11.6c-0.936,3.62,3.426,17.583,3.426,17.583s1.504,1.081,2.084,1.527
	c2.57,1.977,7.121,2.294,11.557,1.992c0.203,0.015,0.408,0.015,0.617-0.022l0.244-0.043c5.895-0.504,11.34-1.993,11.34-1.993
	l16.893-2.969c1.354-0.239,2.258-1.529,2.021-2.884c-0.238-1.353-1.528-2.256-2.883-2.018l-14.216,2.499
	c0.184-0.694,0.352-1.418,0.488-2.149l20.617-3.624c1.354-0.237,2.26-1.527,2.021-2.882c-0.238-1.355-1.528-2.256-2.883-2.019
	l-19.519,3.432c-0.062-0.639-0.144-1.312-0.247-2.018l22.289-3.919c1.354-0.238,2.259-1.528,2.021-2.883
	c-0.238-1.354-1.529-2.259-2.883-2.021l-22.317,3.923c-0.142-0.687-0.286-1.353-0.428-1.987L65.949,53.3
	c1.354-0.237,2.26-1.527,2.021-2.883c-0.237-1.354-1.528-2.257-2.883-2.021L45.77,51.793l-10.959,1.926
	c-0.709,0.124-0.812-1.296-0.115-1.418c0.551-0.097,0.949-0.167,0.949-0.167"/>
<g>
	<path d="M142.154,32.884c-4.712,0-10.971,0-16.378,0s-3.999,5.931,1.352,5.931c5.353,0,9.528,0,10.235,0"/>
</g>
<ellipse stroke="#E6E6E6" stroke-width="2" stroke-miterlimit="10" cx="-436.491" cy="-704.816" rx="26.75" ry="15.25"/>
<g>
	<polygon points="-638.531,-721.962 -595.318,-734.72 -564.863,-719.494 -607.253,-703.031 	"/>
	<g>
		<polygon points="-640.987,-728.041 -595.223,-741.552 -562.397,-725.138 -607.35,-707.681 		"/>
		<g>
			<path fill="#E6E6E6" d="M-595.318-740.482l30.455,15.229l-42.391,16.463l-31.277-18.932L-595.318-740.482 M-595.128-742.623
				l-0.756,0.223l-43.213,12.76l-4.345,1.283l3.875,2.346l31.277,18.932l0.843,0.51l0.917-0.357l42.391-16.463l4.209-1.633
				l-4.038-2.02l-30.455-15.229L-595.128-742.623L-595.128-742.623z"/>
		</g>
	</g>
	<polygon points="-607.253,-708.791 -607.253,-703.031 -564.863,-719.494 -564.863,-725.253 	"/>
</g>
<g>
	<polygon points="-638.531,-731.953 -595.318,-744.71 -564.863,-729.484 -607.253,-713.021 	"/>
	<g>
		<polygon points="-640.987,-738.031 -595.223,-751.542 -562.397,-735.128 -607.35,-717.671 		"/>
		<g>
			<path fill="#E6E6E6" d="M-595.318-750.472l30.455,15.229l-42.391,16.463l-31.277-18.932L-595.318-750.472 M-595.128-752.613
				l-0.756,0.223l-43.213,12.76l-4.345,1.283l3.875,2.346l31.277,18.932l0.843,0.51l0.917-0.357l42.391-16.463l4.209-1.633
				l-4.038-2.02l-30.455-15.229L-595.128-752.613L-595.128-752.613z"/>
		</g>
	</g>
	<polygon points="-607.253,-718.781 -607.253,-713.021 -564.863,-729.484 -564.863,-735.244 	"/>
</g>
<g>
	<polygon points="-638.531,-742.853 -595.318,-755.611 -564.863,-740.384 -607.253,-723.921 	"/>
	<g>
		<polygon points="-640.987,-748.931 -595.223,-762.443 -562.397,-746.029 -607.35,-728.572 		"/>
		<g>
			<path fill="#E6E6E6" d="M-595.318-761.373l30.455,15.229l-42.391,16.463l-31.277-18.932L-595.318-761.373 M-595.128-763.513
				l-0.756,0.223l-43.213,12.76l-4.345,1.283l3.875,2.346l31.277,18.932l0.843,0.51l0.917-0.357l42.391-16.463l4.209-1.633
				l-4.038-2.02l-30.455-15.229L-595.128-763.513L-595.128-763.513z"/>
		</g>
	</g>
	<polygon points="-607.253,-729.681 -607.253,-723.921 -564.863,-740.384 -564.863,-746.144 	"/>
</g>
<polygon points="-239.597,-728.521 -196.384,-741.279 -165.929,-726.052 -208.319,-709.589 "/>
<g>
	<polygon points="-242.053,-734.599 -196.289,-748.111 -163.463,-731.698 -208.416,-714.24 	"/>
	<g>
		<path fill="#E6E6E6" d="M-196.384-747.041l30.455,15.228l-42.391,16.463l-31.277-18.932L-196.384-747.041 M-196.194-749.182
			l-0.756,0.224l-43.213,12.759l-4.346,1.283l3.877,2.346l31.277,18.932l0.842,0.51l0.917-0.356l42.391-16.463l4.209-1.634
			l-4.038-2.02l-30.455-15.228L-196.194-749.182L-196.194-749.182z"/>
	</g>
</g>
<polygon points="-208.319,-715.35 -208.319,-709.589 -165.929,-726.052 -165.929,-731.813 "/>
<polygon points="-239.597,-740.771 -196.384,-753.529 -165.929,-738.302 -208.319,-721.839 "/>
<g>
	<polygon points="-242.053,-746.849 -196.289,-760.361 -163.463,-743.948 -208.416,-726.49 	"/>
	<g>
		<path fill="#E6E6E6" d="M-196.384-759.291l30.455,15.228l-42.391,16.463l-31.277-18.932L-196.384-759.291 M-196.194-761.432
			l-0.756,0.224l-43.213,12.759l-4.346,1.283l3.877,2.346l31.277,18.932l0.842,0.51l0.917-0.356l42.391-16.463l4.209-1.634
			l-4.038-2.02l-30.455-15.228L-196.194-761.432L-196.194-761.432z"/>
	</g>
</g>
<polygon points="-208.319,-727.6 -208.319,-721.839 -165.929,-738.302 -165.929,-744.063 "/>
<polygon points="-240.097,-754.021 -196.884,-766.779 -166.429,-751.552 -208.819,-735.089 "/>
<g>
	<polygon points="-242.553,-760.099 -196.789,-773.611 -163.963,-757.198 -208.916,-739.74 	"/>
	<g>
		<path fill="#E6E6E6" d="M-196.884-772.541l30.455,15.228l-42.391,16.463l-31.277-18.932L-196.884-772.541 M-196.694-774.682
			l-0.756,0.224l-43.213,12.759l-4.346,1.283l3.877,2.346l31.277,18.932l0.842,0.51l0.917-0.356l42.391-16.463l4.209-1.634
			l-4.038-2.02l-30.455-15.228L-196.694-774.682L-196.694-774.682z"/>
	</g>
</g>
<polygon points="-208.819,-740.85 -208.819,-735.089 -166.429,-751.552 -166.429,-757.313 "/>
<g>
	<path d="M-202.514-785.47c-3.536-0.141-7.525-2.002-8.588-6.875l-0.154-0.707l3.074-0.672l0.154,0.707
		c0.521,2.389,2.29,3.958,4.812,4.326l-2.951-13.515c-2.902-0.827-6.609-2.442-7.526-6.631c-0.717-3.294,0.952-6.48,4.273-8.255
		l-0.694-3.18l3.073-0.673l0.608,2.793c0.006-0.001,0.013-0.002,0.019-0.003l-0.611-2.793l3.075-0.672l0.731,3.354
		c1.173,0.127,2.24,0.439,3.181,0.93c2.268,1.192,3.786,3.288,4.393,6.061l0.155,0.708l-3.074,0.668l-0.154-0.705
		c-0.402-1.836-1.363-3.199-2.779-3.942c-0.311-0.162-0.644-0.295-0.996-0.398l2.374,10.868c3.633,0.84,7.074,2.463,8.253,7.857
		c0.82,3.758-0.902,7.266-4.509,9.274l0.715,3.282l-3.072,0.671l-0.61-2.791c-0.006,0.001-0.012,0.003-0.017,0.004l0.61,2.792
		l-3.073,0.671L-202.514-785.47z M-200.033-788.855c0.006-0.001,0.013-0.003,0.019-0.005l-2.743-12.556
		c-0.007-0.001-0.013-0.002-0.02-0.004L-200.033-788.855z M-197.089-790.206c1.221-0.9,2.742-2.614,2.147-5.342
		c-0.674-3.081-2.097-4.301-4.419-5.056L-197.089-790.206z M-203.491-804.778l-2.251-10.302c-0.006,0.001-0.013,0.002-0.02,0.003
		l2.249,10.293C-203.506-804.781-203.499-804.779-203.491-804.778z M-208.711-813.849c-1.564,1.106-2.271,2.678-1.907,4.341
		c0.368,1.685,1.517,2.865,3.671,3.735L-208.711-813.849z"/>
	<path fill="#FFFFFF" d="M-204.503-820.758l0.691,3.169c1.229,0.071,2.406,0.355,3.438,0.895c2.071,1.089,3.462,3.017,4.021,5.574
		l-1.661,0.361c-0.449-2.051-1.538-3.582-3.149-4.428c-0.689-0.359-1.462-0.587-2.274-0.686l2.709,12.401
		c4.117,0.881,7.079,2.489,8.154,7.406c0.88,4.035-1.423,7.15-4.627,8.736l0.679,3.113l-1.66,0.362l-0.62-2.835
		c-0.319,0.1-0.641,0.19-0.967,0.262c-0.15,0.032-0.304,0.056-0.456,0.081l0.613,2.806l-1.66,0.362l-0.658-3.008
		c-0.049,0-0.098,0.001-0.146,0.001c-3.729,0-7.369-1.958-8.319-6.315l1.661-0.363c0.729,3.343,3.512,4.894,6.434,4.975
		l-3.253-14.897c-3.303-0.885-6.61-2.444-7.434-6.205c-0.77-3.536,1.462-6.337,4.394-7.705l-0.66-3.023l1.66-0.363l0.611,2.804
		c0.154-0.042,0.309-0.086,0.465-0.12c0.328-0.071,0.653-0.095,0.979-0.133l-0.626-2.863L-204.503-820.758 M-202.547-803.842
		l-2.628-12.03c-0.326,0.032-0.651,0.062-0.979,0.135c-0.157,0.034-0.307,0.092-0.463,0.135l2.496,11.426
		C-203.596-804.057-203.07-803.948-202.547-803.842 M-205.965-804.663l-2.255-10.326c-2.142,1.104-3.658,3.104-3.104,5.635
		C-210.75-806.723-208.547-805.455-205.965-804.663 M-200.588-788.006c0.152-0.025,0.306-0.049,0.456-0.082
		c0.326-0.071,0.646-0.164,0.967-0.27l-2.987-13.675c-0.064-0.012-0.129-0.024-0.195-0.038c-0.441-0.088-0.904-0.182-1.374-0.282
		L-200.588-788.006 M-197.574-789.04c2.337-1.279,4.014-3.57,3.34-6.662c-0.83-3.793-2.809-5.112-6.09-5.925L-197.574-789.04
		 M-203.398-822.48l-1.413,0.31l-1.661,0.363l-0.017,0.003l0,0l-1.414,0.31l-1.66,0.363l-1.412,0.309l0.309,1.413l0.427,1.953
		c-3.295,1.975-4.913,5.315-4.16,8.774c0.955,4.362,4.604,6.135,7.618,7.051l2.611,11.959c-1.263-0.427-2.688-1.38-3.15-3.498
		l-0.309-1.414l-1.413,0.31l-1.661,0.363l-1.412,0.309l0.308,1.412c0.918,4.208,4.282,7.032,8.706,7.41l0.418,1.913l0.31,1.412
		l1.412-0.308l1.66-0.362l1.413-0.309v-0.001l0.017-0.003l1.66-0.362l1.412-0.308l-0.308-1.413l-0.449-2.062
		c3.578-2.205,5.252-5.867,4.397-9.787c-1.216-5.559-4.792-7.401-8.35-8.3l-1.972-9.026c1.028,0.674,1.736,1.789,2.056,3.25
		l0.31,1.411l1.411-0.307l1.661-0.361l1.415-0.308l-0.31-1.415c-0.654-2.988-2.301-5.251-4.762-6.545
		c-0.881-0.46-1.859-0.775-2.921-0.941l-0.469-2.15L-203.398-822.48L-203.398-822.48z M-207.976-807.092
		c-1.086-0.676-1.704-1.51-1.936-2.57c-0.266-1.214,0.164-2.148,0.757-2.826L-207.976-807.092L-207.976-807.092z M-196.645-791.56
		l-1.716-7.855c1.374,0.717,2.237,1.847,2.713,4.022C-195.274-793.681-195.854-792.431-196.645-791.56L-196.645-791.56z"/>
</g>
<g>
	<path d="M-326.164-791.469c-3.536-0.141-7.525-2.002-8.588-6.875l-0.154-0.707l3.074-0.672l0.154,0.707
		c0.521,2.389,2.29,3.958,4.812,4.326l-2.951-13.515c-2.902-0.827-6.609-2.442-7.526-6.631c-0.717-3.294,0.952-6.48,4.273-8.255
		l-0.694-3.18l3.073-0.673l0.608,2.793c0.006-0.001,0.013-0.002,0.019-0.003l-0.611-2.793l3.075-0.672l0.731,3.354
		c1.173,0.127,2.24,0.439,3.181,0.93c2.268,1.192,3.786,3.288,4.393,6.061l0.155,0.708l-3.074,0.668l-0.154-0.705
		c-0.402-1.836-1.363-3.199-2.779-3.942c-0.311-0.162-0.644-0.295-0.996-0.398l2.374,10.868c3.633,0.84,7.074,2.463,8.253,7.857
		c0.82,3.758-0.902,7.266-4.509,9.274l0.715,3.282l-3.072,0.671l-0.61-2.791c-0.006,0.001-0.012,0.003-0.017,0.004l0.61,2.792
		l-3.073,0.671L-326.164-791.469z M-323.684-794.854c0.006-0.001,0.013-0.003,0.019-0.005l-2.743-12.556
		c-0.007-0.001-0.013-0.002-0.02-0.004L-323.684-794.854z M-320.739-796.205c1.221-0.9,2.742-2.614,2.147-5.342
		c-0.674-3.081-2.097-4.301-4.419-5.056L-320.739-796.205z M-327.142-810.777l-2.251-10.302c-0.006,0.001-0.013,0.002-0.02,0.003
		l2.249,10.293C-327.156-810.78-327.149-810.778-327.142-810.777z M-332.361-819.848c-1.564,1.106-2.271,2.678-1.907,4.341
		c0.368,1.685,1.517,2.865,3.671,3.735L-332.361-819.848z"/>
	<path fill="#FFFFFF" d="M-328.153-826.757l0.691,3.169c1.229,0.071,2.406,0.355,3.438,0.895c2.071,1.089,3.462,3.017,4.021,5.574
		l-1.661,0.361c-0.449-2.051-1.538-3.582-3.149-4.428c-0.689-0.359-1.462-0.587-2.274-0.686l2.709,12.401
		c4.117,0.881,7.079,2.489,8.154,7.406c0.88,4.035-1.423,7.15-4.627,8.736l0.679,3.113l-1.66,0.362l-0.62-2.835
		c-0.319,0.1-0.641,0.19-0.967,0.262c-0.15,0.032-0.304,0.056-0.456,0.081l0.613,2.806l-1.66,0.362l-0.658-3.008
		c-0.049,0-0.098,0.001-0.146,0.001c-3.729,0-7.369-1.958-8.319-6.315l1.661-0.363c0.729,3.343,3.512,4.894,6.434,4.975
		l-3.253-14.897c-3.303-0.885-6.61-2.444-7.434-6.205c-0.77-3.536,1.462-6.337,4.394-7.705l-0.66-3.023l1.66-0.363l0.611,2.804
		c0.154-0.042,0.309-0.086,0.465-0.12c0.328-0.071,0.653-0.095,0.979-0.133l-0.626-2.863L-328.153-826.757 M-326.197-809.841
		l-2.628-12.03c-0.326,0.032-0.651,0.062-0.979,0.135c-0.157,0.034-0.307,0.092-0.463,0.135l2.496,11.426
		C-327.246-810.056-326.721-809.947-326.197-809.841 M-329.615-810.662l-2.255-10.326c-2.142,1.104-3.658,3.104-3.104,5.635
		C-334.4-812.722-332.197-811.454-329.615-810.662 M-324.238-794.005c0.152-0.025,0.306-0.049,0.456-0.082
		c0.326-0.071,0.646-0.164,0.967-0.27l-2.987-13.675c-0.064-0.012-0.129-0.024-0.195-0.038c-0.441-0.088-0.904-0.182-1.374-0.282
		L-324.238-794.005 M-321.225-795.039c2.337-1.279,4.014-3.57,3.34-6.662c-0.83-3.793-2.809-5.112-6.09-5.925L-321.225-795.039
		 M-327.049-828.479l-1.413,0.31l-1.661,0.363l-0.017,0.003l0,0l-1.414,0.31l-1.66,0.363l-1.412,0.309l0.309,1.413l0.427,1.953
		c-3.295,1.975-4.913,5.315-4.16,8.774c0.955,4.362,4.604,6.135,7.618,7.051l2.611,11.959c-1.263-0.427-2.688-1.38-3.15-3.498
		l-0.309-1.414l-1.413,0.31l-1.661,0.363l-1.412,0.309l0.308,1.412c0.918,4.208,4.282,7.032,8.706,7.41l0.418,1.913l0.31,1.412
		l1.412-0.308l1.66-0.362l1.413-0.309v-0.001l0.017-0.003l1.66-0.362l1.412-0.308l-0.308-1.413l-0.449-2.062
		c3.578-2.205,5.252-5.867,4.397-9.787c-1.216-5.559-4.792-7.401-8.35-8.3l-1.972-9.026c1.028,0.674,1.736,1.789,2.056,3.25
		l0.31,1.411l1.411-0.307l1.661-0.361l1.415-0.308l-0.31-1.415c-0.654-2.988-2.301-5.251-4.762-6.545
		c-0.881-0.46-1.859-0.775-2.921-0.941l-0.469-2.15L-327.049-828.479L-327.049-828.479z M-331.626-813.091
		c-1.086-0.676-1.704-1.51-1.936-2.57c-0.266-1.214,0.164-2.148,0.757-2.826L-331.626-813.091L-331.626-813.091z M-320.295-797.559
		l-1.716-7.855c1.374,0.717,2.237,1.847,2.713,4.022C-318.925-799.68-319.504-798.43-320.295-797.559L-320.295-797.559z"/>
</g>
<g>
	<polygon points="-606.564,-802.586 -552.725,-807.201 -559.65,-823.389 -607.211,-820.496 	"/>
	<polygon points="-606.564,-797.385 -552.725,-802 -559.65,-818.188 -607.211,-815.295 	"/>
	<polygon fill="#E6E6E6" points="-553.166,-807.201 -553.166,-802.505 -605.98,-798.331 -606.345,-802.766 	"/>
</g>
<g>
	<polygon points="-349.229,-765.299 -349.229,-770.857 -345.636,-769.741 -346.036,-763.997 	"/>
	<g>
		<polygon points="-345.326,-752.469 -290.993,-756.647 -298.395,-773.95 -349.229,-770.857 		"/>
		<polygon points="-345.326,-746.91 -290.993,-751.089 -298.395,-768.39 -349.229,-765.299 		"/>
		<polygon fill="#E6E6E6" points="-291.464,-756.647 -291.464,-751.628 -344.701,-747.92 -345.092,-752.661 		"/>
	</g>
	<polygon fill="#E6E6E6" points="-349.012,-769.891 -348.977,-765.511 -344.769,-747.92 -345.092,-752.661 	"/>
</g>
<g>
	<polygon points="-289.032,-770.88 -294.824,-768.727 -294.824,-768.727 -289.032,-770.88 -312.49,-783.64 -347.433,-772.388 
		-340.585,-768.777 -346.84,-766.761 -321.016,-753.14 -288.44,-765.254 	"/>
	<polygon fill="#E6E6E6" points="-346.84,-772.017 -346.84,-767.131 -321.021,-753.585 -321.078,-758.47 	"/>
</g>
</svg>
