<?xml version="1.0" encoding="utf-8"?>
<!-- Generator: Adobe Illustrator 15.1.0, SVG Export Plug-In . SVG Version: 6.00 Build 0)  -->
<!DOCTYPE svg PUBLIC "-//W3C//DTD SVG 1.1//EN" "http://www.w3.org/Graphics/SVG/1.1/DTD/svg11.dtd">
<svg version="1.1" id="Layer_1" xmlns="http://www.w3.org/2000/svg" xmlns:xlink="http://www.w3.org/1999/xlink" x="0px" y="0px"
	 width="173px" height="100px" viewBox="0 0 173 100" enable-background="new 0 0 173 100" xml:space="preserve">
<g>
	<g>
		<path fill-rule="evenodd" clip-rule="evenodd" d="M128.261,25.949c-6.337-4.013-10.533-10.445-12.892-18.963
			C122.441,8.957,128.479,15.723,128.261,25.949z"/>
		<path fill-rule="evenodd" clip-rule="evenodd" d="M137.473,16.466c1.912,7.256,0.607,14.826-3.46,22.67
			C130.173,32.883,130.354,23.813,137.473,16.466z"/>
		<path fill-rule="evenodd" clip-rule="evenodd" d="M130.964,42.747c-6.589-3.586-11.2-9.732-14.113-18.077
			C124.038,26.174,130.505,32.528,130.964,42.747z"/>
		<path fill-rule="evenodd" clip-rule="evenodd" d="M145.986,37.448c-2.365,7.119-7.599,12.743-15.297,17.083
			C130.897,47.193,136.01,39.703,145.986,37.448z"/>
		<path fill-rule="evenodd" clip-rule="evenodd" d="M125.025,62.217c-3.751-6.495-4.481-14.146-2.613-22.783
			C127.759,44.464,129.967,53.26,125.025,62.217z"/>
		<path fill-rule="evenodd" clip-rule="evenodd" d="M146.519,56.88c-5.505,5.091-12.805,7.491-21.641,7.579
			C128.6,58.135,136.691,54.04,146.519,56.88z"/>
		<path fill-rule="evenodd" clip-rule="evenodd" d="M137.81,69.783c-6.116,4.338-13.667,5.774-22.44,4.72
			C119.878,68.712,128.432,65.697,137.81,69.783z"/>
		<path fill-rule="evenodd" clip-rule="evenodd" d="M112.86,74.206c-1.55-7.338,0.126-14.836,4.585-22.469
			C120.966,58.178,120.332,67.226,112.86,74.206z"/>
		<path fill-rule="evenodd" clip-rule="evenodd" d="M124.586,81.48c-7.039,2.594-14.7,2.012-22.894-1.296
			C107.557,75.77,116.6,75.09,124.586,81.48z"/>
		<path fill-rule="evenodd" clip-rule="evenodd" d="M98.731,89.384c-3.064-1.632-5.972-3.928-8.732-6.835
			c6.504-1.437,14.223,1.41,18.409,9.691C105.017,91.985,101.794,91.017,98.731,89.384"/>
		<path fill-rule="evenodd" clip-rule="evenodd" d="M98.998,79.296c0.011-7.502,3.212-14.485,9.161-21.027
			C110.266,65.303,107.761,74.02,98.998,79.296z"/>
		<path fill-rule="evenodd" clip-rule="evenodd" d="M44.738,26.02c6.336-4.014,10.533-10.447,12.892-18.964
			C50.559,9.026,44.521,15.795,44.738,26.02z"/>
		<path fill-rule="evenodd" clip-rule="evenodd" d="M35.53,16.538c-1.914,7.252-0.61,14.824,3.458,22.669
			C42.828,32.951,42.648,23.883,35.53,16.538z"/>
		<path fill-rule="evenodd" clip-rule="evenodd" d="M42.036,42.815c6.588-3.586,11.202-9.729,14.112-18.073
			C48.964,26.241,42.495,32.597,42.036,42.815z"/>
		<path fill-rule="evenodd" clip-rule="evenodd" d="M27.013,37.517c2.365,7.117,7.602,12.742,15.3,17.085
			C42.103,47.264,36.992,39.772,27.013,37.517z"/>
		<path fill-rule="evenodd" clip-rule="evenodd" d="M47.976,62.287c3.749-6.498,4.48-14.146,2.613-22.785
			C45.241,44.531,43.036,53.329,47.976,62.287z"/>
		<path fill-rule="evenodd" clip-rule="evenodd" d="M26.481,56.949c5.505,5.093,12.808,7.492,21.643,7.578
			C44.402,58.202,36.307,54.108,26.481,56.949z"/>
		<path fill-rule="evenodd" clip-rule="evenodd" d="M35.189,69.854c6.117,4.337,13.667,5.771,22.441,4.719
			C53.122,68.779,44.568,65.767,35.189,69.854z"/>
		<path fill-rule="evenodd" clip-rule="evenodd" d="M60.139,74.277c1.552-7.341-0.126-14.835-4.583-22.472
			C52.032,58.247,52.667,67.295,60.139,74.277z"/>
		<path fill-rule="evenodd" clip-rule="evenodd" d="M48.415,81.551c7.036,2.591,14.7,2.009,22.894-1.295
			C65.446,75.837,56.401,75.16,48.415,81.551z"/>
		<path fill-rule="evenodd" clip-rule="evenodd" d="M63.388,93.015c6.759-0.77,12.732-4.363,18.027-10.384
			C74.86,81.44,67.255,84.579,63.388,93.015z"/>
		<path fill-rule="evenodd" clip-rule="evenodd" d="M74.002,79.363c-0.013-7.501-3.213-14.482-9.162-21.024
			C62.734,65.37,65.237,74.09,74.002,79.363z"/>
		<path fill-rule="evenodd" clip-rule="evenodd" d="M81.597,80.008c0.926-5.416-0.78-10.06-4.753-14.041
			C74.272,71.31,75.199,77.291,81.597,80.008z"/>
		<path fill-rule="evenodd" clip-rule="evenodd" d="M90.377,79.939c-0.925-5.417,0.781-10.061,4.753-14.042
			C97.703,71.238,96.775,77.222,90.377,79.939z"/>
	</g>
	<g>
		<path d="M106.153,39.985c0,6.652-0.739,11.491-4.166,15.389c-3.36,3.829-8.802,5.979-15.589,5.979s-12.162-2.15-15.521-5.979
			c-3.427-3.965-4.166-8.736-4.166-15.389V12.772h11.221v25.937c0,9.071,1.68,13.237,8.466,13.237c6.719,0,8.534-4.166,8.534-13.237
			V12.772h11.221V39.985z"/>
	</g>
</g>
</svg>
