<?xml version="1.0" encoding="utf-8"?>
<!-- Generator: Adobe Illustrator 15.1.0, SVG Export Plug-In . SVG Version: 6.00 Build 0)  -->
<!DOCTYPE svg PUBLIC "-//W3C//DTD SVG 1.1//EN" "http://www.w3.org/Graphics/SVG/1.1/DTD/svg11.dtd">
<svg version="1.1" id="Layer_1" xmlns="http://www.w3.org/2000/svg" xmlns:xlink="http://www.w3.org/1999/xlink" x="0px" y="0px"
	 width="173px" height="100px" viewBox="0 0 173 100" enable-background="new 0 0 173 100" xml:space="preserve">
<g>
	<polygon points="-364.106,-751.163 -315.848,-765.411 -281.838,-748.407 -329.178,-730.022 	"/>
	<g>
		<polygon points="-366.849,-757.951 -315.742,-773.041 -279.084,-754.709 -329.286,-735.213 		"/>
		<g>
			<path fill="#E6E6E6" d="M-315.848-771.845l34.01,17.007l-47.34,18.385l-34.929-21.143L-315.848-771.845 M-315.636-774.237
				l-0.845,0.25l-48.259,14.249l-4.853,1.436l4.329,2.62l34.929,21.143l0.94,0.568l1.024-0.397l47.34-18.385l4.699-1.825
				l-4.509-2.255l-34.01-17.007L-315.636-774.237L-315.636-774.237z"/>
		</g>
	</g>
	<polygon points="-329.178,-736.454 -329.178,-730.022 -281.838,-748.407 -281.838,-754.838 	"/>
</g>
<g>
	<g>
		<path d="M-825.042-607.705c0,1.094-0.887,1.98-1.98,1.98l0,0c-1.094,0-1.98-0.887-1.98-1.98v-25.676c0-1.094,0.887-1.98,1.98-1.98
			l0,0c1.094,0,1.98,0.887,1.98,1.98V-607.705z"/>
	</g>
	<g>
		<path d="M-819.468-605.382c0,1.094-0.887,1.979-1.98,1.979l0,0c-1.094,0-1.979-0.887-1.979-1.979v-25.676
			c0-1.094,0.885-1.98,1.979-1.98l0,0c1.094,0,1.98,0.887,1.98,1.98V-605.382z"/>
	</g>
	<g>
		<path d="M-813.893-602.207c0,1.094-0.887,1.98-1.98,1.98l0,0c-1.095,0-1.979-0.887-1.979-1.98v-23.002
			c0-1.094,0.885-1.98,1.979-1.98l0,0c1.094,0,1.98,0.887,1.98,1.98V-602.207z"/>
	</g>
	<g>
		<path d="M-830.619-604.973c0,1.094-0.887,1.98-1.98,1.98l0,0c-1.094,0-1.98-0.887-1.98-1.98v-25.675c0-1.094,0.887-1.98,1.98-1.98
			l0,0c1.094,0,1.98,0.887,1.98,1.98V-604.973z"/>
	</g>
	<path d="M-835.707-613.394c0,4.259,0,7.58,0,8.143s1.127,0.678,1.127,0.104s0-9.896,0-9.896s9.433-0.794,13.012-0.001
		c3.58,0.793,7.676,3.48,7.676,3.48s1.35,14.444-3.221,18.625c-4.57,4.18-12.744,3.045-15.732,1.686
		c-1.854-0.843-7.58-6.437-7.58-10.186s0-8.729,0-13.031C-840.425-618.772-835.707-617.652-835.707-613.394z"/>
</g>
<g>
	<g>
		<g>
			<path d="M-789.205-597.921c-2.844,0-5.943-1.618-6.457-5.234l-0.07-0.495l2.154-0.307l0.07,0.495
				c0.353,2.483,2.543,3.364,4.311,3.364c0.271,0,0.543-0.02,0.812-0.058c1.184-0.168,2.284-0.67,3.018-1.378
				c0.839-0.811,1.179-1.821,1.011-3.005c-0.373-2.625-1.674-3.463-4.103-4.167c-0.26-0.076-0.529-0.151-0.804-0.229
				c-2.707-0.751-6.798-1.888-7.344-5.727c-0.223-1.569,0.267-3.006,1.415-4.154c0.982-0.981,2.403-1.666,3.899-1.878
				c0.355-0.05,0.714-0.076,1.067-0.076c1.273,0,2.474,0.328,3.47,0.947c1.501,0.938,2.441,2.458,2.718,4.402l0.07,0.495
				l-2.154,0.306l-0.07-0.495c-0.182-1.286-0.775-2.272-1.714-2.861c-0.65-0.404-1.451-0.618-2.316-0.618
				c-0.251,0-0.506,0.018-0.764,0.055c-1.022,0.145-1.974,0.577-2.611,1.187c-0.479,0.457-1.017,1.243-0.854,2.386
				c0.345,2.432,3.104,3.197,5.771,3.938c0,0,0.61,0.168,0.83,0.233c2.601,0.753,5.087,1.996,5.648,5.949
				c0.549,3.866-2.541,6.37-5.878,6.845C-788.45-597.948-788.829-597.921-789.205-597.921z"/>
			<path fill="#FFFFFF" d="M-790.224-620.269c1.172,0,2.284,0.299,3.206,0.872c1.373,0.855,2.232,2.256,2.487,4.048l-1.164,0.165
				c-0.204-1.438-0.877-2.549-1.945-3.215c-0.733-0.456-1.628-0.694-2.581-0.694c-0.274,0-0.553,0.02-0.834,0.06
				c-2.182,0.31-4.218,1.83-3.89,4.138c0.391,2.754,3.441,3.603,6.132,4.35c0.282,0.078,0.558,0.153,0.822,0.231
				c2.822,0.817,4.803,2.073,5.295,5.54c0.503,3.542-2.363,5.84-5.453,6.279c-0.35,0.05-0.704,0.074-1.056,0.074
				c-2.768,0-5.497-1.536-5.961-4.805l1.164-0.166c0.367,2.582,2.565,3.794,4.806,3.794c0.295,0,0.59-0.021,0.882-0.062
				c2.435-0.345,4.867-2.042,4.454-4.948c-0.409-2.88-1.883-3.83-4.458-4.577c-0.261-0.076-0.532-0.152-0.809-0.229
				c-2.736-0.76-6.483-1.801-6.982-5.315c-0.431-3.039,2.197-5.085,4.889-5.467C-790.885-620.246-790.552-620.269-790.224-620.269
				 M-790.224-621.269c-0.376,0-0.758,0.027-1.137,0.081c-1.601,0.228-3.125,0.963-4.183,2.02c-1.246,1.245-1.799,2.871-1.557,4.578
				c0.592,4.163,4.873,5.352,7.705,6.139c0.273,0.075,0.54,0.15,0.797,0.226c2.319,0.673,3.41,1.375,3.748,3.758
				c0.145,1.016-0.146,1.882-0.864,2.574c-0.66,0.637-1.659,1.09-2.74,1.243c-0.246,0.035-0.495,0.053-0.742,0.053
				c-1.643,0-3.509-0.771-3.816-2.935l-0.141-0.99l-0.99,0.141l-1.164,0.166l-0.99,0.142l0.141,0.989
				c0.556,3.913,3.892,5.664,6.952,5.664c0.398,0,0.801-0.028,1.197-0.084c3.583-0.51,6.898-3.219,6.303-7.41
				c-0.602-4.234-3.243-5.56-6.007-6.36c-0.218-0.063-0.448-0.128-0.683-0.192l-0.15-0.042c-2.992-0.83-5.132-1.569-5.409-3.526
				c-0.106-0.749,0.13-1.406,0.704-1.954c0.564-0.538,1.416-0.922,2.336-1.053c0.232-0.033,0.465-0.05,0.693-0.05
				c0.771,0,1.481,0.188,2.052,0.543c0.809,0.505,1.322,1.372,1.483,2.507l0.14,0.99l0.99-0.141l1.164-0.165l0.991-0.141
				l-0.141-0.99c-0.298-2.095-1.317-3.739-2.948-4.756C-787.565-620.916-788.856-621.269-790.224-621.269L-790.224-621.269z"/>
		</g>
	</g>
	<g>
		<g>
			
				<rect x="-790.746" y="-622.751" transform="matrix(0.9901 -0.1405 0.1405 0.9901 77.7969 -117.0271)" width="2.175" height="26.865"/>
			<path fill="#FFFFFF" d="M-790.921-622.196l3.637,25.605l-1.164,0.165l-3.637-25.605L-790.921-622.196 M-790.072-623.327
				l-0.99,0.141l-1.164,0.165l-0.99,0.141l0.141,0.99l3.637,25.605l0.141,0.99l0.99-0.141l1.164-0.165l0.99-0.141l-0.141-0.99
				l-3.637-25.605L-790.072-623.327L-790.072-623.327z"/>
		</g>
	</g>
</g>
<g>
	<path d="M-766.739-595.915v-1.976c-0.004,0-0.009,0-0.013,0v1.975h-2.175v-2.231c-2.923-0.755-4.787-3.038-4.786-5.913v-0.5h2.176
		v0.5c0,1.69,0.963,3.012,2.611,3.633l0.002-9.565c-1.838-0.987-4.103-2.625-4.103-5.591c0.001-2.331,1.599-4.236,4.105-4.944
		v-2.251h2.175v1.979c0.004,0,0.009,0,0.013,0.001v-1.979h2.175v2.374c0.776,0.26,1.452,0.629,2.012,1.1
		c1.355,1.138,2.071,2.776,2.071,4.741v0.5h-2.176v-0.5c0.001-1.298-0.447-2.361-1.294-3.073c-0.185-0.155-0.39-0.294-0.613-0.416
		l-0.002,7.689c2.33,1.104,4.414,2.708,4.413,6.526c0,2.661-1.682,4.775-4.416,5.599v2.322L-766.739-595.915L-766.739-595.915z
		 M-766.751-600.067c0.004,0,0.009,0,0.013,0l0.002-8.886c-0.004-0.002-0.008-0.004-0.012-0.005L-766.751-600.067z
		 M-764.563-600.544c0.958-0.427,2.239-1.36,2.24-3.291c0.001-2.181-0.78-3.215-2.238-4.068L-764.563-600.544z M-766.736-611.333
		l0.002-7.29c-0.004,0-0.009,0-0.013-0.001l-0.002,7.285C-766.744-611.337-766.74-611.335-766.736-611.333z M-768.921-618.231
		c-1.219,0.516-1.928,1.473-1.928,2.65c0,1.193,0.6,2.16,1.927,3.064L-768.921-618.231z"/>
	<path fill="#FFFFFF" d="M-766.233-622.277h1.175v2.243c0.819,0.23,1.572,0.594,2.19,1.113c1.239,1.041,1.892,2.548,1.892,4.358
		h-1.176c0.001-1.452-0.509-2.647-1.473-3.457c-0.412-0.345-0.899-0.612-1.435-0.799l-0.002,8.777
		c2.651,1.203,4.414,2.727,4.413,6.207c0,2.855-2.016,4.62-4.416,5.218v2.203h-1.175v-2.007c-0.229,0.021-0.461,0.034-0.692,0.034
		c-0.107,0-0.213-0.008-0.32-0.013v1.985h-1.175v-2.129c-2.561-0.523-4.787-2.393-4.786-5.516h1.176
		c-0.001,2.365,1.649,3.823,3.611,4.311l0.002-10.544c-2.099-1.084-4.103-2.626-4.103-5.289c0.001-2.502,1.922-4.064,4.105-4.555
		v-2.14h1.175v1.984c0.11-0.005,0.221-0.012,0.331-0.012c0.232,0,0.456,0.033,0.682,0.055L-766.233-622.277 M-766.236-610.562
		l0.002-8.514c-0.225-0.026-0.449-0.053-0.682-0.053c-0.111,0-0.22,0.017-0.331,0.023l-0.002,8.086
		C-766.912-610.862-766.573-610.71-766.236-610.562 M-768.423-611.621l0.001-7.307c-1.609,0.429-2.928,1.556-2.928,3.347
		C-771.351-613.719-770.05-612.537-768.423-611.621 M-766.931-599.564c0.23,0,0.461-0.016,0.692-0.039l0.002-9.677
		c-0.042-0.019-0.083-0.037-0.125-0.056c-0.286-0.125-0.584-0.256-0.887-0.393l-0.002,10.153
		C-767.145-599.571-767.038-599.564-766.931-599.564 M-765.063-599.829c1.768-0.519,3.239-1.818,3.24-4.007
		c0.001-2.685-1.141-3.868-3.238-4.901L-765.063-599.829 M-767.232-623.278L-767.232-623.278l-0.013,0.001h-1.175h-1v1v1.382
		c-2.518,0.848-4.104,2.865-4.105,5.312c0,3.088,2.203,4.824,4.103,5.887l-0.002,8.464c-0.79-0.475-1.612-1.329-1.611-2.827v-1h-1
		h-1.176h-1v1c-0.001,2.989,1.851,5.385,4.786,6.292v1.353v1h1h1.175h1h0.013h1.175h1v-1v-1.459c2.744-0.96,4.416-3.187,4.416-5.962
		c0.001-3.934-2.143-5.707-4.413-6.838l0.001-6.388c0.596,0.608,0.908,1.466,0.908,2.497v1h1h1.176h1v-1
		c0-2.116-0.778-3.888-2.249-5.124c-0.524-0.44-1.139-0.797-1.833-1.067v-1.522v-1h-1h-1.175L-767.232-623.278L-767.232-623.278z
		 M-769.422-613.559c-0.634-0.617-0.928-1.271-0.927-2.022c0-0.859,0.428-1.426,0.928-1.796L-769.422-613.559L-769.422-613.559z
		 M-764.063-601.393l0.001-5.56c0.823,0.688,1.239,1.578,1.238,3.117C-762.824-602.624-763.4-601.865-764.063-601.393
		L-764.063-601.393z"/>
</g>
<g>
	<polygon fill="#BCBEC0" points="37.773,52.73 40.774,28.193 39.526,28.041 36.478,52.96 	"/>
	<path fill="#BCBEC0" d="M67.164,52.002c0.308-0.438,0.426-0.973,0.333-1.502c-0.191-1.089-1.24-1.828-2.328-1.631l-30.275,5.322
		c-0.553,0.102-1.018-0.276-1.128-0.906c-0.109-0.624,0.177-1.34,0.847-1.457l1.075-0.161l0.625-5.186l-8.575,1.507
		c-4.418,0.776-9.955,8.837-10.578,11.249c-0.84,3.25,2.906,15.646,3.373,17.166c0.38,0.274,1.486,1.074,1.966,1.442
		c2.105,1.62,5.883,2.253,11.231,1.896c0.267,0.014,0.423,0.009,0.565-0.018l0.245-0.043c5.823-0.5,11.242-1.969,11.296-1.981
		l16.937-2.979c1.09-0.191,1.822-1.236,1.631-2.328c-0.092-0.527-0.385-0.986-0.825-1.296c-0.44-0.308-0.972-0.426-1.502-0.333
		l-14.956,2.631l0.193-0.728c0.193-0.729,0.354-1.438,0.48-2.114l0.061-0.326L68.8,66.544c0.529-0.094,0.99-0.387,1.298-0.825
		c0.308-0.438,0.427-0.973,0.333-1.502c-0.191-1.09-1.237-1.818-2.327-1.629l-20.03,3.521l-0.05-0.517
		c-0.061-0.632-0.142-1.297-0.244-1.995l-0.067-0.463l22.749-3.998c1.091-0.191,1.823-1.234,1.631-2.326
		c-0.093-0.527-0.386-0.988-0.826-1.299c-0.44-0.308-0.975-0.426-1.501-0.334L46.99,59.182l-0.094-0.457
		c-0.141-0.685-0.285-1.348-0.426-1.979l-0.11-0.49l19.507-3.428C66.395,52.734,66.856,52.441,67.164,52.002z"/>
	<path fill="#BCBEC0" d="M85.18,30.499l-42.42-5.188l-3.317,27.125l25.562-4.513c1.613-0.284,3.157,0.801,3.439,2.411
		c0.138,0.782-0.037,1.57-0.493,2.221c-0.456,0.649-1.137,1.081-1.918,1.219l-18.518,3.254c0.075,0.343,0.151,0.691,0.226,1.049
		L69.6,54.232c0.78-0.141,1.569,0.037,2.219,0.494c0.649,0.455,1.083,1.137,1.22,1.918c0.284,1.61-0.797,3.153-2.411,3.438
		L48.795,63.92c0.049,0.364,0.093,0.719,0.131,1.062l19.012-3.342c1.617-0.281,3.157,0.799,3.438,2.407
		c0.138,0.781-0.037,1.569-0.493,2.22c-0.456,0.649-1.136,1.082-1.918,1.221l-20.291,3.566c-0.074,0.367-0.157,0.745-0.25,1.131
		l13.486-2.369c0.78-0.142,1.569,0.037,2.219,0.49c0.649,0.454,1.083,1.137,1.22,1.916c0.282,1.611-0.799,3.155-2.41,3.439
		l-16.894,2.969c-0.01,0.008-4.698,1.273-10.036,1.864l-0.422,3.454l40.3,4.929l-2.571,1.505l-39.558-4.838l0.595-4.865
		c-0.192,0.023-0.393,0.031-0.627,0.016c-0.221,0.017-0.43,0.021-0.646,0.035l-0.723,5.912l41.016,5.016l0.21,0.025l4.318-2.528
		l-0.019-0.031l0.123,0.015L85.18,30.499z"/>
</g>
<path fill="#BCBEC0" d="M155.116,42.412c-1.06-2.329-8.091-9.528-12.804-9.528c-0.054,0-0.106,0-0.158,0c-1.584,0-3.34,0-5.174,0
	c-0.32,0-0.642,0-0.967,0c-0.05-0.492-0.133-0.993-0.277-1.509c-1.465-5.182-4.743-6.689-9.215-7.353
	c-0.418-0.064-0.856-0.122-1.301-0.182c-0.248-0.036-0.498-0.069-0.748-0.103L120.92,11.19c0.534-0.097,1.064-0.146,1.587-0.146
	c1.021,0,2.001,0.19,2.876,0.583c1.768,0.796,3.023,2.351,3.633,4.499l1.736-0.492c-0.757-2.679-2.355-4.637-4.626-5.658
	c-1.104-0.495-2.331-0.734-3.604-0.734c-0.688,0-1.393,0.07-2.096,0.208l-0.832-2.934l-1.736,0.493l0.824,2.909
	c-3.646,1.39-6.641,4.839-5.451,9.051c1.277,4.509,5.82,5.745,9.816,6.381l2.145,7.575c-4.604,0.418-3.254,5.675,1.66,5.871
	l0.485,1.717c-0.569,0.104-1.147,0.158-1.719,0.158c-2.996,0-5.876-1.47-6.833-4.854l-1.74,0.493
	c1.217,4.303,4.836,6.198,8.564,6.198c0.746,0,1.494-0.076,2.229-0.223l0.852,3.005l1.74-0.491l-0.854-3.004
	c1.721-0.63,3.285-1.656,4.449-2.98c0.443,0,0.853,0,1.22,0c1.037,0,1.758,0,2.112,0c0.055,0,0.121,0,0.156,0
	c0.707,0,0.854,1.417,0.131,1.417h-3.688c-0.955,0.881-2.062,1.603-3.226,2.127l0.617,2.178l0.266,0.925l-0.928,0.261l-1.738,0.491
	l-0.926,0.261l-0.262-0.923l-0.617-2.181c-0.512,0.065-1.024,0.098-1.537,0.098c-3.105,0-5.756-1.185-7.533-3.237H105.6
	c-1.375,0-2.49,1.115-2.49,2.49s1.115,2.489,2.49,2.489h19.303c-0.029,0.649-0.059,1.331-0.077,2.032h-22.659
	c-1.375,0-2.489,1.115-2.489,2.489c0,1.375,1.114,2.491,2.489,2.491h22.631c0.021,0.713,0.059,1.393,0.105,2.028h-19.817
	c-1.375,0-2.487,1.112-2.487,2.488c0,1.375,1.112,2.487,2.487,2.487h20.935c0.264,0.695,0.555,1.381,0.854,2.029h-14.436
	c-1.375,0-2.486,1.112-2.486,2.487s1.111,2.487,2.486,2.487h17.15c0,0,2.498,0.232,5.909,0.232c1.706,0,3.639-0.058,5.604-0.232
	h0.248c0.213,0,0.414-0.031,0.611-0.084c4.421-0.473,8.85-1.569,11.036-3.963C158.251,56.441,156.824,46.168,155.116,42.412z
	 M114.973,18.475c-0.889-3.135,1.346-5.669,4.207-6.799l3.324,11.751C119.1,22.823,115.893,21.729,114.973,18.475z M126.253,25.809
	c4.082,0.607,6.524,1.752,7.743,6.058c0.1,0.348,0.156,0.685,0.199,1.017c-0.32,0-0.646,0-0.967,0c-1.733,0-3.475,0-5.172,0
	c-0.339,0-0.666,0-0.998,0l-2.055-7.253C125.434,25.69,125.852,25.75,126.253,25.809z M129.085,40.042l-0.349-1.227
	c0.935,0,1.818,0,2.643,0C130.682,39.321,129.898,39.734,129.085,40.042z"/>
<ellipse stroke="#E6E6E6" stroke-width="2" stroke-miterlimit="10" cx="-436.491" cy="-704.816" rx="26.75" ry="15.25"/>
<g>
	<polygon points="-638.531,-721.962 -595.318,-734.72 -564.863,-719.494 -607.253,-703.031 	"/>
	<g>
		<polygon points="-640.987,-728.041 -595.223,-741.552 -562.397,-725.138 -607.35,-707.681 		"/>
		<g>
			<path fill="#E6E6E6" d="M-595.318-740.482l30.455,15.229l-42.391,16.463l-31.277-18.932L-595.318-740.482 M-595.128-742.623
				l-0.756,0.223l-43.213,12.76l-4.345,1.283l3.875,2.346l31.277,18.932l0.843,0.51l0.917-0.357l42.391-16.463l4.209-1.633
				l-4.038-2.02l-30.455-15.229L-595.128-742.623L-595.128-742.623z"/>
		</g>
	</g>
	<polygon points="-607.253,-708.791 -607.253,-703.031 -564.863,-719.494 -564.863,-725.253 	"/>
</g>
<g>
	<polygon points="-638.531,-731.953 -595.318,-744.71 -564.863,-729.484 -607.253,-713.021 	"/>
	<g>
		<polygon points="-640.987,-738.031 -595.223,-751.542 -562.397,-735.128 -607.35,-717.671 		"/>
		<g>
			<path fill="#E6E6E6" d="M-595.318-750.472l30.455,15.229l-42.391,16.463l-31.277-18.932L-595.318-750.472 M-595.128-752.613
				l-0.756,0.226l-43.213,12.76l-4.345,1.283l3.875,2.346l31.277,18.932l0.843,0.51l0.917-0.357l42.391-16.463l4.209-1.633
				l-4.038-2.021l-30.455-15.229L-595.128-752.613L-595.128-752.613z"/>
		</g>
	</g>
	<polygon points="-607.253,-718.781 -607.253,-713.021 -564.863,-729.484 -564.863,-735.244 	"/>
</g>
<g>
	<polygon points="-638.531,-742.853 -595.318,-755.611 -564.863,-740.384 -607.253,-723.921 	"/>
	<g>
		<polygon points="-640.987,-748.931 -595.223,-762.443 -562.397,-746.029 -607.35,-728.572 		"/>
		<g>
			<path fill="#E6E6E6" d="M-595.318-761.373l30.455,15.229l-42.391,16.463l-31.277-18.935L-595.318-761.373 M-595.128-763.513
				l-0.756,0.223l-43.213,12.76l-4.345,1.283l3.875,2.346l31.277,18.932l0.843,0.51l0.917-0.357l42.391-16.463l4.209-1.633
				l-4.038-2.02l-30.455-15.229L-595.128-763.513L-595.128-763.513z"/>
		</g>
	</g>
	<polygon points="-607.253,-729.681 -607.253,-723.921 -564.863,-740.384 -564.863,-746.144 	"/>
</g>
<polygon points="-239.597,-728.521 -196.384,-741.279 -165.929,-726.052 -208.319,-709.589 "/>
<g>
	<polygon points="-242.053,-734.599 -196.289,-748.111 -163.463,-731.698 -208.416,-714.24 	"/>
	<g>
		<path fill="#E6E6E6" d="M-196.384-747.041l30.455,15.228l-42.391,16.463l-31.277-18.932L-196.384-747.041 M-196.194-749.182
			l-0.756,0.224l-43.213,12.759l-4.346,1.283l3.877,2.346l31.277,18.935l0.842,0.51l0.917-0.356l42.391-16.463l4.209-1.634
			l-4.038-2.02l-30.455-15.228L-196.194-749.182L-196.194-749.182z"/>
	</g>
</g>
<polygon points="-208.319,-715.35 -208.319,-709.589 -165.929,-726.052 -165.929,-731.813 "/>
<polygon points="-239.597,-740.771 -196.384,-753.529 -165.929,-738.302 -208.319,-721.839 "/>
<g>
	<polygon points="-242.053,-746.849 -196.289,-760.361 -163.463,-743.948 -208.416,-726.49 	"/>
	<g>
		<path fill="#E6E6E6" d="M-196.384-759.291l30.455,15.228L-208.32-727.6l-31.277-18.932L-196.384-759.291 M-196.194-761.432
			l-0.756,0.224l-43.213,12.759l-4.346,1.283l3.877,2.346l31.277,18.935l0.842,0.51l0.917-0.356l42.391-16.463l4.209-1.634
			l-4.038-2.02l-30.455-15.228L-196.194-761.432L-196.194-761.432z"/>
	</g>
</g>
<polygon points="-208.319,-727.6 -208.319,-721.839 -165.929,-738.302 -165.929,-744.063 "/>
<polygon points="-240.097,-754.021 -196.884,-766.779 -166.429,-751.552 -208.819,-735.089 "/>
<g>
	<polygon points="-242.553,-760.099 -196.789,-773.611 -163.963,-757.198 -208.916,-739.74 	"/>
	<g>
		<path fill="#E6E6E6" d="M-196.884-772.541l30.455,15.228l-42.391,16.463l-31.277-18.932L-196.884-772.541 M-196.694-774.682
			l-0.756,0.224l-43.213,12.759l-4.346,1.283l3.877,2.346l31.277,18.935l0.842,0.51l0.917-0.356l42.391-16.463l4.209-1.634
			l-4.038-2.02l-30.455-15.228L-196.694-774.682L-196.694-774.682z"/>
	</g>
</g>
<polygon points="-208.819,-740.85 -208.819,-735.089 -166.429,-751.552 -166.429,-757.313 "/>
<g>
	<path d="M-202.514-785.47c-3.536-0.141-7.525-2.002-8.588-6.875l-0.154-0.707l3.074-0.672l0.154,0.707
		c0.521,2.389,2.29,3.958,4.812,4.326l-2.951-13.515c-2.902-0.827-6.609-2.442-7.526-6.631c-0.717-3.294,0.952-6.48,4.273-8.255
		l-0.694-3.18l3.073-0.673l0.608,2.793c0.006-0.001,0.013-0.002,0.019-0.003l-0.611-2.793l3.075-0.672l0.731,3.354
		c1.173,0.127,2.24,0.438,3.181,0.93c2.268,1.192,3.786,3.288,4.393,6.061l0.155,0.708l-3.074,0.668l-0.154-0.705
		c-0.402-1.836-1.363-3.199-2.779-3.942c-0.311-0.162-0.644-0.295-0.996-0.398l2.374,10.868c3.633,0.84,7.074,2.463,8.253,7.857
		c0.82,3.758-0.902,7.266-4.509,9.271l0.715,3.282l-3.072,0.671l-0.61-2.791c-0.006,0.001-0.012,0.003-0.017,0.004l0.61,2.792
		l-3.073,0.671L-202.514-785.47z M-200.033-788.855c0.006-0.001,0.013-0.003,0.019-0.005l-2.743-12.556
		c-0.007-0.001-0.013-0.002-0.02-0.004L-200.033-788.855z M-197.089-790.206c1.221-0.9,2.742-2.614,2.147-5.342
		c-0.674-3.081-2.097-4.301-4.419-5.056L-197.089-790.206z M-203.491-804.778l-2.251-10.302c-0.006,0.001-0.013,0.002-0.02,0.003
		l2.249,10.293C-203.506-804.781-203.499-804.779-203.491-804.778z M-208.711-813.849c-1.564,1.106-2.271,2.678-1.907,4.341
		c0.368,1.685,1.517,2.865,3.671,3.735L-208.711-813.849z"/>
	<path fill="#FFFFFF" d="M-204.503-820.758l0.691,3.169c1.229,0.071,2.406,0.355,3.438,0.895c2.071,1.089,3.462,3.017,4.021,5.574
		l-1.661,0.361c-0.449-2.051-1.538-3.582-3.149-4.428c-0.689-0.359-1.462-0.587-2.274-0.686l2.709,12.401
		c4.117,0.881,7.079,2.489,8.154,7.406c0.88,4.035-1.423,7.15-4.627,8.736l0.679,3.113l-1.66,0.362l-0.62-2.835
		c-0.319,0.1-0.641,0.19-0.967,0.262c-0.15,0.032-0.304,0.056-0.456,0.081l0.613,2.806l-1.66,0.362l-0.658-3.008
		c-0.049,0-0.098,0.001-0.146,0.001c-3.729,0-7.369-1.958-8.319-6.315l1.661-0.363c0.729,3.343,3.512,4.894,6.434,4.975
		l-3.253-14.897c-3.303-0.885-6.61-2.444-7.434-6.205c-0.77-3.536,1.462-6.337,4.394-7.705l-0.66-3.023l1.66-0.363l0.611,2.804
		c0.154-0.042,0.309-0.086,0.465-0.12c0.328-0.071,0.653-0.095,0.979-0.133l-0.626-2.863L-204.503-820.758 M-202.547-803.842
		l-2.628-12.03c-0.326,0.032-0.651,0.062-0.979,0.135c-0.157,0.034-0.307,0.092-0.463,0.135l2.496,11.426
		C-203.596-804.057-203.07-803.948-202.547-803.842 M-205.965-804.663l-2.255-10.326c-2.142,1.104-3.658,3.104-3.104,5.635
		C-210.75-806.723-208.547-805.455-205.965-804.663 M-200.588-788.006c0.152-0.025,0.306-0.049,0.456-0.082
		c0.326-0.071,0.646-0.164,0.967-0.27l-2.987-13.675c-0.064-0.012-0.129-0.021-0.195-0.038c-0.441-0.088-0.904-0.182-1.374-0.282
		L-200.588-788.006 M-197.574-789.04c2.337-1.279,4.014-3.57,3.34-6.662c-0.83-3.793-2.809-5.112-6.09-5.925L-197.574-789.04
		 M-203.398-822.48l-1.413,0.31l-1.661,0.363l-0.017,0.003l0,0l-1.414,0.31l-1.66,0.363l-1.412,0.309l0.309,1.413l0.427,1.953
		c-3.295,1.975-4.913,5.315-4.16,8.774c0.955,4.362,4.604,6.135,7.618,7.051l2.611,11.959c-1.263-0.427-2.688-1.38-3.15-3.498
		l-0.309-1.414l-1.413,0.31l-1.661,0.363l-1.412,0.309l0.308,1.412c0.918,4.208,4.282,7.032,8.706,7.41l0.418,1.913l0.31,1.412
		l1.412-0.308l1.66-0.362l1.413-0.309v-0.001l0.017-0.003l1.66-0.362l1.412-0.308l-0.308-1.413l-0.449-2.062
		c3.578-2.205,5.252-5.867,4.397-9.787c-1.216-5.559-4.792-7.401-8.35-8.3l-1.972-9.026c1.028,0.674,1.736,1.789,2.056,3.25
		l0.31,1.411l1.411-0.307l1.661-0.361l1.415-0.308l-0.31-1.415c-0.654-2.988-2.301-5.251-4.762-6.545
		c-0.881-0.46-1.859-0.775-2.921-0.941l-0.469-2.15L-203.398-822.48L-203.398-822.48z M-207.976-807.092
		c-1.086-0.676-1.704-1.51-1.936-2.57c-0.266-1.214,0.164-2.148,0.757-2.826L-207.976-807.092L-207.976-807.092z M-196.645-791.56
		l-1.716-7.855c1.374,0.717,2.237,1.847,2.713,4.022C-195.274-793.681-195.854-792.431-196.645-791.56L-196.645-791.56z"/>
</g>
<g>
	<path d="M-326.164-791.469c-3.536-0.141-7.525-2.002-8.588-6.875l-0.154-0.707l3.074-0.672l0.154,0.707
		c0.521,2.389,2.29,3.958,4.812,4.326l-2.951-13.515c-2.902-0.827-6.609-2.442-7.526-6.631c-0.717-3.294,0.952-6.48,4.273-8.255
		l-0.694-3.18l3.073-0.673l0.608,2.793c0.006-0.001,0.013-0.002,0.019-0.003l-0.611-2.793l3.075-0.672l0.731,3.354
		c1.173,0.127,2.24,0.438,3.181,0.93c2.268,1.192,3.786,3.288,4.393,6.061l0.155,0.708l-3.074,0.668l-0.154-0.705
		c-0.402-1.836-1.363-3.199-2.779-3.942c-0.311-0.162-0.644-0.295-0.996-0.398l2.374,10.868c3.633,0.84,7.074,2.463,8.253,7.857
		c0.82,3.758-0.902,7.266-4.509,9.271l0.715,3.282l-3.072,0.671l-0.61-2.791c-0.006,0.001-0.012,0.003-0.017,0.004l0.61,2.792
		l-3.073,0.671L-326.164-791.469z M-323.684-794.854c0.006-0.001,0.013-0.003,0.019-0.005l-2.743-12.556
		c-0.007-0.001-0.013-0.002-0.02-0.004L-323.684-794.854z M-320.739-796.205c1.221-0.9,2.742-2.614,2.147-5.342
		c-0.674-3.081-2.097-4.301-4.419-5.056L-320.739-796.205z M-327.142-810.777l-2.251-10.302c-0.006,0.001-0.013,0.002-0.02,0.003
		l2.249,10.293C-327.156-810.78-327.149-810.778-327.142-810.777z M-332.361-819.848c-1.564,1.106-2.271,2.678-1.907,4.341
		c0.368,1.685,1.517,2.865,3.671,3.735L-332.361-819.848z"/>
	<path fill="#FFFFFF" d="M-328.153-826.757l0.691,3.169c1.229,0.071,2.406,0.355,3.438,0.895c2.071,1.089,3.462,3.017,4.021,5.574
		l-1.661,0.361c-0.449-2.051-1.538-3.582-3.149-4.428c-0.689-0.359-1.462-0.587-2.274-0.686l2.709,12.401
		c4.117,0.881,7.079,2.489,8.154,7.406c0.88,4.035-1.423,7.15-4.627,8.736l0.679,3.113l-1.66,0.362l-0.62-2.835
		c-0.319,0.1-0.641,0.19-0.967,0.262c-0.15,0.032-0.304,0.056-0.456,0.081l0.613,2.806l-1.66,0.362l-0.658-3.008
		c-0.049,0-0.098,0.001-0.146,0.001c-3.729,0-7.369-1.958-8.319-6.315l1.661-0.363c0.729,3.343,3.512,4.894,6.434,4.975
		l-3.253-14.897c-3.303-0.885-6.61-2.444-7.434-6.205c-0.77-3.536,1.462-6.337,4.394-7.705l-0.66-3.023l1.66-0.363l0.611,2.804
		c0.154-0.042,0.309-0.086,0.465-0.12c0.328-0.071,0.653-0.095,0.979-0.133l-0.626-2.863L-328.153-826.757 M-326.197-809.841
		l-2.628-12.03c-0.326,0.032-0.651,0.062-0.979,0.135c-0.157,0.034-0.307,0.092-0.463,0.135l2.496,11.426
		C-327.246-810.056-326.721-809.947-326.197-809.841 M-329.615-810.662l-2.255-10.326c-2.142,1.104-3.658,3.104-3.104,5.635
		C-334.4-812.722-332.197-811.454-329.615-810.662 M-324.238-794.005c0.152-0.025,0.306-0.049,0.456-0.082
		c0.326-0.071,0.646-0.164,0.967-0.27l-2.987-13.675c-0.064-0.012-0.129-0.021-0.195-0.038c-0.441-0.088-0.904-0.182-1.374-0.282
		L-324.238-794.005 M-321.225-795.039c2.337-1.279,4.014-3.57,3.34-6.662c-0.83-3.793-2.809-5.112-6.09-5.925L-321.225-795.039
		 M-327.049-828.479l-1.413,0.31l-1.661,0.363l-0.017,0.003l0,0l-1.414,0.31l-1.66,0.363l-1.412,0.309l0.309,1.413l0.427,1.953
		c-3.295,1.975-4.913,5.315-4.16,8.774c0.955,4.362,4.604,6.135,7.618,7.051l2.611,11.959c-1.263-0.427-2.688-1.38-3.15-3.498
		l-0.309-1.414l-1.413,0.31l-1.661,0.363l-1.412,0.309l0.308,1.412c0.918,4.208,4.282,7.032,8.706,7.41l0.418,1.913l0.31,1.412
		l1.412-0.308l1.66-0.362l1.413-0.309v-0.001l0.017-0.003l1.66-0.362l1.412-0.308l-0.308-1.413l-0.449-2.062
		c3.578-2.205,5.252-5.867,4.397-9.787c-1.216-5.559-4.792-7.401-8.35-8.3l-1.972-9.026c1.028,0.674,1.736,1.789,2.056,3.25
		l0.31,1.411l1.411-0.307l1.661-0.361l1.415-0.308l-0.31-1.415c-0.654-2.988-2.301-5.251-4.762-6.545
		c-0.881-0.46-1.859-0.775-2.921-0.941l-0.469-2.15L-327.049-828.479L-327.049-828.479z M-331.626-813.091
		c-1.086-0.676-1.704-1.51-1.936-2.57c-0.266-1.214,0.164-2.148,0.757-2.826L-331.626-813.091L-331.626-813.091z M-320.295-797.559
		l-1.716-7.855c1.374,0.717,2.237,1.847,2.713,4.022C-318.925-799.68-319.504-798.43-320.295-797.559L-320.295-797.559z"/>
</g>
<g>
	<polygon points="-606.564,-802.586 -552.725,-807.201 -559.65,-823.389 -607.211,-820.496 	"/>
	<polygon points="-606.564,-797.385 -552.725,-802 -559.65,-818.188 -607.211,-815.295 	"/>
	<polygon fill="#E6E6E6" points="-553.166,-807.201 -553.166,-802.505 -605.98,-798.331 -606.345,-802.766 	"/>
</g>
<g>
	<polygon points="-349.229,-765.299 -349.229,-770.857 -345.636,-769.741 -346.036,-763.997 	"/>
	<g>
		<polygon points="-345.326,-752.469 -290.993,-756.647 -298.395,-773.95 -349.229,-770.857 		"/>
		<polygon points="-345.326,-746.91 -290.993,-751.089 -298.395,-768.39 -349.229,-765.299 		"/>
		<polygon fill="#E6E6E6" points="-291.464,-756.647 -291.464,-751.628 -344.701,-747.92 -345.092,-752.661 		"/>
	</g>
	<polygon fill="#E6E6E6" points="-349.012,-769.891 -348.977,-765.511 -344.769,-747.92 -345.092,-752.661 	"/>
</g>
<g>
	<polygon points="-289.032,-770.88 -294.824,-768.727 -294.824,-768.727 -289.032,-770.88 -312.49,-783.64 -347.433,-772.388 
		-340.585,-768.777 -346.84,-766.761 -321.016,-753.14 -288.44,-765.254 	"/>
	<polygon fill="#E6E6E6" points="-346.84,-772.017 -346.84,-767.131 -321.021,-753.585 -321.078,-758.47 	"/>
</g>
</svg>
